<svg xmlns="http://www.w3.org/2000/svg" viewBox="0 0 627.93 218.97"><defs><style>.cls-1{fill:none;}.cls-2{fill:#fff;}.cls-3{font-size:167.73px;letter-spacing:0.04em;}.cls-3,.cls-7{stroke:#fff;stroke-miterlimit:10;font-family:Gibson-Bold, Gibson;font-weight:700;}.cls-4{letter-spacing:0.04em;}.cls-5{letter-spacing:0.03em;}.cls-6{letter-spacing:0.05em;}.cls-7{font-size:77.33px;letter-spacing:0.03em;}.cls-8{letter-spacing:0.03em;}</style></defs><title>Johalogo</title><g id="Layer_2" data-name="Layer 2"><g id="Layer_1-2" data-name="Layer 1"><path class="cls-1" d="M421.6,42.56a32.92,32.92,0,0,0-2,2.8c-1,1.71-1.74,3.57-2.86,5.17a4.14,4.14,0,0,0-.61,4c1.24,3.84,2.44,7.7,3.54,11.58,1.68,5.87,3.25,11.78,4.88,17.66a49.15,49.15,0,0,1,1.85,7.52c.37,3.09,3.42,6.6,6.83,6.32a1.81,1.81,0,0,1,1.19.68,24.08,24.08,0,0,0,9.16,6.48c3.13,1.33,6.43,1,9.67.91a2.13,2.13,0,0,1,2.25,1.38,38.45,38.45,0,0,0,2.93,4.86c3.94,5.12,7.85,10.26,11.34,15.71a2.75,2.75,0,0,0,1.69,1.12c3.44.5,6.89.88,10.34,1.29,3.1.36,6.05.31,8.71,2.94,3.8,3.76,8.4,6.7,12.47,10.2,1.58,1.35,2.88,1.73,4.81,1a6.33,6.33,0,0,1,5.81.52c2.92,2,5.76,4.08,8.51,6.29,4,3.21,7.8,6.67,11.84,9.82,5.18,4,10.63,7.72,15.73,11.84,6.29,5.09,12.28,10.57,19.42,14.48,5.15,2.82,10.27,5.67,15.42,8.48a2.1,2.1,0,0,0,1.51.35c1.6-.71,2.16.38,2.81,1.43a8.79,8.79,0,0,0,.94,1.3,2.63,2.63,0,0,0,2.48.94c3.12-.42,6.26-.73,9.4-1,2.81-.2,5.72-.51,8.25,1.11a68.82,68.82,0,0,1,5.76,4.38c.55.44,1,.83,1.72.47,1.18-.56,2.37-1.07,3.58-1.55a3.48,3.48,0,0,0,2.35-2.7,44.7,44.7,0,0,1,1.49-5.2c1-2.87,2.07-5.71,3-8.58a2.45,2.45,0,0,0-.14-1.29c-1-3.41-2-6.8-2.85-10.24a7.23,7.23,0,0,1,1.09-6.22,9.59,9.59,0,0,0,1.35-3.9,3.19,3.19,0,0,0-.6-2.41c-2.14-2.39-4.38-4.69-6.69-6.9-2.17-2.06-4.63-3.82-6-6.64a3.61,3.61,0,0,0-.94-1.12c-2-1.67-3.91-3.4-6-4.92-3.68-2.68-7.52-5.13-11.18-7.85-5.57-4.13-11.05-8.39-16.54-12.64-1.84-1.43-3.51-3.1-5.4-4.48-2.74-2-5.63-3.8-8.43-5.72a71.61,71.61,0,0,1-10.64-9.11c-.77-.79-1.86-1.38-2.33-2.3a37.79,37.79,0,0,1-2.71-6.48,7.53,7.53,0,0,0-2.35-3.66q-5.14-4.48-10.33-9a34.72,34.72,0,0,1-3-2.57c-3.87-4.19-7.57-8.55-11.56-12.62-2.37-2.42-5.18-4.41-7.78-6.59-3.75-3.14-7.44-6.35-11.26-9.38-2.15-1.7-4.69-2.92-6.78-4.68A31.44,31.44,0,0,0,485,39.57,32.6,32.6,0,0,0,469.78,39a69.32,69.32,0,0,0-6.73,2,3.54,3.54,0,0,1-.26-.61q-1.52-5.61-3-11.23c-.32-1.18-.77-1.35-1.7-.59-.33.27-.63.57-1,.87-1.14-1.56-1.24-1.57-2.68-.39-.26.22-.54.4-.92.68a2.63,2.63,0,0,0-.13-.76c-.22-.44-.49-.86-.74-1.3a12.59,12.59,0,0,0-1.13.78c-.82.76-1.61,1.56-2.5,2.43a10,10,0,0,0-.47-1.09c-.22-.35-.51-.67-.76-1a8,8,0,0,0-.85.79c-.83,1-1.64,2-2.52,3.07-.84-2.08-.84-2.08-2.31-.52l-2.2,2.3c-.6-1.47-1.18-.95-1.81-.18s-1.29,1.42-2,2.17c-.91-1.57-1.38-1.65-2.57-.48a13.55,13.55,0,0,0-1.4,1.71c-.51.71-1,1.47-1.52,2.33a10.34,10.34,0,0,0-.6-1c-.25-.34-.55-.65-.83-1-.3.36-.63.69-.9,1.07-.67.94-1.32,1.9-2,2.91-.91-1.43-1.08-1.44-2.05-.23l-1.52,1.92Z"/><path d="M421.6,42.56l1.12,1.14,1.52-1.92c1-1.21,1.14-1.2,2.05.23.69-1,1.34-2,2-2.91.27-.38.6-.71.9-1.07.28.33.58.64.83,1a10.34,10.34,0,0,1,.6,1c.56-.86,1-1.62,1.52-2.33a13.55,13.55,0,0,1,1.4-1.71c1.19-1.17,1.66-1.09,2.57.48.68-.75,1.36-1.43,2-2.17s1.21-1.29,1.81.18l2.2-2.3c1.47-1.56,1.47-1.56,2.31.52.88-1.08,1.69-2.09,2.52-3.07a8,8,0,0,1,.85-.79c.25.34.54.66.76,1a10,10,0,0,1,.47,1.09c.89-.87,1.68-1.67,2.5-2.43a12.59,12.59,0,0,1,1.13-.78c.25.44.52.86.74,1.3a2.63,2.63,0,0,1,.13.76c.38-.28.66-.46.92-.68,1.44-1.18,1.54-1.17,2.68.39.33-.3.63-.6,1-.87.93-.76,1.38-.59,1.7.59q1.5,5.61,3,11.23a3.54,3.54,0,0,0,.26.61,69.32,69.32,0,0,1,6.73-2,32.6,32.6,0,0,1,15.18.54A31.44,31.44,0,0,1,496.88,46c2.09,1.76,4.63,3,6.78,4.68,3.82,3,7.51,6.24,11.26,9.38,2.6,2.18,5.41,4.17,7.78,6.59,4,4.07,7.69,8.43,11.56,12.62a34.72,34.72,0,0,0,3,2.57q5.17,4.47,10.33,9a7.53,7.53,0,0,1,2.35,3.66,37.79,37.79,0,0,0,2.71,6.48c.47.92,1.56,1.51,2.33,2.3a71.61,71.61,0,0,0,10.64,9.11c2.8,1.92,5.69,3.72,8.43,5.72,1.89,1.38,3.56,3,5.4,4.48,5.49,4.25,11,8.51,16.54,12.64,3.66,2.72,7.5,5.17,11.18,7.85,2.09,1.52,4,3.25,6,4.92a3.61,3.61,0,0,1,.94,1.12c1.34,2.82,3.8,4.58,6,6.64,2.31,2.21,4.55,4.51,6.69,6.9a3.19,3.19,0,0,1,.6,2.41,9.59,9.59,0,0,1-1.35,3.9,7.23,7.23,0,0,0-1.09,6.22c.83,3.44,1.9,6.83,2.85,10.24a2.45,2.45,0,0,1,.14,1.29c-1,2.87-2.07,5.71-3,8.58a44.7,44.7,0,0,0-1.49,5.2,3.48,3.48,0,0,1-2.35,2.7c-1.21.48-2.4,1-3.58,1.55-.75.36-1.17,0-1.72-.47a68.82,68.82,0,0,0-5.76-4.38c-2.53-1.62-5.44-1.31-8.25-1.11-3.14.23-6.28.54-9.4,1a2.63,2.63,0,0,1-2.48-.94,8.79,8.79,0,0,1-.94-1.3c-.65-1-1.21-2.14-2.81-1.43a2.1,2.1,0,0,1-1.51-.35c-5.15-2.81-10.27-5.66-15.42-8.48-7.14-3.91-13.13-9.39-19.42-14.48-5.1-4.12-10.55-7.8-15.73-11.84-4-3.15-7.84-6.61-11.84-9.82-2.75-2.21-5.59-4.33-8.51-6.29a6.33,6.33,0,0,0-5.81-.52c-1.93.72-3.23.34-4.81-1-4.07-3.5-8.67-6.44-12.47-10.2-2.66-2.63-5.61-2.58-8.71-2.94-3.45-.41-6.9-.79-10.34-1.29a2.75,2.75,0,0,1-1.69-1.12c-3.49-5.45-7.4-10.59-11.34-15.71a38.45,38.45,0,0,1-2.93-4.86,2.13,2.13,0,0,0-2.25-1.38c-3.24.12-6.54.42-9.67-.91a24.08,24.08,0,0,1-9.16-6.48,1.81,1.81,0,0,0-1.19-.68c-3.41.28-6.46-3.23-6.83-6.32a49.15,49.15,0,0,0-1.85-7.52c-1.63-5.88-3.2-11.79-4.88-17.66-1.1-3.88-2.3-7.74-3.54-11.58a4.14,4.14,0,0,1,.61-4c1.12-1.6,1.87-3.46,2.86-5.17A32.92,32.92,0,0,1,421.6,42.56Zm80.79,15.66c-.55,1-1.11.77-1.69.33-1.29-.95-2.54-1.95-3.85-2.87C493,53,489.09,50.3,485.24,47.57a4.82,4.82,0,0,0-5.37-.33,43.06,43.06,0,0,1-7,2.81,9.2,9.2,0,0,0-5.72,4.66A21.72,21.72,0,0,0,465.59,58c-2.09,5.73-2.22,11.25,2.34,16,2.78,2.9,5.69,5.69,8.64,8.42q9.85,9.12,19.82,18.12a174.68,174.68,0,0,0,18.71,14.46,9.27,9.27,0,0,0,2.78,1,25.49,25.49,0,0,1,3.53.8,7.87,7.87,0,0,1,2.67,2c1.37,1.56,1,3.37.31,5.12-.29.69-.37,1.26.36,1.7s1.42.57,1.73,1.09c1.11,1.87,3,2.78,4.57,4,2.8,2.2,5.46,4.59,8.19,6.88,4.57,3.82,9.11,7.68,13.72,11.44,5,4.05,10,8,15,12q7.88,6.24,15.79,12.41a4.58,4.58,0,0,0,3.58,1.31c2.66-.41,5.36-.63,8-1.18a9.38,9.38,0,0,1,8.24,2.06,33.44,33.44,0,0,0,4.87,3.1,2.56,2.56,0,0,0,2,.05,25.63,25.63,0,0,0,4.31-2.56,9,9,0,0,0,3.52-4c.41-1.16.79-2.34,1.25-3.47a1.63,1.63,0,0,0-.29-1.9c-2.43-2.84-4.83-5.72-7.21-8.61a5.28,5.28,0,0,1-1.29-4c.32-3.23-.2-6-3.35-7.92-3.54-2.2-6.78-4.9-10.13-7.41q-6.9-5.17-13.77-10.38c-3.27-2.49-6.47-5.06-9.74-7.54-4.51-3.42-9.44-6.26-13.51-10.29a44.28,44.28,0,0,0-5.89-4.65,12.39,12.39,0,0,1-3.93-4.76c-.83-1.65-1.47-3.4-2.23-5.09A7.27,7.27,0,0,0,547,94.09c-2.3-2.29-4.68-4.5-7-6.72-2.76-2.58-5.82-4.89-8.27-7.74a120.24,120.24,0,0,0-12.15-12.57c-4.92-4.3-9.78-8.67-14.88-12.73a163.33,163.33,0,0,0-13.33-9.48c-3.28-2.09-6.89-3.75-10.89-3.86-3.22-.09-6.45,0-9.66.17a14.64,14.64,0,0,0-4.78,1c-5.71,2.4-9.17,6.94-11.08,12.74a9,9,0,0,0-.52,4.22,23.23,23.23,0,0,0,3.22,9,6.21,6.21,0,0,1,.51,1.24l-.37.18c-2.46-2.1-3.63-5.08-4.71-8-2.55-6.86,1-12.22,4.67-17.5-.11,0-.18-.12-.25-.11a8.17,8.17,0,0,0-.84.14,29.7,29.7,0,0,0-7.24,3.18c-4.4,2.48-7.73,6.2-11.53,9.36-2.28,1.88-3.46,4.52-4.3,7.33-.78,2.65-1,2.28,1.55,2.85A3.22,3.22,0,0,1,438,69.26c.35,1.47.95,2.87,1.44,4.3a2.37,2.37,0,0,0,.13-1.13c-.12-1-.31-2-.38-2.94s.3-1.92,1.6-2a10.19,10.19,0,0,0,2.07-.25c5.39-1.19,9.72.72,13.42,4.59,2.69,2.81,4.11,6.44,6.26,9.59,1.68,2.47,3.07,5.23,5.13,7.33,3.87,4,8.11,7.57,12.25,11.25,3.83,3.41,7.72,6.76,11.63,10.09,3,2.53,6,5,9,7.47q4.9,4.11,9.77,8.27c.91.78,1.62.62,2.09-.61.95-2.49,1.86-5,2.86-7.47.33-.83.28-1.27-.51-1.81a173.47,173.47,0,0,1-18.36-14.08c-5.1-4.58-10.27-9.09-15.36-13.69q-5.66-5.13-11.17-10.42A26.29,26.29,0,0,1,463.43,69a3.73,3.73,0,0,1-.3-1.18,22.53,22.53,0,0,1,3.81-15A8.19,8.19,0,0,1,471,49.4c3.11-1.12,6.15-2.41,9.25-3.59,1.09-.41,2.23-.93,3.43-.3s2.53,1.34,3.73,2.12c2.09,1.37,4.14,2.81,6.18,4.26C496.53,54,499.41,56.07,502.39,58.22ZM622.27,172.5c-.5.57-.73.87-1,1.14-3.12,3.17-6.09,6.52-9.42,9.44-2.87,2.52-6.15,4.57-9.26,6.81a7.85,7.85,0,0,1-9.54.2c-7.27-5-14.42-10.17-21.45-15.5-5.22-4-10.2-8.27-15.26-12.45-4.31-3.56-8.57-7.18-12.88-10.73-3.49-2.87-6.88-5.88-10.57-8.46-5.26-3.66-10.61-7.18-15.06-11.86a10.94,10.94,0,0,0-6.67-3.68,6.43,6.43,0,0,1-2.77-1.66c-1.61-1.33-3.09-2.82-4.69-4.17-1.95-1.63-4-3.15-5.95-4.77q-5-4.16-10-8.37c-1.92-1.6-3.85-3.19-5.71-4.87q-5.88-5.32-11.7-10.74a39.86,39.86,0,0,1-5.17-5c-2.14-2.9-3.86-6.11-5.78-9.17-1.15-1.84-2.26-3.71-3.53-5.47A12.12,12.12,0,0,0,447.39,68c-2-.26-4.19.3-6.28.57-.17,0-.44.58-.39.84.35,2.16.73,4.31,1.2,6.44.17.75.07,1.23-.62,1.48-.94.35-1.07,1-.84,1.88.52,1.91,1,3.84,1.54,5.73a1.5,1.5,0,0,0,.93.8,7,7,0,0,1,4.37,3.8c.8,1.56,1.64,3.11,2.37,4.71s1.83,1.82,3.39,1.74c1.8-.09,3.66-.35,5.41.56.23.12.74-.23,1.08-.42.73-.41,1.42-1.17,2.15-1.19,1.17,0,2.34.5,3.52.6,2.35.21,3.13,1.78,3.45,3.8.13.81.24,1.63.29,2.46a4.66,4.66,0,0,1-4.59,4.9,20.69,20.69,0,0,0-2.07-.12,4.6,4.6,0,0,1-4.13-1.7c-.19-.22-.6-.24-.91-.35l-.32.28a20.38,20.38,0,0,0,1.2,2.59c1.09,1.65,2.34,3.19,3.44,4.82q4.29,6.33,8.5,12.72a3.15,3.15,0,0,0,2.41,1.44c2.18.34,4.33.84,6.5,1.16,2.66.39,5.32.67,8,1,.68.08.88-.37.93-1,.27-3.2.58-6.39.86-9.59.11-1.19.56-1.44,1.57-.73,2.22,1.55,4.41,3.16,6.61,4.74.58.41.69.85.06,1.5l-7.06-5.1c-.07.45-.12.68-.14.91-.24,2.34-.31,4.71-.75,7-.31,1.68-.16,2.9,1.29,4a154.11,154.11,0,0,1,13.83,11.45,1.54,1.54,0,0,0,1.88.3,13.7,13.7,0,0,1,2.24-.62,6.9,6.9,0,0,1,6.61,1.62c.81.7,1.67,1.34,2.51,2,2.79,2.16,5.62,4.27,8.38,6.47,2.59,2.09,5,4.37,7.66,6.4,4.81,3.7,9.71,7.29,14.58,10.93,2.79,2.09,5.56,4.22,8.38,6.27,3.29,2.39,6.56,4.8,10,7,4,2.62,8.06,5.07,12.11,7.55,2,1.22,4,2.36,6,3.55a2.76,2.76,0,0,0,2.8.1,1.37,1.37,0,0,1,2,.6c.53.83,1.1,1.64,1.65,2.45a1.9,1.9,0,0,0,2.07.94c2.34-.38,4.69-.67,7-1,4.06-.47,8-.2,11.62,2,1.5.92,2.89,2,4.37,3a1.75,1.75,0,0,0,1.3.35c2.06-.88,4.26-1.29,4.71-4.4.42-3,1.89-5.75,3-8.6a4.37,4.37,0,0,0,0-3.69c-.39-.82-.64-1.7-1-2.52a16.86,16.86,0,0,1-1.88-7.62C622.16,174.17,622.21,173.53,622.27,172.5Zm-8.4,6.79c-1.67.74-3,1.27-4.37,1.94a3,3,0,0,1-3.62-.38c-2-1.66-4-3.33-6-4.91a3.19,3.19,0,0,0-2-.67c-2.31.19-4.6.61-6.91.82s-5,.8-7.15-1c-.48-.39-1-.7-1.5-1.08-6.93-5.45-13.9-10.86-20.78-16.39-6-4.86-12-9.85-18-14.8-4.33-3.59-8.63-7.21-13-10.8-2.32-1.94-4.65-3.87-7-5.74-.16-.13-.92.14-1.07.41-.71,1.24-1.23,2.6-2,3.83-.45.75-.45,1.27.21,1.8,2.52,2.05,4.91,4.28,7.58,6.09a168.08,168.08,0,0,1,15.47,11.77c6.21,5.36,12.48,10.67,18.84,15.86,4.73,3.86,9.6,7.56,14.49,11.24,4.49,3.38,9.08,6.62,13.63,9.93a13,13,0,0,0,6.53,2.92,4.31,4.31,0,0,0,3.5-.89l-1.35-1.71c2.36.08,4.41.52,5.59-1.41.55-.09,1.1,0,1.4-.26,2.29-1.84,4.53-3.73,6.78-5.62A5.28,5.28,0,0,0,613.87,179.29ZM421.39,46.61l-.4,0c-.89,1.53-1.82,3-2.63,4.59a3,3,0,0,0-.36,1.94q1.58,6.3,3.33,12.56c1.74,6.19,3.55,12.37,5.34,18.55.22.76.5,1.5.72,2.16,1.25-1.08,2.42-2,3.49-3.07a1.57,1.57,0,0,0,.25-1.28c-.48-2-1-4-1.61-6-2.12-7.29-4.3-14.57-6.38-21.87C422.43,51.67,422,49.13,421.39,46.61Zm10.06,21.87c-2.22-8.34-4.37-16.37-6.51-24.41l-.45,0c-.24.68-.77,1.4-.69,2A36.52,36.52,0,0,0,424.9,51c2.76,9.8,5.56,19.59,8.29,29.41a1.9,1.9,0,0,0,2,1.67,30.52,30.52,0,0,1,5.15,1.46c-.05-.28-.1-.78-.22-1.27-.73-3-1.45-6-2.23-9a39.39,39.39,0,0,0-1.44-4.34,1.86,1.86,0,0,0-1.09-.85C434.09,67.69,432.77,67.06,431.45,68.48Zm25.29,34.84a4.54,4.54,0,0,0,.36-1c.15-1.14.14-2.3.38-3.42.3-1.38.11-1.8-1.29-1.8-1.68,0-3.35.09-5,.14-2.14.06-4.34.56-6.36-.6a33.26,33.26,0,0,1-3.19-2,1,1,0,0,0-1.47,0,18.58,18.58,0,0,1-2.82,1.94c-.89.49-.85.92-.12,1.43a59.79,59.79,0,0,0,5.19,3.51,14.1,14.1,0,0,0,5.18,2.07A72.08,72.08,0,0,0,456.74,103.32Zm-23-14.16c.73-.63,1.36-1.22,2-1.73a3.73,3.73,0,0,1,1-.33,4.72,4.72,0,0,1-.46,1.1,8.53,8.53,0,0,1-1.08,1,.83.83,0,0,0,0,1.44,16.79,16.79,0,0,1,1.53,1.23c.21.21.22.62.33.94l-.39.19c-.73-.59-1.44-1.2-2.2-1.74-.28-.19-.84-.39-1-.25-.82.57-1.56,1.26-2.35,1.93.2.23.28.41.41.46.82.34,1.7,1,2.47.87a21.48,21.48,0,0,0,4-1.2c.1,0,.17-.18.25-.27a6.17,6.17,0,0,0,.2-6.43,1.78,1.78,0,0,0-.6-.59,6.56,6.56,0,0,0-6.46-.11c-2.16,1.15-2.6,4.62-.76,6.46.68-.69,1.62-1.27,1.94-2.1.14-.38-1-1.24-1.5-1.88,0,0-.06-.06-.07-.1-.05-.28-.09-.57-.13-.85a2,2,0,0,1,.73.19C432.32,87.92,433,88.5,433.72,89.16Zm32.11,10.94a26.46,26.46,0,0,0-1.07-2.5,2.85,2.85,0,0,0-3.66-1.31c-2.57,1.55-3.18,3.75-2.67,6.56a3,3,0,0,0,4.2,2.34,6.07,6.07,0,0,0,3.19-3.86A5,5,0,0,0,465.83,100.1ZM435.72,56.81c2.49-1.75,2.57-2.07,1.94-4.47-.67-2.55-1.23-5.14-1.83-7.71-.47-2-.93-4-1.42-6.19-1.74,1.28-2.62,3.7-2.18,5.16.79,2.6,1.55,5.22,2.25,7.84C434.94,53.14,435.28,54.87,435.72,56.81Zm-2.93,5.37c.88-1.72,1.34-3.06.84-4.75-1.48-4.94-2.8-9.92-4.18-14.89-.1-.34-.26-.66-.49-1.26-.79,1.52-1.69,2.63-1.15,4.29,1.23,3.85,2.37,7.73,3.53,11.6C431.81,58.73,432.24,60.3,432.79,62.18Zm90.75,58.22a31.28,31.28,0,0,0-3.71,2.07,40.49,40.49,0,0,0-4.14,3.62c-.24.23-.26,1.2-.1,1.28a7.24,7.24,0,0,1,3,2.78c.1.18.39.24.61.36a2.61,2.61,0,0,0,.37-.4c1.2-2.14,2.45-4.25,3.57-6.43A3.53,3.53,0,0,0,523.54,120.4ZM447.17,32.17c-1.58,1.42-2.39,2.82-1.66,4.87a35,35,0,0,1,.8,4c.42,1.94.88,3.88,1.33,5.84,2.45-.94,2.74-1.46,2.15-3.79-.46-1.8-.92-3.59-1.35-5.4S447.61,34.11,447.17,32.17ZM439.87,53c1.57-1,2.17-2,1.62-3.71-.66-2-1-4.16-1.47-6.25s-1-4.21-1.45-6.32h-.49c-.59.9-1.57,1.61-1.27,2.94C437.81,44.08,438.83,48.49,439.87,53Zm2.55-18.74c-1.38,2.15-1.41,2.16-1,4.34.69,3.71,1.43,7.42,2.15,11.15,2.24-1.29,2.35-1.49,1.78-3.72-.6-2.4-1.26-4.78-1.87-7.17C443.11,37.42,442.8,35.94,442.42,34.28Zm176.9,125.15-7.26-6.9a11,11,0,0,0,.14,3.24c1,2.75,3.33,4.53,5,6.59Zm3.85,3.55-3,2.82c1.51,1.11.89,2.59.34,4.07-.48,1.28-.93,2.56-1.39,3.84l.3.16a34.56,34.56,0,0,0,4.76-6.59C625.3,165.15,625.06,164.13,623.17,163ZM451.07,31.46c-1.08.92-1.61,1.7-1.2,3.15.9,3.18,1.53,6.45,2.27,9.67,1.7-.51,1.7-.51,1.33-2.23-.06-.24-.08-.48-.14-.73C452.59,38.08,451.85,34.84,451.07,31.46Zm4.38,11.61c2.15-.19,2.29-.38,1.78-2.39l-1.89-7.54c-.16-.65-.3-1.3-.45-1.95l-.44,0a6.53,6.53,0,0,0-.43,2C454.44,36.42,455,39.7,455.45,43.07Zm5.33-.61-2.54-11.07-.34,0a3.21,3.21,0,0,0-.21,1c.46,3.1,1,6.18,1.43,9.28C459.29,42.87,459.87,42.88,460.78,42.46ZM446.09,94.2l.33-.31c-.21-.64-.43-1.28-.63-1.93-.56-1.77-.82-1.91-2.5-1.3-.85.31-1.08,1.06-.37,1.58C443.91,93,445,93.55,446.09,94.2Zm-1.59-5.92A2.08,2.08,0,0,0,442,86.94C442.11,88.94,442.35,89.07,444.5,88.28Z"/><path d="M477.65,41.7c.94,0,1.88,0,2.79,0,3.32.09,6.65,1.28,10.5,3.75a158,158,0,0,1,13.27,9.43c4.1,3.25,8.1,6.78,12,10.18l2.87,2.53a116.56,116.56,0,0,1,12.08,12.49,52.89,52.89,0,0,0,5.57,5.34c.91.8,1.86,1.62,2.76,2.46l.23.21c2.25,2.11,4.58,4.28,6.8,6.49a2,2,0,0,1,.19.22h-.64l-.26,0a3.91,3.91,0,0,0-.46,0,1.32,1.32,0,0,0-.74.2c-.63.42-1.23.89-1.8,1.34-.26.21-.51.41-.78.61l-2,1.54q-3.32,2.55-6.64,5.07l-6.9,5.22-5.05,3.81a2.38,2.38,0,0,0-.79.84,1.54,1.54,0,0,0,.08,1.35,1.15,1.15,0,0,0,.76.54l.07,0,.44.19.36-.31.17-.15a1.74,1.74,0,0,1,.22-.19l4.85-3.68,6.65-5.06.78-.59c3.64-2.77,7.4-5.63,11.08-8.47a1.77,1.77,0,0,0,.56-.94,2.18,2.18,0,0,1,.09-.23l.25-.56c.13.25.24.51.36.78s.12.29.19.43c.29.65.57,1.32.84,2,.43,1,.88,2.11,1.4,3.14a13.14,13.14,0,0,0,4.17,5,44.84,44.84,0,0,1,5.79,4.56,66.15,66.15,0,0,0,9.07,7.12c1.5,1,3.05,2.12,4.52,3.23,1.68,1.28,3.38,2.61,5,3.9s3.13,2.44,4.71,3.65c4.6,3.5,9.14,6.91,13.78,10.38.93.69,1.85,1.4,2.77,2.11A90.6,90.6,0,0,0,607,147c2.49,1.55,3.36,3.64,3,7.21a6,6,0,0,0,1.45,4.55c2.67,3.24,5,6.05,7.22,8.62a.88.88,0,0,1,.16,1.12c-.34.84-.64,1.71-.92,2.54-.11.32-.23.64-.34,1a8.39,8.39,0,0,1-3.26,3.65,23.77,23.77,0,0,1-4.19,2.48,1.52,1.52,0,0,1-.62.12,1.64,1.64,0,0,1-.72-.15,32,32,0,0,1-4.76-3,10.11,10.11,0,0,0-6.54-2.46,11,11,0,0,0-2.32.25c-1.64.34-3.34.55-5,.76-1,.13-2,.25-3,.4a2,2,0,0,1-.41,0,4.4,4.4,0,0,1-2.59-1.19c-5.92-4.62-11.08-8.68-15.78-12.41l-.52-.4c-4.76-3.78-9.69-7.69-14.48-11.59-3.5-2.86-7-5.81-10.42-8.67L539.73,137c-.93-.77-1.84-1.55-2.75-2.34-1.77-1.51-3.6-3.08-5.47-4.55-.44-.34-.89-.65-1.33-1a9.61,9.61,0,0,1-3-2.86,2.61,2.61,0,0,0-1.16-1l.32-.07.4-.07a2.65,2.65,0,0,0,1.27-.4l1.2-.83c1.86-1.3,3.79-2.64,5.58-4.12,4.25-3.5,8.5-7.15,12.61-10.67l1.44-1.25a1.82,1.82,0,0,0,.54-1.12c0-.11,0-.21.08-.3l.39-1.16-1.21.18-.32,0a1.93,1.93,0,0,0-1.23.34c-.73.61-1.44,1.25-2.13,1.86s-1.63,1.47-2.48,2.16c-3.73,3-7.54,6-11.22,9l-4.6,3.66-.79.64-.36.3-.15.12a5,5,0,0,0-.66-5.33,8.86,8.86,0,0,0-2.94-2.22,9.11,9.11,0,0,0-2.3-.57c-.47-.08-.91-.15-1.34-.26l-.28-.08a7.55,7.55,0,0,1-2.27-.86,171.82,171.82,0,0,1-18.63-14.39c-7.07-6.35-14-12.72-19.81-18.11-3.38-3.12-6.11-5.78-8.61-8.39-3.82-4-4.51-8.8-2.18-15.22a21.58,21.58,0,0,1,1.47-3.12A8.41,8.41,0,0,1,473,50.77a43.75,43.75,0,0,0,7.17-2.85,5,5,0,0,1,2.21-.59,4.11,4.11,0,0,1,2.4.85c2.19,1.56,4.43,3.11,6.59,4.62l5,3.49c.87.62,1.73,1.28,2.57,1.91l1.26.95a2.16,2.16,0,0,0,1.27.52,1.78,1.78,0,0,0,1.53-1.08l.33-.58-.55-.4-2.66-1.93c-2.06-1.49-4.08-3-6.11-4.4s-4-2.86-6.2-4.28c-1.08-.71-2.23-1.32-3.35-1.91l-.44-.24a3.2,3.2,0,0,0-1.54-.39,6.28,6.28,0,0,0-2.29.57l-.22.08c-1.27.48-2.52,1-3.78,1.48-1.78.72-3.63,1.45-5.45,2.11a8.94,8.94,0,0,0-4.48,3.65,23.38,23.38,0,0,0-3.93,15.49,5.13,5.13,0,0,0,.35,1.4,26.79,26.79,0,0,0,6.55,9.09c3.9,3.74,7.56,7.15,11.19,10.44,2.93,2.64,5.93,5.3,8.83,7.87,2.18,1.94,4.36,3.87,6.53,5.82a174.73,174.73,0,0,0,18.43,14.14c.46.31.47.36.24.91-.71,1.75-1.38,3.55-2,5.3-.27.73-.54,1.46-.82,2.19-.19.49-.36.6-.39.6s-.18,0-.52-.3c-2.83-2.43-5.84-5-9.77-8.27-1.23-1-2.47-2.06-3.71-3.08-1.73-1.43-3.53-2.91-5.26-4.39-3.45-2.94-7.52-6.43-11.62-10.08L478,97.37c-3.3-2.91-6.72-5.92-9.84-9.1a28.22,28.22,0,0,1-3.54-4.9c-.48-.77-1-1.57-1.5-2.33-.77-1.13-1.46-2.35-2.13-3.53a29.9,29.9,0,0,0-4.21-6.16c-3.32-3.48-6.88-5.17-10.85-5.17a15.54,15.54,0,0,0-3.27.37,9.27,9.27,0,0,1-1.93.23,2.33,2.33,0,0,0-1.77.72,2.07,2.07,0,0,0-.48.93,4.07,4.07,0,0,0-3.17-2.37l-.73-.16-.74-.17c.05-.2.15-.53.25-.85s.14-.45.22-.72c1-3.32,2.24-5.47,4.05-7,1.19-1,2.35-2,3.46-3a45.3,45.3,0,0,1,8-6.23A31.08,31.08,0,0,1,456.17,45c-3.12,4.55-6.31,10.08-3.8,16.83,1,2.66,2.22,6,4.92,8.28l.37.32.44-.21.19-.1.19-.09.63-.3-.26-.65c-.05-.12-.09-.24-.13-.37a4.36,4.36,0,0,0-.45-1A22.4,22.4,0,0,1,455.16,59a8.32,8.32,0,0,1,.49-3.87c2-6.09,5.49-10.11,10.66-12.28a13.76,13.76,0,0,1,4.53-.92c2.35-.13,4.64-.2,6.81-.2M515.91,106a19.74,19.74,0,0,0,3.23-.27h.08c3.6-1,6.09-2.56,7.83-4.8,1.55-2,3.24-4.71,2.56-8.12a21.53,21.53,0,0,0-4.49-9.66c-2.19-2.62-4.54-5-7.4-7.85-3.72-3.67-8-7.2-13.91-8.26a21.14,21.14,0,0,0-3.84-.39,11.34,11.34,0,0,0-6.77,2.08c-4.4,3.11-5.82,7-4.35,11.93.86,2.86,2,5.66,3.17,8.53a20.91,20.91,0,0,0,5,7.24,44.66,44.66,0,0,0,10.31,7.47,18.69,18.69,0,0,0,8.63,2.12m71.25,63.88-.77-1.4a3,3,0,0,1-.18-.36,3.08,3.08,0,0,0-.68-1.06c-.8-.74-1.64-1.43-2.46-2.1l-.67-.55-3.66-3c-3.74-3.1-7.61-6.31-11.44-9.44-1.11-.9-2.23-1.74-3.43-2.63l-1-.77.08-.08c.39-.45.74-.84,1.1-1.22l3.5-3.6c2.58-2.66,5.25-5.41,7.86-8.13a2.46,2.46,0,0,0,.53-1.23c0-.13.06-.26.1-.38l.46-1.42-1.41.47-.37.1a2.4,2.4,0,0,0-1.21.53c-1.37,1.32-2.7,2.7-4,4l-.6.61-6.16,6.37-2.15,2.23-1.85-1.52c-1.74-1.43-3.39-2.79-5.13-4.09-1.19-.91-2.41-1.79-3.62-2.68a97.8,97.8,0,0,1-11.42-9.29,1.83,1.83,0,0,0-1.1-.42l-.27,0-1.15-.28.24,1.16a2.19,2.19,0,0,1,0,.28,1.77,1.77,0,0,0,.4,1.15l.25.27a29.3,29.3,0,0,0,3,2.91c2.06,1.66,4.18,3.3,6.24,4.89l3,2.32,1.52,1.19,9.14,7.16,1.53,1.22c5.1,4,10.37,8.19,15.53,12.33,1.18.95,2.35,2,3.49,2.93s2.17,1.87,3.29,2.78a2.56,2.56,0,0,0,1.46.43l.45.05,1.57.3m-8.84-34.83h-.27l-.37,0a1.33,1.33,0,0,0-1,.34c-1.9,1.89-3.78,3.85-5.61,5.74l-.89.93a1.29,1.29,0,0,0-.48,1.24,3.92,3.92,0,0,0,.43.87l.2.35.47.85.7-.68.48-.46.65-.62,1-1c1.65-1.7,3.36-3.47,5-5.23a1.86,1.86,0,0,0,.42-1.07,1.09,1.09,0,0,1,0-.26l.21-1-1,.05m-53.19-11,.1.26,0,.13.14.36.13.33a3.13,3.13,0,0,1-.41-.21c-.23-.13-.3-.18-.06-.76l0-.11M477.65,41c-2.28,0-4.57.07-6.85.21a14.64,14.64,0,0,0-4.78,1c-5.71,2.4-9.17,6.94-11.08,12.74a9,9,0,0,0-.52,4.22,23.23,23.23,0,0,0,3.22,9,6.21,6.21,0,0,1,.51,1.24l-.37.18c-2.46-2.1-3.63-5.08-4.71-8-2.55-6.86,1-12.22,4.67-17.5a.79.79,0,0,0-.24-.11h0a8.17,8.17,0,0,0-.84.14,29.7,29.7,0,0,0-7.24,3.18c-4.4,2.48-7.73,6.2-11.53,9.36-2.28,1.88-3.46,4.52-4.3,7.33-.78,2.65-1,2.28,1.55,2.85A3.22,3.22,0,0,1,438,69.26c.35,1.47.95,2.87,1.44,4.3a2.37,2.37,0,0,0,.13-1.13c-.12-1-.31-2-.38-2.94s.3-1.92,1.6-2a10.19,10.19,0,0,0,2.07-.25,14.26,14.26,0,0,1,3.11-.35c4,0,7.35,1.84,10.31,4.94,2.69,2.81,4.11,6.44,6.26,9.59,1.68,2.47,3.07,5.23,5.13,7.33,3.87,4,8.11,7.57,12.25,11.25,3.83,3.41,7.72,6.76,11.63,10.09,3,2.53,6,5,9,7.47q4.9,4.11,9.77,8.27a1.64,1.64,0,0,0,1,.48c.45,0,.81-.36,1.09-1.09.95-2.49,1.86-5,2.86-7.47.33-.83.28-1.27-.51-1.81a173.47,173.47,0,0,1-18.36-14.08c-5.1-4.58-10.27-9.09-15.36-13.69q-5.66-5.13-11.17-10.42A26.29,26.29,0,0,1,463.43,69a3.73,3.73,0,0,1-.3-1.18,22.53,22.53,0,0,1,3.81-15A8.19,8.19,0,0,1,471,49.4c3.11-1.12,6.15-2.41,9.25-3.59a6.6,6.6,0,0,1,2.24-.6,2.56,2.56,0,0,1,1.19.3c1.26.68,2.53,1.34,3.73,2.12,2.09,1.37,4.14,2.81,6.18,4.26,2.9,2.07,5.78,4.18,8.76,6.33-.28.51-.58.7-.87.7a1.47,1.47,0,0,1-.82-.37c-1.29-.95-2.54-1.95-3.85-2.87C493,53,489.09,50.3,485.24,47.57a4.82,4.82,0,0,0-2.83-1,5.85,5.85,0,0,0-2.54.66,43.06,43.06,0,0,1-7,2.81,9.2,9.2,0,0,0-5.72,4.66A21.72,21.72,0,0,0,465.59,58c-2.09,5.73-2.22,11.25,2.34,16,2.78,2.9,5.69,5.69,8.64,8.42q9.85,9.12,19.82,18.12a174.68,174.68,0,0,0,18.71,14.46,9.27,9.27,0,0,0,2.78,1,25.49,25.49,0,0,1,3.53.8,7.87,7.87,0,0,1,2.67,2c1.37,1.56,1,3.37.31,5.12-.29.69-.37,1.26.36,1.7s1.42.57,1.73,1.09c1.11,1.87,3,2.78,4.57,4,2.8,2.2,5.46,4.59,8.19,6.88,4.57,3.82,9.11,7.68,13.72,11.44,5,4.05,10,8,15,12q7.88,6.24,15.79,12.41a4,4,0,0,0,3.58,1.31c2.66-.41,5.36-.63,8-1.18a11.05,11.05,0,0,1,2.17-.23,9.45,9.45,0,0,1,6.07,2.29,33.44,33.44,0,0,0,4.87,3.1,2.51,2.51,0,0,0,2,.05,25.63,25.63,0,0,0,4.31-2.56,9,9,0,0,0,3.52-4c.41-1.16.79-2.34,1.25-3.48a1.62,1.62,0,0,0-.29-1.89c-2.43-2.84-4.83-5.72-7.21-8.61a5.28,5.28,0,0,1-1.29-4c.32-3.23-.2-6-3.35-7.92-3.54-2.2-6.78-4.9-10.13-7.41q-6.9-5.17-13.77-10.38c-3.27-2.49-6.47-5.06-9.74-7.54-4.51-3.42-9.44-6.26-13.51-10.29a44.28,44.28,0,0,0-5.89-4.65,12.39,12.39,0,0,1-3.93-4.76c-.83-1.65-1.47-3.4-2.23-5.09A7.27,7.27,0,0,0,547,94.09c-2.3-2.29-4.68-4.5-7-6.72-2.76-2.58-5.82-4.89-8.27-7.74a120.24,120.24,0,0,0-12.15-12.57c-4.92-4.3-9.78-8.67-14.88-12.73a163.33,163.33,0,0,0-13.33-9.48c-3.28-2.09-6.89-3.75-10.89-3.86-.93,0-1.87,0-2.81,0Zm38.26,64.34a18,18,0,0,1-8.29-2,43.46,43.46,0,0,1-10.13-7.34,20.26,20.26,0,0,1-4.78-7c-1.14-2.78-2.27-5.58-3.14-8.46-1.4-4.67,0-8.25,4.06-11.1A10.55,10.55,0,0,1,500,67.42a20.85,20.85,0,0,1,3.71.38c5.55,1,9.67,4.27,13.51,8,2.55,2.51,5.07,5.06,7.35,7.8A20.72,20.72,0,0,1,528.87,93c.59,2.93-.73,5.36-2.41,7.52A13.76,13.76,0,0,1,519,105a19.38,19.38,0,0,1-3.11.26Zm5.93,9.34c-.16-.07-.41-.1-.48-.23a.84.84,0,0,1-.07-.67,1.91,1.91,0,0,1,.6-.6q6-4.5,11.92-9,4.35-3.28,8.66-6.61c.84-.64,1.65-1.34,2.53-1.92a.58.58,0,0,1,.33-.08c.22,0,.49.06.71.06-.13.3-.19.71-.42.88-3.94,3-7.9,6.05-11.86,9.07l-11.49,8.73c-.13.1-.25.22-.43.37Zm26.86-8.32c-.13.37-.14.88-.39,1.09-4.66,4-9.31,8-14,11.91-2.14,1.77-4.46,3.32-6.73,4.92a4.17,4.17,0,0,1-1.41.35l-.19-.49,1.15-.94c5.27-4.2,10.57-8.39,15.82-12.62,1.59-1.28,3.05-2.72,4.62-4,.27-.22.78-.14,1.18-.2Zm37,62.58c-.53-.1-1.2,0-1.58-.33-2.29-1.87-4.48-3.87-6.78-5.72q-8.5-6.81-17.07-13.54-5.31-4.2-10.66-8.36c-3.07-2.4-6.18-4.75-9.22-7.2a33.11,33.11,0,0,1-3.16-3.11c-.21-.23-.16-.71-.24-1.07.35.08.8.05,1,.27,4.6,4.58,10,8.15,15.12,12,2.52,1.9,4.92,4,7.49,6,3-3.11,5.89-6.11,8.79-9.1,1.51-1.56,3-3.12,4.57-4.63.3-.29.86-.31,1.3-.46-.15.45-.17,1-.46,1.33-3.77,3.93-7.57,7.82-11.36,11.73-.56.58-1.08,1.2-1.74,1.93,1.78,1.35,3.47,2.56,5.07,3.87,5,4.13,10.07,8.31,15.1,12.46,1.05.87,2.11,1.71,3.1,2.63a4.84,4.84,0,0,1,.71,1.24ZM571,144.16a7.19,7.19,0,0,1-.57-1.07c0-.12.17-.36.31-.5,2.15-2.23,4.29-4.47,6.49-6.66a.63.63,0,0,1,.44-.12l.64,0h.09c-.09.34-.07.78-.28,1-2,2.11-4,4.18-6,6.25-.28.29-.58.57-1.11,1.07Z"/><path class="cls-1" d="M622.27,172.5c-.06,1-.11,1.67-.13,2.31a16.86,16.86,0,0,0,1.88,7.62c.38.82.63,1.7,1,2.52a4.37,4.37,0,0,1,0,3.69c-1.08,2.85-2.55,5.65-3,8.6-.45,3.11-2.65,3.52-4.71,4.4a1.75,1.75,0,0,1-1.3-.35c-1.48-1-2.87-2.06-4.37-3-3.6-2.22-7.56-2.49-11.62-2-2.35.28-4.7.57-7,1a1.9,1.9,0,0,1-2.07-.94c-.55-.81-1.12-1.62-1.65-2.45a1.37,1.37,0,0,0-2-.6,2.76,2.76,0,0,1-2.8-.1c-2-1.19-4-2.33-6-3.55-4.05-2.48-8.14-4.93-12.11-7.55-3.39-2.22-6.66-4.63-10-7-2.82-2.05-5.59-4.18-8.38-6.27-4.87-3.64-9.77-7.23-14.58-10.93-2.63-2-5.07-4.31-7.66-6.4-2.76-2.2-5.59-4.31-8.38-6.47-.84-.65-1.7-1.29-2.51-2a6.9,6.9,0,0,0-6.61-1.62,13.7,13.7,0,0,0-2.24.62,1.54,1.54,0,0,1-1.88-.3,154.11,154.11,0,0,0-13.83-11.45c-1.45-1.07-1.6-2.29-1.29-4,.44-2.29.51-4.66.75-7,0-.23.07-.46.14-.91l7.06,5.1c.63-.65.52-1.09-.06-1.5-2.2-1.58-4.39-3.19-6.61-4.74-1-.71-1.46-.46-1.57.73-.28,3.2-.59,6.39-.86,9.59-.05.63-.25,1.08-.93,1-2.67-.3-5.33-.58-8-1-2.17-.32-4.32-.82-6.5-1.16a3.15,3.15,0,0,1-2.41-1.44q-4.2-6.39-8.5-12.72c-1.1-1.63-2.35-3.17-3.44-4.82a20.38,20.38,0,0,1-1.2-2.59l.32-.28c.31.11.72.13.91.35a4.6,4.6,0,0,0,4.13,1.7,20.69,20.69,0,0,1,2.07.12,4.66,4.66,0,0,0,4.59-4.9c0-.83-.16-1.65-.29-2.46-.32-2-1.1-3.59-3.45-3.8-1.18-.1-2.35-.65-3.52-.6-.73,0-1.42.78-2.15,1.19-.34.19-.85.54-1.08.42-1.75-.91-3.61-.65-5.41-.56-1.56.08-2.69-.21-3.39-1.74s-1.57-3.15-2.37-4.71a7,7,0,0,0-4.37-3.8A1.5,1.5,0,0,1,442,85c-.56-1.89-1-3.82-1.54-5.73-.23-.88-.1-1.53.84-1.88.69-.25.79-.73.62-1.48-.47-2.13-.85-4.28-1.2-6.44-.05-.26.22-.82.39-.84,2.09-.27,4.24-.83,6.28-.57a12.12,12.12,0,0,1,8.47,5.13c1.27,1.76,2.38,3.63,3.53,5.47,1.92,3.06,3.64,6.27,5.78,9.17a39.86,39.86,0,0,0,5.17,5q5.84,5.4,11.7,10.74c1.86,1.68,3.79,3.27,5.71,4.87q5,4.2,10,8.37c2,1.62,4,3.14,5.95,4.77,1.6,1.35,3.08,2.84,4.69,4.17a6.43,6.43,0,0,0,2.77,1.66,10.94,10.94,0,0,1,6.67,3.68c4.45,4.68,9.8,8.2,15.06,11.86,3.69,2.58,7.08,5.59,10.57,8.46,4.31,3.55,8.57,7.17,12.88,10.73,5.06,4.18,10,8.49,15.26,12.45,7,5.33,14.18,10.52,21.45,15.5a7.85,7.85,0,0,0,9.54-.2c3.11-2.24,6.39-4.29,9.26-6.81,3.33-2.92,6.3-6.27,9.42-9.44C621.54,173.37,621.77,173.07,622.27,172.5Zm-5.71,21.81c2.38-1.68,2.91-3.87,2.93-6.23,0-2.92-1.67-4.29-4.55-3.94-.93.11-1.17.58-1.24,1.35a12.1,12.1,0,0,0,1,6A22,22,0,0,0,616.56,194.31Z"/><path class="cls-1" d="M613.87,179.29a5.28,5.28,0,0,1-.63.94c-2.25,1.89-4.49,3.78-6.78,5.62-.3.24-.85.17-1.4.26-1.18,1.93-3.23,1.49-5.59,1.41l1.35,1.71a4.31,4.31,0,0,1-3.5.89,13,13,0,0,1-6.53-2.92c-4.55-3.31-9.14-6.55-13.63-9.93-4.89-3.68-9.76-7.38-14.49-11.24-6.36-5.19-12.63-10.5-18.84-15.86a168.08,168.08,0,0,0-15.47-11.77c-2.67-1.81-5.06-4-7.58-6.09-.66-.53-.66-1.05-.21-1.8.74-1.23,1.26-2.59,2-3.83.15-.27.91-.54,1.07-.41,2.37,1.87,4.7,3.8,7,5.74,4.32,3.59,8.62,7.21,13,10.8,6,4.95,11.92,9.94,18,14.8,6.88,5.53,13.85,10.94,20.78,16.39.48.38,1,.69,1.5,1.08,2.19,1.81,4.71,1.24,7.15,1s4.6-.63,6.91-.82a3.19,3.19,0,0,1,2,.67c2,1.58,4,3.25,6,4.91a3,3,0,0,0,3.62.38C610.82,180.56,612.2,180,613.87,179.29Zm-11.67,1.43a3.31,3.31,0,0,0-3.45-2.61,3.66,3.66,0,0,0-2.67,4.29c.46,2.46,1.64,3.61,3.34,3.25C601.32,185.24,602.64,182.9,602.2,180.72Z"/><path class="cls-1" d="M421.39,46.61c.57,2.52,1,5.06,1.75,7.55,2.08,7.3,4.26,14.58,6.38,21.87.58,2,1.13,4,1.61,6a1.57,1.57,0,0,1-.25,1.28c-1.07,1-2.24,2-3.49,3.07-.22-.66-.5-1.4-.72-2.16-1.79-6.18-3.6-12.36-5.34-18.55Q419.58,59.4,418,53.09a3,3,0,0,1,.36-1.94c.81-1.57,1.74-3.06,2.63-4.59Z"/><path class="cls-1" d="M431.45,68.48c1.32-1.42,2.64-.79,3.92-.4a1.86,1.86,0,0,1,1.09.85,39.39,39.39,0,0,1,1.44,4.34c.78,3,1.5,6,2.23,9,.12.49.17,1,.22,1.27a30.52,30.52,0,0,0-5.15-1.46,1.9,1.9,0,0,1-2-1.67c-2.73-9.82-5.53-19.61-8.29-29.41a36.52,36.52,0,0,1-1.1-4.93c-.08-.64.45-1.36.69-2l.45,0C427.08,52.11,429.23,60.14,431.45,68.48Z"/><path class="cls-1" d="M456.74,103.32a72.08,72.08,0,0,1-9.16.27,14.1,14.1,0,0,1-5.18-2.07A59.79,59.79,0,0,1,437.21,98c-.73-.51-.77-.94.12-1.43a18.58,18.58,0,0,0,2.82-1.94,1,1,0,0,1,1.47,0,33.26,33.26,0,0,0,3.19,2c2,1.16,4.22.66,6.36.6,1.67,0,3.34-.14,5-.14,1.4,0,1.59.42,1.29,1.8-.24,1.12-.23,2.28-.38,3.42A4.54,4.54,0,0,1,456.74,103.32Z"/><path class="cls-1" d="M433.72,89.16c-.76-.66-1.4-1.24-2.07-1.77a2,2,0,0,0-.73-.19c0,.28.08.57.13.85,0,0,.05.07.07.1.54.64,1.64,1.5,1.5,1.88-.32.83-1.26,1.41-1.94,2.1-1.84-1.84-1.4-5.31.76-6.46a6.56,6.56,0,0,1,6.46.11,1.78,1.78,0,0,1,.6.59,6.17,6.17,0,0,1-.2,6.43c-.08.09-.15.23-.25.27a21.48,21.48,0,0,1-4,1.2c-.77.1-1.65-.53-2.47-.87-.13-.05-.21-.23-.41-.46.79-.67,1.53-1.36,2.35-1.93.2-.14.76.06,1,.25.76.54,1.47,1.15,2.2,1.74l.39-.19c-.11-.32-.12-.73-.33-.94a16.79,16.79,0,0,0-1.53-1.23.83.83,0,0,1,0-1.44,8.53,8.53,0,0,0,1.08-1,4.72,4.72,0,0,0,.46-1.1,3.73,3.73,0,0,0-1,.33C435.08,87.94,434.45,88.53,433.72,89.16Z"/><path class="cls-1" d="M465.83,100.1a5,5,0,0,1,0,1.23,6.07,6.07,0,0,1-3.19,3.86,3,3,0,0,1-4.2-2.34c-.51-2.81.1-5,2.67-6.56a2.85,2.85,0,0,1,3.66,1.31A26.46,26.46,0,0,1,465.83,100.1Z"/><path class="cls-1" d="M435.72,56.81c-.44-1.94-.78-3.67-1.24-5.37-.7-2.62-1.46-5.24-2.25-7.84-.44-1.46.44-3.88,2.18-5.16.49,2.15.95,4.17,1.42,6.19.6,2.57,1.16,5.16,1.83,7.71C438.29,54.74,438.21,55.06,435.72,56.81Z"/><path class="cls-1" d="M432.79,62.18c-.55-1.88-1-3.45-1.45-5-1.16-3.87-2.3-7.75-3.53-11.6-.54-1.66.36-2.77,1.15-4.29.23.6.39.92.49,1.26,1.38,5,2.7,10,4.18,14.89C434.13,59.12,433.67,60.46,432.79,62.18Z"/><path class="cls-1" d="M523.54,120.4a3.53,3.53,0,0,1-.4,3.28c-1.12,2.18-2.37,4.29-3.57,6.43a2.61,2.61,0,0,1-.37.4c-.22-.12-.51-.18-.61-.36a7.24,7.24,0,0,0-3-2.78c-.16-.08-.14-1.05.1-1.28a40.49,40.49,0,0,1,4.14-3.62A31.28,31.28,0,0,1,523.54,120.4Z"/><path class="cls-1" d="M447.17,32.17c.44,1.94.84,3.73,1.27,5.52s.89,3.6,1.35,5.4c.59,2.33.3,2.85-2.15,3.79-.45-2-.91-3.9-1.33-5.84a35,35,0,0,0-.8-4C444.78,35,445.59,33.59,447.17,32.17Z"/><path class="cls-1" d="M439.87,53c-1-4.53-2.06-8.94-3.06-13.35-.3-1.33.68-2,1.27-2.94h.49c.48,2.11,1,4.21,1.45,6.32s.81,4.22,1.47,6.25C442,51,441.44,52,439.87,53Z"/><path class="cls-1" d="M442.42,34.28c.38,1.66.69,3.14,1.06,4.6.61,2.39,1.27,4.77,1.87,7.17.57,2.23.46,2.43-1.78,3.72-.72-3.73-1.46-7.44-2.15-11.15C441,36.44,441,36.43,442.42,34.28Z"/><path d="M612.06,152.53a11,11,0,0,0,.14,3.24c1,2.75,3.33,4.53,5,6.59l2.14-2.93-7.26-6.9Z"/><path class="cls-1" d="M623.17,163c1.89,1.15,2.13,2.17,1.05,4.3a34.56,34.56,0,0,1-4.76,6.59l-.3-.16c.46-1.28.91-2.56,1.39-3.84.55-1.48,1.17-3-.34-4.07Z"/><path class="cls-1" d="M451.07,31.46c.78,3.38,1.52,6.62,2.26,9.86.06.25.08.49.14.73.37,1.72.37,1.72-1.33,2.23-.74-3.22-1.37-6.49-2.27-9.67C449.46,33.16,450,32.38,451.07,31.46Z"/><path class="cls-1" d="M455.45,43.07c-.5-3.37-1-6.65-1.43-10a6.53,6.53,0,0,1,.43-2l.44,0c.15.65.29,1.3.45,1.95l1.89,7.54C457.74,42.69,457.6,42.88,455.45,43.07Z"/><path class="cls-1" d="M460.78,42.46c-.91.42-1.49.41-1.66-.78-.44-3.1-1-6.18-1.43-9.28a3.21,3.21,0,0,1,.21-1l.34,0Z"/><path class="cls-1" d="M446.09,94.2c-1.06-.65-2.18-1.22-3.17-2-.71-.52-.48-1.27.37-1.58,1.68-.61,1.94-.47,2.5,1.3.2.65.42,1.29.63,1.93Z"/><path class="cls-1" d="M444.5,88.28c-2.15.79-2.39.66-2.51-1.34A2.08,2.08,0,0,1,444.5,88.28Z"/><path d="M519,105a18.06,18.06,0,0,1-11.4-1.78,43.46,43.46,0,0,1-10.13-7.34,20.26,20.26,0,0,1-4.78-7c-1.14-2.78-2.27-5.58-3.14-8.46-1.4-4.67,0-8.25,4.06-11.1,3.16-2.23,6.45-2.21,10.05-1.56,5.55,1,9.67,4.27,13.51,8,2.55,2.51,5.07,5.06,7.35,7.8A20.72,20.72,0,0,1,528.87,93c.59,2.93-.73,5.36-2.41,7.52A13.76,13.76,0,0,1,519,105Zm-4.32-27.8a9.11,9.11,0,0,0-1.2-1.16c-1.82-1.27-3.61-2.58-5.51-3.71a17.3,17.3,0,0,0-10.28-2.64,9.11,9.11,0,0,0-4.94,1.78c-2.72,2.08-3.08,5.06-2.32,8.16a43.33,43.33,0,0,0,5.14,12.4,13.91,13.91,0,0,0,1.22,1.49,2.57,2.57,0,0,1,2.91-2.2,2.47,2.47,0,0,1,1.79,1.18c.71,1.86-.44,2.86-2.33,3.36.66.61,1.05,1,1.48,1.37,4.59,3.72,9.38,7,15.6,7a11.84,11.84,0,0,0,9.58-4.86,4.58,4.58,0,0,0,1-2.81,16.44,16.44,0,0,0-1.14-4.89c-1.53-3.65-4-6.7-6.48-9.74-.6-.73-1.23-1.44-1.94-2.27-.37,1.88-.91,2.39-2.45,2.51a2.48,2.48,0,0,1-2.37-1.6C512,78.77,513.19,78,514.7,77.23Z"/><path d="M560.65,147.89c3-3.11,5.89-6.11,8.79-9.1,1.51-1.56,3-3.12,4.57-4.63.3-.29.86-.31,1.3-.46-.15.45-.17,1-.46,1.33-3.77,3.93-7.57,7.82-11.36,11.73-.56.58-1.08,1.2-1.74,1.93,1.78,1.35,3.47,2.56,5.07,3.87,5,4.13,10.07,8.31,15.1,12.46,1.05.87,2.11,1.71,3.1,2.63a4.84,4.84,0,0,1,.71,1.24c-.53-.1-1.2,0-1.58-.33-2.29-1.87-4.48-3.87-6.78-5.72q-8.5-6.81-17.07-13.54-5.31-4.2-10.66-8.36c-3.07-2.4-6.18-4.75-9.22-7.2a33.11,33.11,0,0,1-3.16-3.11c-.21-.23-.16-.71-.24-1.07.35.08.8.05,1,.27,4.6,4.58,10,8.15,15.12,12C555.68,143.75,558.08,145.8,560.65,147.89Z"/><path d="M525.93,124.09l1.15-.94c5.27-4.2,10.57-8.39,15.82-12.62,1.59-1.28,3.05-2.72,4.62-4,.27-.22.78-.14,1.18-.2-.13.37-.14.88-.39,1.09-4.66,4-9.31,8-14,11.91-2.14,1.77-4.46,3.32-6.73,4.92a4.17,4.17,0,0,1-1.41.35Z"/><path d="M521.84,114.63c-.16-.07-.41-.1-.48-.23a.84.84,0,0,1-.07-.67,1.91,1.91,0,0,1,.6-.6q6-4.5,11.92-9,4.35-3.28,8.66-6.61c.84-.64,1.65-1.34,2.53-1.92.25-.17.69,0,1,0-.13.3-.19.71-.42.88-3.94,3-7.9,6.05-11.86,9.07l-11.49,8.73C522.14,114.36,522,114.48,521.84,114.63Z"/><path d="M571,144.16a7.19,7.19,0,0,1-.57-1.07c0-.12.17-.36.31-.5,2.15-2.23,4.29-4.47,6.49-6.66.21-.21.77-.07,1.17-.09-.09.34-.07.78-.28,1-2,2.11-4,4.18-6,6.25C571.84,143.38,571.54,143.66,571,144.16Z"/><path d="M616.56,194.31a22,22,0,0,1-1.84-2.79,12.1,12.1,0,0,1-1-6c.07-.77.31-1.24,1.24-1.35,2.88-.35,4.59,1,4.55,3.94C619.47,190.44,618.94,192.63,616.56,194.31Zm-2-8.43,1.34,5.86A4.46,4.46,0,0,0,614.55,185.88Z"/><path d="M602.2,180.72c.44,2.18-.88,4.52-2.78,4.93-1.7.36-2.88-.79-3.34-3.25a3.66,3.66,0,0,1,2.67-4.29A3.31,3.31,0,0,1,602.2,180.72Zm-3.89-.9,0,.49a3.21,3.21,0,0,0,1.16,0c.2-.08.25-.54.37-.84Zm1.13,3.11-.67.07v1.49c.31-.13.84-.21.89-.4A2.94,2.94,0,0,0,599.44,182.93Z"/><path class="cls-1" d="M514.7,77.23c-1.51.72-2.69,1.54-2.24,3.34a2.48,2.48,0,0,0,2.37,1.6c1.54-.12,2.08-.63,2.45-2.51.71.83,1.34,1.54,1.94,2.27,2.47,3,4.95,6.09,6.48,9.74a16.44,16.44,0,0,1,1.14,4.89,4.58,4.58,0,0,1-1,2.81,11.84,11.84,0,0,1-9.58,4.86c-6.22.07-11-3.25-15.6-7-.43-.35-.82-.76-1.48-1.37,1.89-.5,3-1.5,2.33-3.36a2.47,2.47,0,0,0-1.79-1.18,2.57,2.57,0,0,0-2.91,2.2,13.91,13.91,0,0,1-1.22-1.49,43.33,43.33,0,0,1-5.14-12.4c-.76-3.1-.4-6.08,2.32-8.16a9.11,9.11,0,0,1,4.94-1.78A17.3,17.3,0,0,1,508,72.36c1.9,1.13,3.69,2.44,5.51,3.71A9.11,9.11,0,0,1,514.7,77.23Zm-21,8,.7-.06a11,11,0,0,0-.18-1.54c-.93-3.42.64-6.09,2.58-8.59A5.91,5.91,0,0,1,499,73.58c1.86-.86,3.74-.41,5.61.12.32.09.72-.11,1.08-.17-.22-.3-.38-.75-.67-.85a10.1,10.1,0,0,0-6.13-.26c-3.65,1-5.58,5.63-5.9,8.54C492.86,82.34,493.45,83.8,493.7,85.22Z"/><path class="cls-1" d="M614.55,185.88a4.46,4.46,0,0,1,1.34,5.86Z"/><path class="cls-2" d="M598.31,179.82l1.55-.36c-.12.3-.17.76-.37.84a3.21,3.21,0,0,1-1.16,0Z"/><path d="M599.86,179.46l-1.55.36,0,.49c.25,0,.52.05.76.05a1,1,0,0,0,.4-.06c.2-.08.25-.54.37-.84Z"/><path d="M599.44,182.93l-.67.07v1.49c.31-.13.84-.21.89-.4a2.94,2.94,0,0,0-.22-1.16Z"/><path d="M493.7,85.22c-.25-1.42-.84-2.88-.69-4.26.32-2.91,2.25-7.51,5.9-8.54a10.1,10.1,0,0,1,6.13.26c.29.1.45.55.67.85-.36.06-.76.26-1.08.17-1.87-.53-3.75-1-5.61-.12A5.91,5.91,0,0,0,496.8,75c-1.94,2.5-3.51,5.17-2.58,8.59a11,11,0,0,1,.18,1.54Z"/><text class="cls-3" transform="translate(0.5 142.24) scale(0.99 1)">G<tspan class="cls-4" x="130.83" y="0">I</tspan><tspan class="cls-5" x="193.06" y="0">D</tspan><tspan class="cls-6" x="318.02" y="0">A</tspan></text><text class="cls-7" transform="translate(6.78 203) scale(0.96 1)">BARBE<tspan class="cls-8" x="265.64" y="0">R</tspan><tspan x="318.85" y="0">SHOP</tspan></text></g></g></svg>
