<svg xmlns="http://www.w3.org/2000/svg" viewBox="0 0 467.43 564.48"><defs><style>.cls-1{font-size:56.06px;stroke-miterlimit:10;}.cls-1,.cls-3,.cls-4{fill:none;}.cls-1,.cls-4{stroke:#000;stroke-width:2px;font-family:Gibson-Bold, Gibson;font-weight:700;}.cls-2{fill:#fff;}.cls-4{font-size:56.05px;}</style></defs><title>Logotest2</title><g id="Layer_2" data-name="Layer 2"><g id="Layer_1-2" data-name="Layer 1"><path d="M231.85,52.21a227.32,227.32,0,0,1,161.82,67.5,231.34,231.34,0,0,1,0,326A228.54,228.54,0,0,1,21,372.41,231.34,231.34,0,0,1,70,119.71a227.32,227.32,0,0,1,161.81-67.5m0-3C103.8,49.21,0,153.74,0,282.69S103.8,516.17,231.85,516.17,463.71,411.64,463.71,282.69,359.9,49.21,231.85,49.21Z"/><text/><text class="cls-1" transform="matrix(0.97, -0.22, 0.23, 0.98, 163.79, 107.95)">G</text><text class="cls-1" transform="matrix(0.99, -0.1, 0.11, 1, 202.67, 99.6)">I</text><text class="cls-1" transform="matrix(0.99, 0.02, -0.01, 1, 219.58, 97.08)">D</text><text class="cls-1" transform="matrix(0.98, 0.18, -0.17, 0.99, 257.16, 97.55)">A</text><path class="cls-2" d="M115.91,136.62c-1.25,1.1-2.48,2-3.52,3.15-1.86,2-3.44,4.24-5.44,6a5.69,5.69,0,0,0-2.06,5.19c.49,5.53.91,11.07,1.2,16.61.43,8.39.73,16.78,1.11,25.17a68.63,68.63,0,0,1,.16,10.64c-.45,4.26,2.56,9.89,7.23,10.57.52.07,1.1.74,1.38,1.28a33.4,33.4,0,0,0,10.31,11.5c3.81,2.74,8.32,3.36,12.71,4.19a3,3,0,0,1,2.61,2.54,52.21,52.21,0,0,0,2.43,7.41c3.72,8.07,7.38,16.16,10.4,24.54a3.76,3.76,0,0,0,1.92,2c4.46,1.73,9,3.31,13.49,4.91,4,1.43,8,2.27,10.79,6.61,4,6.22,9.22,11.56,13.61,17.51,1.7,2.29,3.34,3.2,6.15,2.83a8.73,8.73,0,0,1,7.64,2.48c3.32,3.53,6.48,7.24,9.5,11,4.38,5.53,8.42,11.34,12.88,16.81,5.7,7,11.89,13.61,17.47,20.7,6.89,8.75,13.24,17.94,21.63,25.38,6,5.36,12.05,10.76,18.1,16.1.53.47,1.35,1,1.91.93,2.38-.46,2.79,1.18,3.34,2.79a11.39,11.39,0,0,0,.87,2,3.62,3.62,0,0,0,3,2c4.32.39,8.63.94,12.92,1.6,3.83.59,7.84,1.07,10.73,4a93.9,93.9,0,0,1,6.4,7.65c.6.75,1,1.41,2.17,1.16,1.74-.38,3.51-.71,5.28-1a4.78,4.78,0,0,0,4-2.91,60.67,60.67,0,0,1,3.61-6.5c2.2-3.55,4.53-7,6.74-10.56a3.32,3.32,0,0,0,.2-1.77c-.22-4.87-.62-9.74-.67-14.6a10,10,0,0,1,3.38-8,13.2,13.2,0,0,0,3-4.81,4.5,4.5,0,0,0-.06-3.42q-3.21-5.78-6.87-11.29c-2.28-3.43-5.05-6.55-6-10.74a4.87,4.87,0,0,0-.91-1.8c-2.14-2.83-4.21-5.75-6.54-8.43-4.11-4.72-8.52-9.19-12.6-13.95-6.2-7.26-12.26-14.64-18.32-22-2-2.49-3.76-5.25-5.87-7.67-3.07-3.52-6.39-6.82-9.56-10.27a97.1,97.1,0,0,1-11.49-15.47c-.79-1.29-2.07-2.42-2.43-3.8a52.24,52.24,0,0,1-1.64-9.52,10.3,10.3,0,0,0-2-5.62q-5.55-7.6-11.11-15.18a46.42,46.42,0,0,1-3.2-4.36c-3.91-6.8-7.53-13.78-11.63-20.46-2.44-4-5.6-7.5-8.43-11.23-4.06-5.35-8-10.79-12.23-16-2.37-2.94-5.39-5.36-7.66-8.36a43.37,43.37,0,0,0-14.05-12.22,45,45,0,0,0-20.22-5.39c-3.17-.09-6.35.4-9.67.63a4.68,4.68,0,0,1-.15-.89q-.32-8-.61-16c-.06-1.67-.61-2-2.09-1.31-.53.26-1,.57-1.55.87-1.05-2.44-1.19-2.48-3.49-1.34-.42.21-.86.37-1.44.62a4.17,4.17,0,0,0,.06-1.05c-.16-.66-.39-1.31-.6-2a14,14,0,0,0-1.76.7c-1.34.76-2.65,1.59-4.11,2.48a11.84,11.84,0,0,0-.29-1.6,17.29,17.29,0,0,0-.72-1.59,13.41,13.41,0,0,0-1.38.8c-1.42,1.06-2.81,2.16-4.33,3.34-.49-3-.49-3-2.94-1.41-1.15.77-2.32,1.52-3.67,2.41-.35-2.16-1.28-1.64-2.37-.8s-2.17,1.51-3.32,2.3c-.73-2.39-1.35-2.64-3.29-1.43a18,18,0,0,0-2.41,1.86c-.91.8-1.75,1.67-2.77,2.65-.22-.7-.31-1.14-.48-1.54s-.55-1-.83-1.56c-.51.38-1.05.73-1.53,1.15-1.19,1.06-2.36,2.15-3.6,3.28-.78-2.19-1-2.26-2.68-.93-.87.68-1.72,1.38-2.64,2.11Z"/><path d="M115.91,136.62l1.15,1.88c.92-.73,1.77-1.43,2.64-2.11,1.67-1.33,1.9-1.26,2.68.93,1.24-1.13,2.41-2.22,3.6-3.28.48-.42,1-.77,1.53-1.15.28.52.59,1,.83,1.56s.26.84.48,1.54c1-1,1.86-1.85,2.77-2.65a18,18,0,0,1,2.41-1.86c1.94-1.21,2.56-1,3.29,1.43,1.15-.79,2.27-1.5,3.32-2.3s2-1.36,2.37.8c1.35-.89,2.52-1.64,3.67-2.41,2.45-1.64,2.45-1.64,2.94,1.41,1.52-1.18,2.91-2.28,4.33-3.34a13.41,13.41,0,0,1,1.38-.8,17.29,17.29,0,0,1,.72,1.59,11.84,11.84,0,0,1,.29,1.6c1.46-.89,2.77-1.72,4.11-2.48a14,14,0,0,1,1.76-.7c.21.66.44,1.31.6,2a4.17,4.17,0,0,1-.06,1.05c.58-.25,1-.41,1.44-.62,2.3-1.14,2.44-1.1,3.49,1.34.52-.3,1-.61,1.55-.87,1.48-.73,2-.36,2.09,1.31q.28,8,.61,16a4.68,4.68,0,0,0,.15.89c3.32-.23,6.5-.72,9.67-.63a45,45,0,0,1,20.22,5.39A43.37,43.37,0,0,1,216,164.31c2.27,3,5.29,5.42,7.66,8.36,4.2,5.23,8.17,10.67,12.23,16,2.83,3.73,6,7.26,8.43,11.23,4.1,6.68,7.72,13.66,11.63,20.46a46.42,46.42,0,0,0,3.2,4.36q5.55,7.59,11.11,15.18a10.3,10.3,0,0,1,2,5.62,52.24,52.24,0,0,0,1.64,9.52c.36,1.38,1.64,2.51,2.43,3.8a97.1,97.1,0,0,0,11.49,15.47c3.17,3.45,6.49,6.75,9.56,10.27,2.11,2.42,3.83,5.18,5.87,7.67,6.06,7.38,12.12,14.76,18.32,22,4.08,4.76,8.49,9.23,12.6,13.95,2.33,2.68,4.4,5.6,6.54,8.43a4.87,4.87,0,0,1,.91,1.8c.93,4.19,3.7,7.31,6,10.74q3.64,5.51,6.87,11.29a4.5,4.5,0,0,1,.06,3.42,13.2,13.2,0,0,1-3,4.81,10,10,0,0,0-3.38,8c.05,4.86.45,9.73.67,14.6a3.32,3.32,0,0,1-.2,1.77c-2.21,3.55-4.54,7-6.74,10.56a60.67,60.67,0,0,0-3.61,6.5,4.78,4.78,0,0,1-4,2.91c-1.77.26-3.54.59-5.28,1-1.13.25-1.57-.41-2.17-1.16a93.9,93.9,0,0,0-6.4-7.65c-2.89-2.94-6.9-3.42-10.73-4-4.29-.66-8.6-1.21-12.92-1.6a3.62,3.62,0,0,1-3-2,11.39,11.39,0,0,1-.87-2c-.55-1.61-1-3.25-3.34-2.79-.56.11-1.38-.46-1.91-.93-6.05-5.34-12.06-10.74-18.1-16.1-8.39-7.44-14.74-16.63-21.63-25.38-5.58-7.09-11.77-13.7-17.47-20.7-4.46-5.47-8.5-11.28-12.88-16.81-3-3.8-6.18-7.51-9.5-11a8.73,8.73,0,0,0-7.64-2.48c-2.81.37-4.45-.54-6.15-2.83-4.39-5.95-9.66-11.29-13.61-17.51-2.76-4.34-6.74-5.18-10.79-6.61-4.51-1.6-9-3.18-13.49-4.91a3.76,3.76,0,0,1-1.92-2c-3-8.38-6.68-16.47-10.4-24.54a52.21,52.21,0,0,1-2.43-7.41A3,3,0,0,0,139,231c-4.39-.83-8.9-1.45-12.71-4.19A33.4,33.4,0,0,1,116,215.28c-.28-.54-.86-1.21-1.38-1.28-4.67-.68-7.68-6.31-7.23-10.57a68.63,68.63,0,0,0-.16-10.64c-.38-8.39-.68-16.78-1.11-25.17-.29-5.54-.71-11.08-1.2-16.61a5.69,5.69,0,0,1,2.06-5.19c2-1.81,3.58-4.07,5.44-6C113.43,138.66,114.66,137.72,115.91,136.62Zm103.7,45.83c-1,1.14-1.73.69-2.38-.08-1.43-1.68-2.81-3.4-4.28-5-4.35-4.83-8.77-9.59-13.09-14.43-2-2.22-4.23-2.76-7.12-2.1a60.34,60.34,0,0,1-10.32,1.6,12.59,12.59,0,0,0-9.12,4.49,30.61,30.61,0,0,0-3.05,3.86c-4.56,7.05-6.44,14.41-1.78,22.16,2.85,4.74,5.89,9.37,9,13.94q10.43,15.25,21.05,30.37a238,238,0,0,0,20.67,25.12,12.5,12.5,0,0,0,3.42,2.24c1.47.78,3.18,1.19,4.49,2.16a10.83,10.83,0,0,1,3,3.54c1.36,2.52.37,4.84-1.16,7-.61.83-.89,1.57,0,2.39.68.65,1.73,1.19,2,2,.91,2.85,3.12,4.63,4.89,6.81,3.09,3.81,5.93,7.82,8.89,11.73,5,6.53,9.87,13.09,14.91,19.55,5.42,6.95,10.94,13.82,16.46,20.7q8.64,10.77,17.39,21.48c1.14,1.4,2.38,2.7,4.39,2.85,3.71.27,7.4.8,11.11.89a12.88,12.88,0,0,1,10.43,5.29,45.2,45.2,0,0,0,5.59,5.65,3.5,3.5,0,0,0,2.7.68,35.22,35.22,0,0,0,6.58-2.09c2.25-1,4.55-2.06,6-4.29.91-1.43,1.78-2.89,2.75-4.27a2.22,2.22,0,0,0,.2-2.63q-3.58-6.83-7-13.75a7.21,7.21,0,0,1-.5-5.76c1.43-4.23,1.56-8-2.07-11.64-4.07-4-7.59-8.65-11.31-13.05q-7.68-9-15.31-18.14c-3.62-4.34-7.12-8.77-10.75-13.1-5-6-10.75-11.29-15-17.94a61.47,61.47,0,0,0-6.48-8,16.91,16.91,0,0,1-3.81-7.59c-.61-2.47-.93-5-1.43-7.5a9.74,9.74,0,0,0-.92-3.23c-2.39-3.78-4.9-7.48-7.4-11.18-2.92-4.3-6.32-8.34-8.72-12.91a165.88,165.88,0,0,0-12.46-20.58c-5.27-7.27-10.45-14.63-16.06-21.63a219,219,0,0,0-15-16.8c-3.76-3.82-8.1-7.15-13.44-8.53-4.29-1.11-8.66-2-13-2.75a20.18,20.18,0,0,0-6.71-.16c-8.42,1.46-14.47,6.48-18.82,13.66a12.69,12.69,0,0,0-2,5.51,32,32,0,0,0,1.56,13,9.88,9.88,0,0,1,.3,1.82l-.56.13c-2.66-3.56-3.31-7.92-3.87-12.13-1.31-10,5.08-16.09,11.67-22-.13-.1-.21-.21-.3-.22a9.17,9.17,0,0,0-1.17-.06,39.92,39.92,0,0,0-10.71,2c-6.67,2-12.29,5.92-18.37,9-3.64,1.83-6,5-8,8.51-1.88,3.31-2,2.75,1.2,4.3,1.77.86,3,1.94,3,4.17,0,2.07.39,4.13.61,6.2a3.24,3.24,0,0,0,.53-1.48c.14-1.35.18-2.71.39-4.05.24-1.53,1-2.48,2.76-2.13a14.46,14.46,0,0,0,2.86.3c7.6.06,12.83,3.95,16.61,10.28,2.74,4.58,3.54,9.88,5.45,14.77,1.49,3.83,2.51,8,4.63,11.4,4,6.49,8.56,12.63,13,18.84,4.1,5.75,8.29,11.44,12.51,17.1,3.2,4.29,6.52,8.5,9.76,12.77q5.32,7,10.57,14.08c1,1.33,2,1.33,3-.17,2-3,4-6.13,6.15-9.13a1.69,1.69,0,0,0-.14-2.58A241.83,241.83,0,0,1,198,239.12c-5.45-7.71-11-15.34-16.41-23.07q-6-8.61-11.8-17.4a36.11,36.11,0,0,1-5.84-13.8,5.91,5.91,0,0,1,0-1.68,31,31,0,0,1,9.75-18.94,11.36,11.36,0,0,1,6.54-3.24c4.53-.54,9-1.34,13.53-2,1.6-.22,3.3-.57,4.7.65s3,2.57,4.36,4c2.39,2.48,4.7,5,7,7.61C213.05,174.93,216.27,178.64,219.61,182.45Zm125.81,190c-.84.61-1.25.94-1.7,1.22-5.17,3.29-10.18,6.86-15.56,9.76-4.63,2.49-9.67,4.22-14.54,6.27s-9.48,1-12.87-2.66q-12.36-13.36-24-27.37c-5.8-6.92-11.16-14.21-16.67-21.37-4.69-6.09-9.3-12.26-14-18.34-3.79-4.92-7.42-10-11.58-14.58-5.93-6.53-12.05-12.9-16.58-20.53a15.17,15.17,0,0,0-7.82-7c-1.28-.49-2.3-1.89-3.21-3.07-1.76-2.27-3.28-4.73-5-7-2.11-2.78-4.38-5.45-6.52-8.22-3.65-4.74-7.25-9.51-10.86-14.28-2.07-2.75-4.18-5.47-6.16-8.28q-6.27-9-12.4-18c-1.88-2.74-4.09-5.36-5.4-8.36-2-4.54-3.31-9.37-4.94-14.06-1-2.82-1.89-5.67-3.05-8.41a16.71,16.71,0,0,0-9.79-9.49c-2.67-1-5.73-.88-8.62-1.17-.24,0-.77.65-.79,1-.18,3-.34,6-.36,9,0,1-.28,1.67-1.3,1.8-1.37.17-1.74,1-1.69,2.25.1,2.72.12,5.45.29,8.16a2,2,0,0,0,1,1.35,9.64,9.64,0,0,1,4.71,6.44c.59,2.34,1.24,4.68,1.73,7s1.89,3,4,3.37c2.45.42,5,.65,7.1,2.41.27.23,1.06-.09,1.59-.24,1.09-.31,2.26-1.12,3.25-.93,1.57.3,3,1.39,4.53,1.89,3.1,1,3.66,3.34,3.47,6.15-.08,1.13-.18,2.27-.37,3.38a6.44,6.44,0,0,1-7.68,5.17,25.74,25.74,0,0,0-2.74-.8,6.3,6.3,0,0,1-5-3.56c-.19-.35-.73-.5-1.12-.75l-.51.29a24.49,24.49,0,0,0,.82,3.84c.95,2.54,2.15,5,3.13,7.52q3.81,9.79,7.49,19.66a4.4,4.4,0,0,0,2.8,2.67c2.82,1.12,5.55,2.45,8.37,3.55,3.45,1.34,6.95,2.53,10.43,3.75.9.32,1.3-.23,1.57-1.06,1.34-4.2,2.74-8.38,4.1-12.57.51-1.57,1.2-1.77,2.34-.51,2.5,2.77,4.94,5.59,7.42,8.39.64.73.65,1.35-.38,2l-7.92-9c-.23.58-.37.88-.47,1.19-1,3.05-1.87,6.2-3.16,9.14-.94,2.15-1.11,3.84.5,5.71a210,210,0,0,1,15,19.6,2.1,2.1,0,0,0,2.43,1,18,18,0,0,1,3.21-.14,9.51,9.51,0,0,1,8.38,4.21c.87,1.18,1.82,2.3,2.75,3.43,3.09,3.75,6.25,7.44,9.26,11.25,2.84,3.59,5.42,7.4,8.33,10.92,5.32,6.45,10.8,12.76,16.21,19.13,3.11,3.67,6.17,7.37,9.33,11,3.68,4.2,7.33,8.44,11.2,12.47,4.53,4.72,9.26,9.26,13.94,13.84,2.3,2.24,4.69,4.39,7,6.6a3.74,3.74,0,0,0,3.71,1,1.9,1.9,0,0,1,2.49,1.41c.45,1.28,1,2.53,1.45,3.8a2.63,2.63,0,0,0,2.5,1.89c3.25.21,6.5.54,9.74.9,5.6.61,10.84,2.18,15,6.27,1.73,1.7,3.27,3.59,5,5.33.42.44,1.15,1,1.64.88,3-.55,6.11-.42,7.67-4.45,1.48-3.83,4.32-7.13,6.64-10.61a6,6,0,0,0,1.16-4.95c-.28-1.21-.33-2.47-.6-3.69a23.15,23.15,0,0,1-.17-10.79C344.75,374.64,345,373.8,345.42,372.44ZM332.05,379c-2.48.48-4.5.78-6.47,1.26a4.16,4.16,0,0,1-4.75-1.62c-2.15-2.83-4.29-5.68-6.55-8.42a4.33,4.33,0,0,0-2.46-1.51c-3.16-.46-6.37-.59-9.53-1-3.35-.46-6.92-.46-9.3-3.56-.52-.67-1.15-1.25-1.68-1.91-7.63-9.44-15.33-18.83-22.86-28.35-6.63-8.37-13.07-16.89-19.58-25.36-4.71-6.14-9.37-12.31-14.07-18.46-2.52-3.3-5.05-6.6-7.66-9.84-.18-.22-1.27-.1-1.56.22-1.34,1.45-2.46,3.11-3.83,4.53-.84.87-1,1.56-.27,2.47,2.75,3.52,5.28,7.24,8.31,10.5a233.27,233.27,0,0,1,17.14,20.51c6.7,9.1,13.48,18.14,20.42,27.05,5.17,6.64,10.58,13.09,16,19.52,5,5.91,10.15,11.67,15.24,17.5,2.21,2.53,4.58,4.86,7.87,5.92,1.75.56,3.5.77,5-.11-.47-1-.79-1.65-1.29-2.71,3.15.83,5.76,2.05,7.94-.17.77,0,1.48.3,2,.07,3.64-1.75,7.24-3.59,10.84-5.43A8.38,8.38,0,0,0,332.05,379ZM114.38,142l-.52-.18c-1.66,1.77-3.38,3.48-5,5.33a4.17,4.17,0,0,0-1.08,2.5q.17,8.93.6,17.85c.43,8.83,1,17.67,1.45,26.5.07,1.08.22,2.16.31,3.12,2-1.07,3.87-2,5.63-3a2.15,2.15,0,0,0,.74-1.64c0-2.83-.16-5.67-.32-8.5-.61-10.43-1.29-20.85-1.83-31.28C114.22,149.09,114.38,145.53,114.38,142Zm6.77,32.41c-.41-11.86-.81-23.29-1.22-34.71l-.58-.2c-.55.84-1.48,1.64-1.56,2.52a48.7,48.7,0,0,0,0,6.94c.68,14,1.43,28,2.06,42,.08,1.67.56,2.29,2.19,2.86,2.25.79,4.25,2.28,6.46,3.54,0-.39.11-1.08.1-1.77-.05-4.25-.08-8.5-.22-12.74a54.77,54.77,0,0,0-.59-6.26,2.55,2.55,0,0,0-1.2-1.48C125,174.14,123.37,172.89,121.15,174.39Zm23.24,54.46a5.69,5.69,0,0,0,.78-1.19c.56-1.48.9-3,1.57-4.46.83-1.77.7-2.38-1.19-2.82-2.24-.52-4.52-.91-6.78-1.36-2.89-.58-6-.57-8.36-2.75a47.74,47.74,0,0,1-3.65-3.74,1.36,1.36,0,0,0-2-.42,24.77,24.77,0,0,1-4.39,1.74c-1.34.38-1.42,1-.6,1.88a81.69,81.69,0,0,0,5.9,6.29c1.91,1.71,4,3.61,6.31,4.37C135.82,227.63,139.92,228,144.39,228.85Zm-26.56-26c1.18-.62,2.2-1.22,3.28-1.69a4.82,4.82,0,0,1,1.49-.13,6,6,0,0,1-1,1.33,11.21,11.21,0,0,1-1.75,1c-.87.5-1,1.15-.39,2a22.52,22.52,0,0,1,1.68,2.11c.21.35.1.9.14,1.35l-.58.14c-.8-1-1.55-2.05-2.42-3-.32-.35-1-.78-1.31-.65-1.28.5-2.48,1.21-3.75,1.86.19.36.25.64.41.75,1,.69,2,1.81,3,1.92a29.28,29.28,0,0,0,5.73-.39c.14,0,.28-.18.41-.28a8.46,8.46,0,0,0,2.25-8.55,2.49,2.49,0,0,0-.62-1,9.06,9.06,0,0,0-8.64-2.14c-3.26.88-4.93,5.4-3,8.42,1.13-.7,2.58-1.2,3.26-2.21.3-.46-.91-2-1.43-3,0,0-.08-.1-.07-.15,0-.4.06-.79.09-1.19.31.16.72.24.92.48C116.34,200.7,117,201.68,117.83,202.8Zm39.76,24.53a33.66,33.66,0,0,0-.67-3.68c-.6-2.08-2.81-3.44-4.5-2.89-3.93,1.29-5.43,4.06-5.61,8-.13,2.8,2.35,5.08,4.91,4.42A8.4,8.4,0,0,0,157.2,229,6.79,6.79,0,0,0,157.59,227.33ZM130.5,160.05c3.87-1.57,4.07-2,4-5.38-.11-3.63-.07-7.27-.08-10.9,0-2.85,0-5.7,0-8.73-2.73,1.18-4.65,4.16-4.5,6.24q.39,5.59.6,11.21C130.57,154.9,130.5,157.33,130.5,160.05Zm-5.61,6.31c1.72-2,2.76-3.69,2.6-6.12-.47-7.07-.7-14.15-1-21.23,0-.48-.14-1-.27-1.84-1.52,1.79-3.07,3-2.87,5.4.47,5.53.8,11.08,1.17,16.62C124.64,161.42,124.74,163.66,124.89,166.36Zm104,105.91a44.54,44.54,0,0,0-5.63,1.64,57.07,57.07,0,0,0-6.67,3.57c-.4.24-.72,1.53-.53,1.69a9.86,9.86,0,0,1,3.17,4.65c.08.26.46.44.71.66a3.14,3.14,0,0,0,.62-.42c2.28-2.49,4.6-4.94,6.77-7.52C228.21,275.46,229.22,274.28,228.86,272.27Zm-75.4-141.71c-2.56,1.41-4.08,3.05-3.74,6a43.84,43.84,0,0,1-.15,5.6c0,2.74,0,5.48,0,8.23,3.58-.5,4.13-1.11,4.05-4.41-.06-2.55-.12-5.1-.14-7.65S153.46,133.3,153.46,130.56Zm-16.23,25.7c2.42-.83,3.52-2,3.31-4.47-.25-2.93,0-5.89,0-8.83V134l-.65-.16c-1.08,1-2.61,1.67-2.61,3.55C137.22,143.64,137.23,149.86,137.23,156.26Zm9.2-24.34c-2.51,2.46-2.56,2.46-2.68,5.51-.21,5.19-.37,10.38-.55,15.61,3.41-1,3.62-1.28,3.55-4.45-.08-3.39-.23-6.78-.31-10.18C146.4,136.34,146.43,134.27,146.43,131.92ZM345.48,354l-7.62-11.47c-.31,1.56-1,3-.81,4.38.51,4,3.07,7.09,4.66,10.35Zm4.08,5.94-4.84,2.87c1.69,1.95.4,3.74-.8,5.56-1,1.56-2,3.15-3.05,4.72l.36.3c3-2.26,6-4.43,8.42-7.36C351.75,363.53,351.75,362.08,349.56,360ZM158.92,130.81c-1.74.89-2.69,1.78-2.59,3.84.23,4.55.07,9.12.07,13.67,2.45-.17,2.45-.17,2.47-2.58,0-.34,0-.68,0-1Zm2.3,16.89c2.95.42,3.2.21,3.14-2.64q-.12-5.34-.22-10.69c0-.91,0-1.83,0-2.75l-.59-.19a8.44,8.44,0,0,0-1.17,2.5C161.91,138.48,161.6,143.05,161.22,147.7Zm7.35.83V132.91l-.45-.12a4.28,4.28,0,0,0-.6,1.31c-.33,4.29-.58,8.59-.93,12.88C166.45,148.62,167.22,148.82,168.57,148.53ZM132.9,213.35l.54-.31c-.09-.93-.18-1.85-.26-2.78-.2-2.55-.52-2.82-3-2.51-1.23.15-1.77,1.08-1,2C130.34,211.05,131.67,212.16,132.9,213.35Zm-.32-8.42a2.86,2.86,0,0,0-3-2.56C129.17,205.08,129.44,205.33,132.58,204.93Z"/><path d="M161.69,150.46c-5.6,5.14-11.64,11.57-10.35,21.41.51,3.87,1.15,8.69,4.06,12.6l.39.52.63-.14.4-.09.17,0,.9-.21-.14-.92c0-.18-.05-.36-.07-.54a5.46,5.46,0,0,0-.29-1.47,30.92,30.92,0,0,1-1.49-12.66,11.25,11.25,0,0,1,1.86-5c4.58-7.55,10.5-11.87,18.13-13.2a14.38,14.38,0,0,1,2.44-.19,23.89,23.89,0,0,1,3.93.36c4.65.78,8.88,1.67,13,2.73,4.43,1.14,8.55,3.77,13,8.26a219.5,219.5,0,0,1,14.92,16.72c4.5,5.62,8.8,11.58,13,17.34l3.09,4.26a161.66,161.66,0,0,1,12.37,20.46,72.83,72.83,0,0,0,5.83,8.86c1,1.35,2,2.75,3,4.14l.25.37c2.38,3.51,4.84,7.14,7.13,10.78a2.63,2.63,0,0,1,.21.41L267,245l-.36-.12a3.17,3.17,0,0,0-1.07-.25,1.69,1.69,0,0,0-.56.1c-1,.37-1.92.82-2.83,1.25l-1.23.58L257.74,248q-5.24,2.39-10.48,4.75l-10.87,4.86-8,3.55a3.4,3.4,0,0,0-1.31.88,2.11,2.11,0,0,0-.29,1.81,1.55,1.55,0,0,0,.83.94l.1.06.5.38.56-.3.29-.15.35-.18,7.71-3.48,10.42-4.7,1.27-.57c5.73-2.59,11.65-5.26,17.46-7.93a2.43,2.43,0,0,0,1-1.06l.18-.29.57-.73c.1.39.18.81.25,1.22l.12.63c.19,1,.36,2,.53,2.92.26,1.52.53,3.09.9,4.63a18,18,0,0,0,4.05,8,60.52,60.52,0,0,1,6.37,7.91,92,92,0,0,0,10,12.32c1.69,1.86,3.44,3.77,5.07,5.72,1.87,2.23,3.74,4.54,5.55,6.76s3.45,4.24,5.2,6.34c5.11,6.11,10.16,12.07,15.31,18.15,1,1.21,2.07,2.47,3.07,3.68a124.82,124.82,0,0,0,8.31,9.43c2.87,2.86,3.4,5.93,1.82,10.61a8.28,8.28,0,0,0,.55,6.53c2.59,5.15,4.89,9.66,7.05,13.77a1.25,1.25,0,0,1-.14,1.59c-.71,1-1.38,2.08-2,3.11l-.75,1.19c-1.3,2-3.54,3-5.53,3.91a34.61,34.61,0,0,1-6.39,2,1.32,1.32,0,0,1-.3,0,2.67,2.67,0,0,1-1.52-.49,45.22,45.22,0,0,1-5.46-5.52,14,14,0,0,0-11.2-5.67c-2.3-.06-4.66-.29-6.95-.52-1.34-.13-2.73-.27-4.1-.37-1.64-.12-2.69-1.24-3.7-2.49-6.53-8-12.22-15-17.38-21.47l-.56-.69c-5.24-6.53-10.66-13.28-15.9-20-3.82-4.9-7.63-9.94-11.32-14.81l-3.57-4.72q-1.5-2-3-4c-1.91-2.58-3.88-5.24-5.94-7.78-.48-.59-1-1.15-1.48-1.7a13,13,0,0,1-3.23-4.78,3.66,3.66,0,0,0-1.33-1.67H231a5.46,5.46,0,0,1,.56,0c.24,0,.49,0,.75,0a2.93,2.93,0,0,0,1.07-.18l1.87-.76c2.9-1.17,5.9-2.37,8.76-3.8,6.79-3.38,13.62-7,20.22-10.42l2.33-1.23a2.56,2.56,0,0,0,1.06-1.32,2.69,2.69,0,0,1,.19-.38l.86-1.4-1.63-.12-.44-.07a3.9,3.9,0,0,0-.87-.11,1.84,1.84,0,0,0-.86.19c-1.16.58-2.32,1.22-3.43,1.84-1.31.72-2.65,1.46-4,2.12-5.94,2.88-12,5.76-17.84,8.56l-7.3,3.48-1.27.63-.57.29-.34.16c1.24-1.87,2.38-4.49.81-7.4a11.92,11.92,0,0,0-3.26-3.88,12.77,12.77,0,0,0-2.9-1.47,16.91,16.91,0,0,1-1.71-.76l-.37-.19a10.51,10.51,0,0,1-2.79-1.85,236.27,236.27,0,0,1-20.58-25c-7.55-10.68-14.88-21.34-21-30.36-3.57-5.22-6.43-9.63-9-13.88-3.91-6.51-3.35-13.21,1.76-21.1a29.19,29.19,0,0,1,2.95-3.74,11.58,11.58,0,0,1,8.43-4.16A60.8,60.8,0,0,0,193,161.79a8.76,8.76,0,0,1,1.93-.24,5.38,5.38,0,0,1,4.22,2c2.46,2.75,5,5.53,7.43,8.21,1.89,2.07,3.78,4.14,5.66,6.23,1,1.08,1.94,2.23,2.87,3.35l1.4,1.66a2.64,2.64,0,0,0,2,1.12,2.59,2.59,0,0,0,1.92-1l.61-.66-.6-.67-3-3.42c-2.34-2.68-4.55-5.2-6.83-7.77s-4.54-5.06-7-7.63c-1.23-1.29-2.59-2.46-3.9-3.6l-.52-.45a4.71,4.71,0,0,0-3.21-1.12,12.4,12.4,0,0,0-2,.19l-.33,0c-1.85.26-3.72.55-5.53.83-2.62.4-5.32.82-8,1.14a12.27,12.27,0,0,0-7.11,3.5,32.13,32.13,0,0,0-10,19.54,6.54,6.54,0,0,0,0,2,36.42,36.42,0,0,0,6,14.19c4.08,6.2,7.94,11.9,11.81,17.42,3.11,4.45,6.32,8.94,9.43,13.27,2.29,3.21,4.67,6.53,7,9.8a240.27,240.27,0,0,0,20.4,24.62c.53.57.53.64,0,1.32-1.5,2.14-3,4.34-4.37,6.47-.6.9-1.19,1.8-1.79,2.69-.38.57-.65.7-.72.7s-.29-.1-.64-.58c-3.06-4.12-6.32-8.47-10.58-14.09-1.34-1.76-2.68-3.5-4-5.25-1.89-2.45-3.85-5-5.73-7.51-3.72-5-8.11-10.93-12.5-17.08-.84-1.18-1.69-2.37-2.55-3.55-3.53-4.92-7.19-10-10.4-15.23a39.57,39.57,0,0,1-3.26-7.66c-.41-1.18-.83-2.4-1.29-3.58-.68-1.75-1.24-3.6-1.77-5.39a41.48,41.48,0,0,0-3.75-9.54c-4.3-7.18-10-10.7-17.47-10.76a13.59,13.59,0,0,1-2.66-.28,4.71,4.71,0,0,0-.89-.09,2.79,2.79,0,0,0-2.66,1.68,5.54,5.54,0,0,0-3.53-4.22l-.93-.44c-.36-.17-.74-.35-1-.47.12-.26.37-.68.61-1.09l.52-.91c2.34-4.14,4.69-6.64,7.61-8.11,1.89-1,3.77-2,5.58-3,4-2.24,8.12-4.56,12.63-5.89a41.85,41.85,0,0,1,9.58-2m65.82,100.82h.06c5.15-.28,9-1.55,12-4,2.69-2.19,5.79-5.31,5.92-10.09a29.5,29.5,0,0,0-3.05-14.31c-2.13-4.18-4.54-8.13-7.52-12.79C231,204,226.4,198,218.78,194.75a22.65,22.65,0,0,0-8.93-2.16,15.18,15.18,0,0,0-5.82,1.16c-6.85,2.82-10,7.6-9.49,14.63.27,4.09.92,8.2,1.62,12.4A28.83,28.83,0,0,0,200.57,232a61.24,61.24,0,0,0,11.55,13.16,25.71,25.71,0,0,0,15.34,6.12h0M299,358.13l-.58-2c-.05-.18-.09-.36-.13-.54a4.45,4.45,0,0,0-.58-1.63c-.85-1.23-1.77-2.42-2.66-3.57-.25-.31-.49-.63-.73-.94l-4-5.17c-4.08-5.31-8.3-10.8-12.47-16.18-1.21-1.55-2.46-3-3.79-4.58l-1.16-1.36.15-.11c.67-.48,1.25-.9,1.86-1.29l5.81-3.76c4.29-2.77,8.72-5.63,13.06-8.48A3.3,3.3,0,0,0,294.9,307a5.39,5.39,0,0,1,.25-.48l1-1.71-2,.2h-.64a3.18,3.18,0,0,0-1.67.34c-2.23,1.35-4.45,2.79-6.6,4.18l-1,.63-10.24,6.65-3.61,2.34-2-2.62c-1.9-2.46-3.69-4.78-5.62-7.07-1.33-1.58-2.71-3.16-4-4.7a133.16,133.16,0,0,1-12.48-15.95,2.37,2.37,0,0,0-1.34-.9l-.35-.14-1.4-.7,0,1.57c0,.13,0,.26-.05.39a2.48,2.48,0,0,0,.18,1.65l.25.43a39.92,39.92,0,0,0,3.11,4.82c2.25,2.86,4.6,5.71,6.86,8.47q1.67,2,3.31,4l1.66,2c3.31,4.07,6.74,8.28,10.08,12.43l1.68,2.09c5.61,7,11.41,14.18,17.06,21.31,1.3,1.63,2.57,3.35,3.79,5s2.35,3.17,3.57,4.72a3.38,3.38,0,0,0,1.81,1c.22.07.43.14.59.21l1.95.85m-14.29-37.9,1.11-.66.78-.47c.43-.25.75-.44,1.06-.65l1.65-1.06c2.74-1.78,5.59-3.62,8.36-5.47a2.5,2.5,0,0,0,.87-1.28,3.68,3.68,0,0,1,.15-.35l.64-1.21-1.36-.24-.43-.11a3.56,3.56,0,0,0-1.05-.21,1.5,1.5,0,0,0-.82.22c-3.13,1.95-6.27,4-9.3,6l-1.48,1c-.35.23-1.08.7-1,1.49a5.17,5.17,0,0,0,.31,1.29c.05.16.11.34.16.53l.37,1.24m-54.83-42.6.06.46,0,.2.07.51.08.57a6.68,6.68,0,0,1-.55-.46c-.27-.25-.37-.35.16-1.08l.15-.2m-67.23-128.2h-.12a39.92,39.92,0,0,0-10.71,2c-6.67,2-12.29,5.92-18.37,9-3.64,1.83-6,5-8,8.51-1.88,3.31-2,2.75,1.2,4.3,1.77.86,3,1.94,3,4.17,0,2.07.39,4.13.61,6.2a3.24,3.24,0,0,0,.53-1.48c.14-1.35.18-2.71.39-4.05s.79-2.2,2.07-2.2a3.51,3.51,0,0,1,.69.07,14.46,14.46,0,0,0,2.86.3c7.6.06,12.83,3.95,16.61,10.28,2.74,4.58,3.54,9.88,5.45,14.77,1.49,3.83,2.51,8,4.63,11.4,4,6.49,8.56,12.63,13,18.84,4.1,5.75,8.29,11.44,12.51,17.1,3.2,4.29,6.52,8.5,9.76,12.77q5.32,7,10.57,14.08a2,2,0,0,0,1.45,1c.52,0,1-.37,1.55-1.15,2-3,4-6.13,6.15-9.13a1.69,1.69,0,0,0-.14-2.58A241.83,241.83,0,0,1,198,239.12c-5.45-7.71-11-15.34-16.41-23.07q-6-8.61-11.8-17.4a36.11,36.11,0,0,1-5.84-13.8,5.91,5.91,0,0,1,0-1.68,31,31,0,0,1,9.75-18.94,11.36,11.36,0,0,1,6.54-3.24c4.53-.54,9-1.34,13.53-2a15.67,15.67,0,0,1,2.15-.22,3.69,3.69,0,0,1,2.55.87c1.49,1.3,3,2.57,4.36,4,2.39,2.48,4.7,5,7,7.61,3.26,3.66,6.48,7.37,9.82,11.18a1.71,1.71,0,0,1-1.18.69,1.74,1.74,0,0,1-1.2-.77c-1.43-1.68-2.81-3.4-4.28-5-4.35-4.83-8.77-9.59-13.09-14.43a6.36,6.36,0,0,0-5-2.36,9.84,9.84,0,0,0-2.15.26,60.34,60.34,0,0,1-10.32,1.6,12.59,12.59,0,0,0-9.12,4.49,30.61,30.61,0,0,0-3.05,3.86c-4.56,7.05-6.44,14.41-1.78,22.16,2.85,4.74,5.89,9.37,9,13.94q10.43,15.25,21.05,30.37a238,238,0,0,0,20.67,25.12,12.5,12.5,0,0,0,3.42,2.24c1.47.78,3.18,1.19,4.49,2.16a10.83,10.83,0,0,1,3,3.54c1.36,2.52.37,4.84-1.16,7-.61.83-.89,1.57,0,2.39.68.65,1.73,1.19,2,2,.91,2.85,3.12,4.63,4.89,6.81,3.09,3.81,5.93,7.82,8.89,11.73,5,6.53,9.87,13.09,14.91,19.55,5.42,6.95,10.94,13.82,16.46,20.7q8.64,10.77,17.39,21.48c1.14,1.4,2.38,2.7,4.39,2.85,3.71.27,7.4.8,11.11.89a12.88,12.88,0,0,1,10.43,5.29,45.2,45.2,0,0,0,5.59,5.65,3.56,3.56,0,0,0,2.18.74,2.18,2.18,0,0,0,.52-.06,35.22,35.22,0,0,0,6.58-2.09c2.25-1,4.55-2.06,6-4.29.91-1.43,1.78-2.89,2.75-4.27a2.22,2.22,0,0,0,.2-2.63q-3.58-6.83-7-13.75a7.21,7.21,0,0,1-.5-5.76c1.43-4.23,1.56-8-2.07-11.64-4.07-4-7.59-8.65-11.31-13.05q-7.68-9-15.31-18.14c-3.62-4.34-7.12-8.77-10.75-13.1-5-6-10.75-11.29-15-17.94a61.47,61.47,0,0,0-6.48-8,16.91,16.91,0,0,1-3.81-7.59c-.61-2.47-.93-5-1.43-7.5a9.74,9.74,0,0,0-.92-3.23c-2.39-3.78-4.9-7.48-7.4-11.18-2.92-4.3-6.32-8.34-8.72-12.91a165.88,165.88,0,0,0-12.46-20.58c-5.27-7.27-10.45-14.63-16.06-21.63a219,219,0,0,0-15-16.8c-3.76-3.82-8.1-7.15-13.44-8.53-4.29-1.11-8.66-2-13-2.75a25.3,25.3,0,0,0-4.1-.37,15.07,15.07,0,0,0-2.61.21c-8.42,1.46-14.47,6.48-18.82,13.66a12.69,12.69,0,0,0-2,5.51,32,32,0,0,0,1.56,13,9.88,9.88,0,0,1,.3,1.82l-.56.13c-2.66-3.56-3.31-7.92-3.87-12.13-1.31-10,5.08-16.09,11.67-22-.13-.1-.21-.21-.3-.22-.35,0-.7-.06-1-.06Zm64.87,100.85a24.78,24.78,0,0,1-14.76-5.88,60,60,0,0,1-11.35-13,27.57,27.57,0,0,1-4.26-10.83c-.68-4.08-1.34-8.18-1.61-12.3-.45-6.69,2.57-11.05,8.87-13.63a14.11,14.11,0,0,1,5.44-1.09,21.89,21.89,0,0,1,8.54,2.08c7.14,3,11.67,8.7,15.67,15,2.64,4.14,5.24,8.33,7.47,12.71a28.52,28.52,0,0,1,2.94,13.83c-.11,4.1-2.63,7-5.55,9.33-3.25,2.64-7.21,3.57-11.4,3.79Zm.83,13.74c-.19-.14-.52-.26-.57-.46a1.16,1.16,0,0,1,.11-.92,2.61,2.61,0,0,1,1-.62c6.27-2.8,12.54-5.58,18.8-8.39,4.56-2,9.11-4.13,13.66-6.2,1.33-.61,2.64-1.29,4-1.8a.46.46,0,0,1,.21,0,6.76,6.76,0,0,1,1.19.34c-.27.36-.47.89-.83,1q-9.34,4.29-18.73,8.5L229,263.66c-.21.09-.4.2-.69.36Zm4,14.72c-.43,0-.88-.08-1.31-.08,0-.23-.06-.47-.1-.71.61-.3,1.22-.61,1.83-.9,8.38-4,16.78-8,25.14-12.05,2.53-1.23,4.94-2.7,7.45-4a.91.91,0,0,1,.41-.08c.38,0,.83.14,1.23.17-.28.46-.45,1.13-.86,1.35-7.49,3.92-15,7.87-22.53,11.64-3.43,1.71-7,3.08-10.57,4.52a2,2,0,0,1-.69.11Zm65.11,77.62c-.68-.29-1.61-.4-2-.93-2.52-3.19-4.84-6.55-7.36-9.74q-9.31-11.74-18.75-23.4c-3.89-4.84-7.82-9.65-11.74-14.47-3.39-4.16-6.84-8.27-10.16-12.49a42.31,42.31,0,0,1-3.29-5.14c-.22-.37,0-1,0-1.51.43.22,1.06.32,1.28.68,4.76,7.55,10.89,14,16.61,20.77,2.79,3.31,5.38,6.8,8.19,10.38L284.85,311c2.5-1.62,5-3.25,7.56-4.79a2.22,2.22,0,0,1,1.15-.2h.22a4.26,4.26,0,0,0,.51,0c-.33.56-.54,1.32-1,1.64-6.27,4.11-12.58,8.15-18.87,12.23-.94.6-1.83,1.27-2.93,2.05,2,2.36,3.87,4.49,5.62,6.75,5.51,7.09,11,14.22,16.44,21.34,1.13,1.48,2.3,2.93,3.35,4.47a6.48,6.48,0,0,1,.57,1.87ZM285.3,318.71a8.7,8.7,0,0,1-.43-1.61c0-.18.33-.43.56-.58,3.58-2.33,7.15-4.68,10.77-6.93a.54.54,0,0,1,.29-.07,10.67,10.67,0,0,1,1.31.31c-.22.43-.34,1-.69,1.26-3.31,2.21-6.65,4.36-10,6.53-.47.3-1,.57-1.82,1.09Z"/><path class="cls-2" d="M345.42,372.44c-.4,1.36-.67,2.2-.88,3.05a23.15,23.15,0,0,0,.17,10.79c.27,1.22.32,2.48.6,3.69a6,6,0,0,1-1.16,4.95c-2.32,3.48-5.16,6.78-6.64,10.61-1.56,4-4.63,3.9-7.67,4.45-.49.08-1.22-.44-1.64-.88-1.69-1.74-3.23-3.63-5-5.33-4.15-4.09-9.39-5.66-15-6.27-3.24-.36-6.49-.69-9.74-.9a2.63,2.63,0,0,1-2.5-1.89c-.49-1.27-1-2.52-1.45-3.8a1.9,1.9,0,0,0-2.49-1.41,3.74,3.74,0,0,1-3.71-1c-2.34-2.21-4.73-4.36-7-6.6-4.68-4.58-9.41-9.12-13.94-13.84-3.87-4-7.52-8.27-11.2-12.47-3.16-3.62-6.22-7.32-9.33-11-5.41-6.37-10.89-12.68-16.21-19.13-2.91-3.52-5.49-7.33-8.33-10.92-3-3.81-6.17-7.5-9.26-11.25-.93-1.13-1.88-2.25-2.75-3.43a9.51,9.51,0,0,0-8.38-4.21,18,18,0,0,0-3.21.14,2.1,2.1,0,0,1-2.43-1,210,210,0,0,0-15-19.6c-1.61-1.87-1.44-3.56-.5-5.71,1.29-2.94,2.12-6.09,3.16-9.14.1-.31.24-.61.47-1.19l7.92,9c1-.68,1-1.3.38-2-2.48-2.8-4.92-5.62-7.42-8.39-1.14-1.26-1.83-1.06-2.34.51-1.36,4.19-2.76,8.37-4.1,12.57-.27.83-.67,1.38-1.57,1.06-3.48-1.22-7-2.41-10.43-3.75-2.82-1.1-5.55-2.43-8.37-3.55a4.4,4.4,0,0,1-2.8-2.67q-3.67-9.85-7.49-19.66c-1-2.53-2.18-5-3.13-7.52a24.49,24.49,0,0,1-.82-3.84l.51-.29c.39.25.93.4,1.12.75a6.3,6.3,0,0,0,5,3.56,25.74,25.74,0,0,1,2.74.8,6.44,6.44,0,0,0,7.68-5.17c.19-1.11.29-2.25.37-3.38.19-2.81-.37-5.14-3.47-6.15-1.55-.5-3-1.59-4.53-1.89-1-.19-2.16.62-3.25.93-.53.15-1.32.47-1.59.24-2.07-1.76-4.65-2-7.1-2.41-2.12-.37-3.55-1.11-4-3.37s-1.14-4.71-1.73-7a9.64,9.64,0,0,0-4.71-6.44,2,2,0,0,1-1-1.35c-.17-2.71-.19-5.44-.29-8.16-.05-1.24.32-2.08,1.69-2.25,1-.13,1.29-.75,1.3-1.8,0-3,.18-6,.36-9,0-.37.55-1,.79-1,2.89.29,6,.2,8.62,1.17a16.71,16.71,0,0,1,9.79,9.49c1.16,2.74,2.07,5.59,3.05,8.41,1.63,4.69,3,9.52,4.94,14.06,1.31,3,3.52,5.62,5.4,8.36q6.15,9,12.4,18c2,2.81,4.09,5.53,6.16,8.28,3.61,4.77,7.21,9.54,10.86,14.28,2.14,2.77,4.41,5.44,6.52,8.22,1.74,2.3,3.26,4.76,5,7,.91,1.18,1.93,2.58,3.21,3.07a15.17,15.17,0,0,1,7.82,7c4.53,7.63,10.65,14,16.58,20.53,4.16,4.58,7.79,9.66,11.58,14.58,4.7,6.08,9.31,12.25,14,18.34,5.51,7.16,10.87,14.45,16.67,21.37q11.68,14,24,27.37c3.39,3.68,8,4.71,12.87,2.66s9.91-3.78,14.54-6.27c5.38-2.9,10.39-6.47,15.56-9.76C344.17,373.38,344.58,373.05,345.42,372.44ZM331,399.92c3.71-1.52,5.1-4.3,5.86-7.46.94-3.9-.92-6.26-4.91-6.68a1.7,1.7,0,0,0-2.07,1.43,16.5,16.5,0,0,0-.49,8.39A30.28,30.28,0,0,0,331,399.92Z"/><path class="cls-2" d="M332.05,379a8.38,8.38,0,0,1-1.14,1.08c-3.6,1.84-7.2,3.68-10.84,5.43-.48.23-1.19,0-2-.07-2.18,2.22-4.79,1-7.94.17.5,1.06.82,1.74,1.29,2.71-1.49.88-3.24.67-5,.11-3.29-1.06-5.66-3.39-7.87-5.92-5.09-5.83-10.25-11.59-15.24-17.5-5.43-6.43-10.84-12.88-16-19.52-6.94-8.91-13.72-17.95-20.42-27.05a233.27,233.27,0,0,0-17.14-20.51c-3-3.26-5.56-7-8.31-10.5-.72-.91-.57-1.6.27-2.47,1.37-1.42,2.49-3.08,3.83-4.53.29-.32,1.38-.44,1.56-.22,2.61,3.24,5.14,6.54,7.66,9.84,4.7,6.15,9.36,12.32,14.07,18.46,6.51,8.47,12.95,17,19.58,25.36,7.53,9.52,15.23,18.91,22.86,28.35.53.66,1.16,1.24,1.68,1.91,2.38,3.1,5.95,3.1,9.3,3.56,3.16.43,6.37.56,9.53,1a4.33,4.33,0,0,1,2.46,1.51c2.26,2.74,4.4,5.59,6.55,8.42a4.16,4.16,0,0,0,4.75,1.62C327.55,379.73,329.57,379.43,332.05,379Zm-16.12-1.66c.05-2.24-1.82-4.48-3.83-4.56a5,5,0,0,0-4.91,4.92c-.14,3.44,1.1,5.35,3.49,5.38C313.35,383.07,315.85,380.34,315.93,377.29Z"/><path class="cls-3" d="M114.38,142c0,3.55-.16,7.11,0,10.65.54,10.43,1.22,20.85,1.83,31.28.16,2.83.28,5.67.32,8.5a2.15,2.15,0,0,1-.74,1.64c-1.76,1.08-3.62,2-5.63,3-.09-1-.24-2-.31-3.12-.49-8.83-1-17.67-1.45-26.5q-.44-8.92-.6-17.85a4.17,4.17,0,0,1,1.08-2.5c1.57-1.85,3.29-3.56,5-5.33Z"/><path class="cls-2" d="M121.15,174.39c2.22-1.5,3.8-.25,5.4.66a2.55,2.55,0,0,1,1.2,1.48,54.77,54.77,0,0,1,.59,6.26c.14,4.24.17,8.49.22,12.74,0,.69-.07,1.38-.1,1.77-2.21-1.26-4.21-2.75-6.46-3.54-1.63-.57-2.11-1.19-2.19-2.86-.63-14-1.38-28-2.06-42a48.7,48.7,0,0,1,0-6.94c.08-.88,1-1.68,1.56-2.52l.58.2C120.34,151.1,120.74,162.53,121.15,174.39Z"/><path class="cls-2" d="M144.39,228.85c-4.47-.84-8.57-1.22-12.39-2.46-2.33-.76-4.4-2.66-6.31-4.37a81.69,81.69,0,0,1-5.9-6.29c-.82-.91-.74-1.5.6-1.88a24.77,24.77,0,0,0,4.39-1.74,1.36,1.36,0,0,1,2,.42,47.74,47.74,0,0,0,3.65,3.74c2.36,2.18,5.47,2.17,8.36,2.75,2.26.45,4.54.84,6.78,1.36,1.89.44,2,1.05,1.19,2.82-.67,1.42-1,3-1.57,4.46A5.69,5.69,0,0,1,144.39,228.85Z"/><path class="cls-2" d="M117.83,202.8c-.82-1.12-1.49-2.1-2.23-3-.2-.24-.61-.32-.92-.48,0,.4-.07.79-.09,1.19,0,0,0,.1.07.15.52,1,1.73,2.52,1.43,3-.68,1-2.13,1.51-3.26,2.21-1.91-3-.24-7.54,3-8.42a9.06,9.06,0,0,1,8.64,2.14,2.49,2.49,0,0,1,.62,1,8.46,8.46,0,0,1-2.25,8.55c-.13.1-.27.27-.41.28a29.28,29.28,0,0,1-5.73.39c-1.08-.11-2-1.23-3-1.92-.16-.11-.22-.39-.41-.75,1.27-.65,2.47-1.36,3.75-1.86.31-.13,1,.3,1.31.65.87.95,1.62,2,2.42,3l.58-.14c0-.45.07-1-.14-1.35a22.52,22.52,0,0,0-1.68-2.11c-.65-.8-.48-1.45.39-2a11.21,11.21,0,0,0,1.75-1,6,6,0,0,0,1-1.33,4.82,4.82,0,0,0-1.49.13C120,201.58,119,202.18,117.83,202.8Z"/><path class="cls-2" d="M157.59,227.33a6.79,6.79,0,0,1-.39,1.64,8.4,8.4,0,0,1-5.48,4.19c-2.56.66-5-1.62-4.91-4.42.18-3.92,1.68-6.69,5.61-8,1.69-.55,3.9.81,4.5,2.89A33.66,33.66,0,0,1,157.59,227.33Z"/><path class="cls-2" d="M130.5,160.05c0-2.72.07-5.15,0-7.56q-.21-5.61-.6-11.21c-.15-2.08,1.77-5.06,4.5-6.24,0,3,0,5.88,0,8.73,0,3.63,0,7.27.08,10.9C134.57,158.07,134.37,158.48,130.5,160.05Z"/><path class="cls-2" d="M124.89,166.36c-.15-2.7-.25-4.94-.4-7.17-.37-5.54-.7-11.09-1.17-16.62-.2-2.4,1.35-3.61,2.87-5.4.13.88.24,1.36.27,1.84.33,7.08.56,14.16,1,21.23C127.65,162.67,126.61,164.32,124.89,166.36Z"/><path class="cls-2" d="M228.86,272.27c.36,2-.65,3.19-1.56,4.27-2.17,2.58-4.49,5-6.77,7.52a3.14,3.14,0,0,1-.62.42c-.25-.22-.63-.4-.71-.66a9.86,9.86,0,0,0-3.17-4.65c-.19-.16.13-1.45.53-1.69a57.07,57.07,0,0,1,6.67-3.57A44.54,44.54,0,0,1,228.86,272.27Z"/><path class="cls-2" d="M153.46,130.56c0,2.74,0,5.26,0,7.79s.08,5.1.14,7.65c.08,3.3-.47,3.91-4.05,4.41,0-2.75,0-5.49,0-8.23a43.84,43.84,0,0,0,.15-5.6C149.38,133.61,150.9,132,153.46,130.56Z"/><path class="cls-2" d="M137.23,156.26c0-6.4,0-12.62,0-18.83,0-1.88,1.53-2.54,2.61-3.55l.65.16V143c0,2.94-.21,5.9,0,8.83C140.75,154.25,139.65,155.43,137.23,156.26Z"/><path class="cls-2" d="M146.43,131.92c0,2.35,0,4.42,0,6.49.08,3.4.23,6.79.31,10.18.07,3.17-.14,3.41-3.55,4.45.18-5.23.34-10.42.55-15.61C143.87,134.38,143.92,134.38,146.43,131.92Z"/><path class="cls-2" d="M341.87,356.49c-.41-.78-.86-1.56-1.3-2.32-1.32-2.25-2.68-4.58-3-7.3a7.23,7.23,0,0,1,.42-2.72c0-.12.07-.25.11-.38l6.74,10.16Z"/><path d="M338.27,345l5.81,8.76.08.12L342.79,355l-.77.68c-.33-.6-.68-1.2-1-1.78a19.35,19.35,0,0,1-3-7.12,5,5,0,0,1,.23-1.84m-.41-2.41c-.31,1.56-1,3-.81,4.38.51,4,3.07,7.09,4.66,10.35l3.77-3.26-7.62-11.47Z"/><path class="cls-2" d="M349.56,360c2.19,2.12,2.19,3.57.09,6.09-2.43,2.93-5.45,5.1-8.42,7.36l-.36-.3c1-1.57,2-3.16,3.05-4.72,1.2-1.82,2.49-3.61.8-5.56Z"/><path class="cls-2" d="M158.92,130.81v13.91c0,.34,0,.68,0,1,0,2.41,0,2.41-2.47,2.58,0-4.55.16-9.12-.07-13.67C156.23,132.59,157.18,131.7,158.92,130.81Z"/><path class="cls-2" d="M161.22,147.7c.38-4.65.69-9.22,1.16-13.77a8.44,8.44,0,0,1,1.17-2.5l.59.19c0,.92,0,1.84,0,2.75q.11,5.35.22,10.69C164.42,147.91,164.17,148.12,161.22,147.7Z"/><path class="cls-2" d="M168.57,148.53c-1.35.29-2.12.09-2-1.55.35-4.29.6-8.59.93-12.88a4.28,4.28,0,0,1,.6-1.31l.45.12Z"/><path class="cls-2" d="M132.9,213.35c-1.23-1.19-2.56-2.3-3.67-3.6-.78-.92-.24-1.85,1-2,2.44-.31,2.76,0,3,2.51.08.93.17,1.85.26,2.78Z"/><path class="cls-2" d="M132.58,204.93c-3.14.4-3.41.15-3-2.56A2.86,2.86,0,0,1,132.58,204.93Z"/><path d="M227.52,250.28a24.78,24.78,0,0,1-14.76-5.88,60,60,0,0,1-11.35-13,27.57,27.57,0,0,1-4.26-10.83c-.68-4.08-1.34-8.18-1.61-12.3-.45-6.69,2.57-11.05,8.87-13.63,4.93-2,9.35-1,14,1,7.14,3,11.67,8.7,15.67,15,2.64,4.14,5.24,8.33,7.47,12.71a28.52,28.52,0,0,1,2.94,13.83c-.11,4.1-2.63,7-5.55,9.33C235.67,249.13,231.71,250.06,227.52,250.28Zm2.77-38.58a15.27,15.27,0,0,0-1.25-1.92c-2.06-2.26-4.06-4.57-6.27-6.67a23.8,23.8,0,0,0-13-6.69,12.45,12.45,0,0,0-7.19.86c-4.29,1.95-5.69,5.84-5.62,10.22A59.35,59.35,0,0,0,200,225.7a20,20,0,0,0,1.18,2.37c1.14-2.12,2.79-2.67,4.59-2a3.41,3.41,0,0,1,2,2.13c.38,2.71-1.47,3.7-4.16,3.79.69,1,1.09,1.68,1.57,2.29,5,6.39,10.42,12.32,18.79,14.14a16.38,16.38,0,0,0,14.37-3.57,6.28,6.28,0,0,0,2.21-3.46,22.24,22.24,0,0,0,0-6.91c-.92-5.35-3.32-10.21-5.7-15-.58-1.17-1.21-2.31-1.91-3.64-1.07,2.4-1.95,2.92-4.07,2.6a3.41,3.41,0,0,1-2.68-2.87C226.2,212.94,228,212.21,230.29,211.7Z"/><path d="M270.23,320.51,284.85,311c2.5-1.62,5-3.25,7.56-4.79a4.73,4.73,0,0,1,1.88-.22c-.33.56-.54,1.32-1,1.64-6.27,4.11-12.58,8.15-18.87,12.23-.94.6-1.83,1.27-2.93,2.05,2,2.36,3.87,4.49,5.62,6.75,5.51,7.09,11,14.22,16.44,21.34,1.13,1.48,2.3,2.93,3.35,4.47a6.48,6.48,0,0,1,.57,1.87c-.68-.29-1.61-.4-2-.93-2.52-3.19-4.84-6.55-7.36-9.74q-9.31-11.74-18.75-23.4c-3.89-4.84-7.82-9.65-11.74-14.47-3.39-4.16-6.84-8.27-10.16-12.49a42.31,42.31,0,0,1-3.29-5.14c-.22-.37,0-1,0-1.51.43.22,1.06.32,1.28.68,4.76,7.55,10.89,14,16.61,20.77C264.83,313.44,267.42,316.93,270.23,320.51Z"/><path d="M230.93,278c.61-.3,1.22-.61,1.83-.9,8.38-4,16.78-8,25.14-12.05,2.53-1.23,4.94-2.7,7.45-4,.42-.22,1.09.05,1.64.09-.28.46-.45,1.13-.86,1.35-7.49,3.92-15,7.87-22.53,11.64-3.43,1.71-7,3.08-10.57,4.52a5.8,5.8,0,0,1-2,0Z"/><path d="M228.35,264c-.19-.14-.52-.26-.57-.46a1.16,1.16,0,0,1,.11-.92,2.61,2.61,0,0,1,1-.62c6.27-2.8,12.54-5.58,18.8-8.39,4.56-2,9.11-4.13,13.66-6.2,1.33-.61,2.64-1.29,4-1.8.38-.14.93.19,1.4.3-.27.36-.47.89-.83,1q-9.34,4.29-18.73,8.5L229,263.66C228.83,263.75,228.64,263.86,228.35,264Z"/><path d="M285.3,318.71a8.7,8.7,0,0,1-.43-1.61c0-.18.33-.43.56-.58,3.58-2.33,7.15-4.68,10.77-6.93.35-.22,1.06.15,1.6.24-.22.43-.34,1-.69,1.26-3.31,2.21-6.65,4.36-10,6.53C286.65,317.92,286.16,318.19,285.3,318.71Z"/><path d="M331,399.92a30.28,30.28,0,0,1-1.61-4.32,16.5,16.5,0,0,1,.49-8.39,1.7,1.7,0,0,1,2.07-1.43c4,.42,5.85,2.78,4.91,6.68C336.13,395.62,334.74,398.4,331,399.92ZM330.92,388v8.26C332.87,394.17,333.24,390.2,330.92,388Z"/><path d="M315.93,377.29c-.08,3-2.58,5.78-5.25,5.74-2.39,0-3.63-1.94-3.49-5.38a5,5,0,0,1,4.91-4.92C314.11,372.81,316,375.05,315.93,377.29ZM311,374.88l-.13.67a4.53,4.53,0,0,0,1.56.34c.29-.05.5-.65.75-1Zm.55,4.52-.92-.11-.46,2c.46-.08,1.2,0,1.32-.28A4.08,4.08,0,0,0,311.54,379.4Z"/><path class="cls-2" d="M230.29,211.7c-2.26.51-4.09,1.24-4,3.79a3.41,3.41,0,0,0,2.68,2.87c2.12.32,3-.2,4.07-2.6.7,1.33,1.33,2.47,1.91,3.64,2.38,4.82,4.78,9.68,5.7,15a22.24,22.24,0,0,1,0,6.91,6.28,6.28,0,0,1-2.21,3.46,16.38,16.38,0,0,1-14.37,3.57c-8.37-1.82-13.77-7.75-18.79-14.14-.48-.61-.88-1.28-1.57-2.29,2.69-.09,4.54-1.08,4.16-3.79a3.41,3.41,0,0,0-2-2.13c-1.8-.62-3.45-.07-4.59,2A20,20,0,0,1,200,225.7,59.35,59.35,0,0,1,197,207.5c-.07-4.38,1.33-8.27,5.62-10.22a12.45,12.45,0,0,1,7.19-.86,23.8,23.8,0,0,1,13,6.69c2.21,2.1,4.21,4.41,6.27,6.67A15.27,15.27,0,0,1,230.29,211.7ZM199.61,216l1,.12a13.76,13.76,0,0,0,.23-2.1c-.2-4.88,2.74-8,6.11-10.72a8.1,8.1,0,0,1,3.44-1.27c2.76-.57,5.14.61,7.49,1.88a3.91,3.91,0,0,0,1.51.11c-.2-.46-.28-1.13-.64-1.34a13.92,13.92,0,0,0-8.15-2.24c-5.22.27-9.23,5.83-10.56,9.63C199.38,211.83,199.71,214,199.61,216Z"/><path class="cls-2" d="M330.92,388c2.32,2.2,1.95,6.17,0,8.26Z"/><path class="cls-2" d="M312.25,375.4l-.2,0h.24v0Z"/><path d="M313.17,374.88H311l-.13.67a6,6,0,0,0,1.39.35h.17c.29-.05.5-.65.75-1Z"/><path d="M310.62,379.29c-.15.66-.3,1.33-.46,2,.46-.08,1.2,0,1.32-.28a4.08,4.08,0,0,0,.06-1.61l-.92-.11Z"/><path d="M199.61,216c.1-2-.23-4.13.39-5.93,1.33-3.8,5.34-9.36,10.56-9.63a13.92,13.92,0,0,1,8.15,2.24c.36.21.44.88.64,1.34a3.91,3.91,0,0,1-1.51-.11c-2.35-1.27-4.73-2.45-7.49-1.88a8.1,8.1,0,0,0-3.44,1.27c-3.37,2.75-6.31,5.84-6.11,10.72a13.76,13.76,0,0,1-.23,2.1Z"/><text class="cls-4" transform="translate(16.54 355.59) rotate(67.81) scale(0.99 1)"> </text><text class="cls-4" transform="matrix(0.43, 0.89, -0.9, 0.44, 22.28, 369.33)"> </text><text class="cls-4" transform="matrix(0.49, 0.86, -0.87, 0.49, 28.9, 382.68)"> </text><text class="cls-4" transform="translate(36.34 395.58) rotate(56.84) scale(0.99 1)"> </text><text class="cls-4" transform="translate(44.59 407.97) rotate(53.2) scale(0.99 1)"> </text><text class="cls-4" transform="matrix(0.64, 0.76, -0.76, 0.65, 53.62, 419.82)"> </text><text class="cls-4" transform="matrix(0.73, 0.67, -0.67, 0.74, 63.93, 432.63)">B</text><text class="cls-4" transform="translate(96.83 461.89) rotate(31.22) scale(0.99 1)">A</text><text class="cls-4" transform="matrix(0.93, 0.34, -0.34, 0.94, 137.31, 485.43)">B</text><text class="cls-4" transform="translate(178.61 499.53) rotate(9.58) scale(0.99 1)">E</text><text class="cls-4" transform="translate(217.25 505.72) rotate(-0.94) scale(0.99 1)">R</text><text class="cls-4" transform="matrix(0.98, -0.18, 0.19, 0.98, 260.5, 504.38)">S</text><text class="cls-4" transform="matrix(0.92, -0.37, 0.37, 0.93, 298.71, 496.94)">H</text><text class="cls-4" transform="translate(344.07 478.22) rotate(-34.08) scale(0.99 1)">O</text><text class="cls-4" transform="translate(385.91 448.45) rotate(-45.55) scale(0.99 1)">P</text></g></g></svg>
