<svg xmlns="http://www.w3.org/2000/svg" viewBox="0 0 473.71 563.16"><defs><style>.cls-1,.cls-3{fill:none;stroke:#2d2db2;stroke-miterlimit:10;}.cls-1{stroke-width:6px;}.cls-2{font-size:56.05px;}.cls-2,.cls-4{fill:#2d2db2;font-family:Gibson-Bold, Gibson;font-weight:700;}.cls-3{stroke-width:10px;}.cls-4{font-size:56.06px;}.cls-5{fill:#3b5cbf;}</style></defs><title>Asset 3</title><g id="Layer_2" data-name="Layer 2"><g id="Layer_1-2" data-name="Layer 1"><ellipse class="cls-1" cx="236.85" cy="279.37" rx="231.85" ry="233.48"/><ellipse class="cls-1" cx="236.85" cy="279.37" rx="231.85" ry="233.48"/><text class="cls-2" transform="matrix(0.7, 0.71, -0.71, 0.7, 60.04, 417)">B</text><text class="cls-2" transform="matrix(0.81, 0.57, -0.57, 0.82, 89.14, 446.34)">A</text><text class="cls-2" transform="matrix(0.91, 0.41, -0.41, 0.91, 125.55, 471.23)">R</text><text class="cls-2" transform="matrix(0.96, 0.24, -0.24, 0.97, 163.15, 487.88)">B</text><text class="cls-2" transform="matrix(0.99, 0.08, -0.08, 1, 202.8, 497.43)">E</text><text class="cls-2" transform="matrix(0.99, -0.08, 0.09, 1, 239.07, 500.3)">R</text><text class="cls-2" transform="matrix(0.96, -0.25, 0.25, 0.97, 279.33, 496.34)">S</text><text class="cls-2" transform="matrix(0.9, -0.41, 0.42, 0.91, 314.24, 487.42)">H</text><text class="cls-2" transform="matrix(0.8, -0.59, 0.59, 0.81, 356.09, 467.96)">O</text><text class="cls-2" transform="matrix(0.68, -0.73, 0.73, 0.68, 394.7, 438.67)">P</text><text/><ellipse class="cls-3" cx="236.85" cy="279.37" rx="231.85" ry="233.48"/><text/><text class="cls-4" transform="matrix(0.97, -0.22, 0.23, 0.98, 168.79, 106.62)">G</text><text class="cls-4" transform="matrix(0.99, -0.1, 0.11, 1, 207.67, 98.28)">I</text><text class="cls-4" transform="matrix(0.99, 0.02, -0.01, 1, 224.58, 95.76)">D</text><text class="cls-4" transform="matrix(0.98, 0.18, -0.17, 0.99, 262.16, 96.23)">A</text><path class="cls-5" d="M120.91,133.3c-1.25,1.1-2.48,2-3.52,3.14-1.86,2-3.44,4.25-5.44,6.06a5.67,5.67,0,0,0-2.06,5.18c.49,5.53.91,11.07,1.2,16.62.43,8.38.73,16.77,1.11,25.16a68.77,68.77,0,0,1,.16,10.65c-.45,4.26,2.56,9.89,7.23,10.56.52.08,1.1.75,1.38,1.29a33.46,33.46,0,0,0,10.31,11.49c3.81,2.75,8.32,3.36,12.71,4.19a3,3,0,0,1,2.61,2.55,52.08,52.08,0,0,0,2.43,7.4c3.72,8.08,7.38,16.17,10.4,24.54a3.74,3.74,0,0,0,1.92,2c4.46,1.73,9,3.3,13.49,4.9,4,1.44,8,2.28,10.79,6.62,4,6.21,9.22,11.56,13.61,17.5,1.7,2.3,3.34,3.2,6.15,2.83A8.74,8.74,0,0,1,213,298.5c3.32,3.53,6.48,7.23,9.5,11,4.38,5.53,8.42,11.34,12.88,16.81,5.7,7,11.89,13.61,17.47,20.7,6.89,8.75,13.24,17.93,21.63,25.38,6,5.36,12.05,10.75,18.1,16.1.53.46,1.35,1,1.91.93,2.38-.47,2.79,1.18,3.34,2.79a11.29,11.29,0,0,0,.87,2,3.61,3.61,0,0,0,3,2q6.48.58,12.92,1.6c3.83.59,7.84,1.07,10.73,4a93.75,93.75,0,0,1,6.4,7.64c.6.76,1,1.41,2.17,1.17,1.74-.39,3.51-.71,5.28-1a4.77,4.77,0,0,0,4-2.9,61.8,61.8,0,0,1,3.61-6.51c2.2-3.54,4.53-7,6.74-10.55a3.36,3.36,0,0,0,.2-1.78c-.22-4.86-.62-9.73-.67-14.6a10,10,0,0,1,3.38-8,13.29,13.29,0,0,0,3-4.81,4.49,4.49,0,0,0-.06-3.42c-2.14-3.85-4.44-7.63-6.87-11.3-2.28-3.43-5.05-6.54-6-10.73a4.87,4.87,0,0,0-.91-1.8c-2.14-2.84-4.21-5.76-6.54-8.43-4.11-4.73-8.52-9.2-12.6-13.95-6.2-7.26-12.26-14.65-18.32-22-2-2.48-3.76-5.24-5.87-7.66-3.07-3.52-6.39-6.83-9.56-10.27a97.18,97.18,0,0,1-11.49-15.48c-.79-1.29-2.07-2.41-2.43-3.8a52,52,0,0,1-1.64-9.51,10.27,10.27,0,0,0-2-5.62q-5.55-7.6-11.11-15.18a49.19,49.19,0,0,1-3.2-4.36c-3.91-6.81-7.53-13.79-11.63-20.47-2.44-4-5.6-7.5-8.43-11.23-4.06-5.35-8-10.78-12.23-16-2.37-2.94-5.39-5.35-7.66-8.36a43.45,43.45,0,0,0-14.05-12.21,45,45,0,0,0-20.22-5.39c-3.17-.1-6.35.4-9.67.63a4.68,4.68,0,0,1-.15-.89q-.32-8-.61-16c-.06-1.67-.61-2-2.09-1.31-.53.26-1,.57-1.55.87-1.05-2.44-1.19-2.49-3.49-1.34-.42.21-.86.37-1.44.62a4.18,4.18,0,0,0,.06-1c-.16-.67-.39-1.31-.6-2a14,14,0,0,0-1.76.7c-1.34.76-2.65,1.59-4.11,2.48a11.84,11.84,0,0,0-.29-1.6,16.15,16.15,0,0,0-.72-1.59,13.33,13.33,0,0,0-1.38.79c-1.42,1.07-2.81,2.17-4.33,3.35-.49-3.06-.49-3-2.94-1.41-1.15.77-2.32,1.52-3.67,2.41-.35-2.16-1.28-1.65-2.37-.81s-2.17,1.51-3.32,2.3c-.73-2.38-1.35-2.63-3.29-1.42a18.79,18.79,0,0,0-2.41,1.85c-.91.8-1.75,1.68-2.77,2.66-.22-.71-.31-1.14-.48-1.54s-.55-1-.83-1.56c-.51.38-1,.73-1.53,1.15-1.19,1.06-2.36,2.15-3.6,3.28-.78-2.2-1-2.26-2.69-.93l-2.63,2.1Z"/><path d="M120.91,133.3l1.15,1.87,2.63-2.1c1.68-1.33,1.91-1.27,2.69.93,1.24-1.13,2.41-2.22,3.6-3.28.48-.42,1-.77,1.53-1.15.28.52.59,1,.83,1.56s.26.83.48,1.54c1-1,1.86-1.86,2.77-2.66a18.79,18.79,0,0,1,2.41-1.85c1.94-1.21,2.56-1,3.29,1.42,1.15-.79,2.27-1.49,3.32-2.3s2-1.35,2.37.81c1.35-.89,2.52-1.64,3.67-2.41,2.45-1.64,2.45-1.65,2.94,1.41,1.52-1.18,2.91-2.28,4.33-3.35a13.33,13.33,0,0,1,1.38-.79,16.15,16.15,0,0,1,.72,1.59,11.84,11.84,0,0,1,.29,1.6c1.46-.89,2.77-1.72,4.11-2.48a14,14,0,0,1,1.76-.7c.21.66.44,1.3.6,2a4.18,4.18,0,0,1-.06,1c.58-.25,1-.41,1.44-.62,2.3-1.15,2.44-1.1,3.49,1.34.52-.3,1-.61,1.55-.87,1.48-.73,2-.36,2.09,1.31q.28,8,.61,16a4.68,4.68,0,0,0,.15.89c3.32-.23,6.5-.73,9.67-.63a45,45,0,0,1,20.22,5.39A43.45,43.45,0,0,1,221,161c2.27,3,5.29,5.42,7.66,8.36,4.2,5.24,8.17,10.67,12.23,16,2.83,3.73,6,7.26,8.43,11.23,4.1,6.68,7.72,13.66,11.63,20.47a49.19,49.19,0,0,0,3.2,4.36q5.55,7.58,11.11,15.18a10.27,10.27,0,0,1,2,5.62,52,52,0,0,0,1.64,9.51c.36,1.39,1.64,2.51,2.43,3.8A97.18,97.18,0,0,0,292.83,271c3.17,3.44,6.49,6.75,9.56,10.27,2.11,2.42,3.83,5.18,5.87,7.66,6.06,7.38,12.12,14.77,18.32,22,4.08,4.75,8.49,9.22,12.6,13.95,2.33,2.67,4.4,5.59,6.54,8.43a4.87,4.87,0,0,1,.91,1.8c.93,4.19,3.7,7.3,6,10.73,2.43,3.67,4.73,7.45,6.87,11.3a4.49,4.49,0,0,1,.06,3.42,13.29,13.29,0,0,1-3,4.81,10,10,0,0,0-3.38,8c.05,4.87.45,9.74.67,14.6a3.36,3.36,0,0,1-.2,1.78c-2.21,3.54-4.54,7-6.74,10.55a61.8,61.8,0,0,0-3.61,6.51,4.77,4.77,0,0,1-4,2.9c-1.77.27-3.54.59-5.28,1-1.13.24-1.57-.41-2.17-1.17a93.75,93.75,0,0,0-6.4-7.64c-2.89-2.94-6.9-3.42-10.73-4q-6.44-1-12.92-1.6a3.61,3.61,0,0,1-3-2,11.29,11.29,0,0,1-.87-2c-.55-1.61-1-3.26-3.34-2.79-.56.11-1.38-.47-1.91-.93-6.05-5.35-12.06-10.74-18.1-16.1-8.39-7.45-14.74-16.63-21.63-25.38-5.58-7.09-11.77-13.7-17.47-20.7-4.46-5.47-8.5-11.28-12.88-16.81-3-3.81-6.18-7.51-9.5-11a8.74,8.74,0,0,0-7.64-2.49c-2.81.37-4.45-.53-6.15-2.83-4.39-5.94-9.66-11.29-13.61-17.5-2.76-4.34-6.74-5.18-10.79-6.62-4.51-1.6-9-3.17-13.49-4.9a3.74,3.74,0,0,1-1.92-2c-3-8.37-6.68-16.46-10.4-24.54a52.08,52.08,0,0,1-2.43-7.4,3,3,0,0,0-2.61-2.55c-4.39-.83-8.9-1.44-12.71-4.19A33.46,33.46,0,0,1,121,212c-.28-.54-.86-1.21-1.38-1.29-4.67-.67-7.68-6.3-7.23-10.56a68.77,68.77,0,0,0-.16-10.65c-.38-8.39-.68-16.78-1.11-25.16-.29-5.55-.71-11.09-1.2-16.62A5.67,5.67,0,0,1,112,142.5c2-1.81,3.58-4.08,5.44-6.06C118.43,135.33,119.66,134.4,120.91,133.3Zm103.7,45.82c-1,1.15-1.73.69-2.38-.07-1.43-1.68-2.81-3.4-4.28-5-4.35-4.82-8.77-9.59-13.09-14.43-2-2.22-4.23-2.75-7.12-2.09a60.34,60.34,0,0,1-10.32,1.6,12.62,12.62,0,0,0-9.12,4.48,31.44,31.44,0,0,0-3.05,3.87c-4.56,7.05-6.44,14.4-1.78,22.16,2.85,4.74,5.89,9.37,9,13.94q10.43,15.24,21.05,30.37A239,239,0,0,0,224.2,259a12.73,12.73,0,0,0,3.42,2.24c1.47.78,3.18,1.18,4.49,2.15a11,11,0,0,1,3,3.55c1.36,2.51.37,4.84-1.16,6.95-.61.84-.89,1.58,0,2.39.68.66,1.73,1.2,2,2,.91,2.85,3.12,4.63,4.89,6.81,3.09,3.8,5.93,7.82,8.89,11.73,5,6.53,9.87,13.08,14.91,19.54,5.42,7,10.94,13.83,16.46,20.7q8.64,10.79,17.39,21.48c1.14,1.41,2.38,2.71,4.39,2.86,3.71.27,7.4.8,11.11.88a12.94,12.94,0,0,1,10.43,5.29,45.2,45.2,0,0,0,5.59,5.65,3.5,3.5,0,0,0,2.7.69,36,36,0,0,0,6.58-2.1c2.25-1,4.55-2.06,6-4.29.91-1.42,1.78-2.88,2.75-4.26a2.22,2.22,0,0,0,.2-2.63q-3.58-6.84-7-13.75a7.22,7.22,0,0,1-.5-5.76c1.43-4.23,1.56-8-2.07-11.64-4.07-4-7.59-8.66-11.31-13.05q-7.68-9-15.31-18.14c-3.62-4.34-7.12-8.78-10.75-13.11-5-6-10.75-11.28-15-17.93a61.47,61.47,0,0,0-6.48-8,16.91,16.91,0,0,1-3.81-7.59c-.61-2.47-.93-5-1.43-7.51a9.74,9.74,0,0,0-.92-3.23c-2.39-3.78-4.9-7.47-7.4-11.17-2.92-4.3-6.32-8.34-8.72-12.91a165.88,165.88,0,0,0-12.46-20.58c-5.27-7.27-10.45-14.63-16.06-21.64a222.88,222.88,0,0,0-15-16.8c-3.76-3.81-8.1-7.14-13.44-8.52-4.29-1.12-8.66-2-13-2.75a20.18,20.18,0,0,0-6.71-.16c-8.42,1.46-14.47,6.48-18.82,13.66a12.69,12.69,0,0,0-2,5.5,32.07,32.07,0,0,0,1.56,13.06,9.88,9.88,0,0,1,.3,1.82l-.56.13c-2.66-3.57-3.31-7.92-3.87-12.14-1.31-10,5.08-16.08,11.67-22-.13-.1-.21-.21-.3-.22a11.48,11.48,0,0,0-1.17-.07,40.71,40.71,0,0,0-10.71,2c-6.67,2-12.29,5.93-18.37,9-3.64,1.83-6,5-8,8.52-1.88,3.31-2,2.74,1.2,4.29,1.77.86,3,1.95,3,4.18,0,2.07.39,4.13.61,6.2a3.24,3.24,0,0,0,.53-1.48c.14-1.35.18-2.71.39-4.05.24-1.54,1-2.49,2.76-2.13a15.25,15.25,0,0,0,2.86.3c7.6.05,12.83,4,16.61,10.27,2.74,4.59,3.53,9.89,5.45,14.78,1.49,3.82,2.51,7.95,4.63,11.4,4,6.49,8.56,12.63,13,18.84,4.1,5.75,8.29,11.43,12.51,17.09,3.2,4.3,6.52,8.51,9.76,12.77q5.32,7,10.57,14.09c1,1.33,2,1.33,3-.17,2-3,4-6.13,6.15-9.13a1.69,1.69,0,0,0-.14-2.58A240.85,240.85,0,0,1,203,235.79c-5.45-7.7-11-15.33-16.41-23.06q-6-8.61-11.8-17.4A36.09,36.09,0,0,1,169,181.52a5.84,5.84,0,0,1,0-1.67,31,31,0,0,1,9.75-18.94,11.24,11.24,0,0,1,6.54-3.24c4.52-.55,9-1.35,13.53-2,1.6-.22,3.3-.57,4.7.65s3,2.57,4.36,4c2.39,2.48,4.7,5,7,7.61C218.05,171.61,221.27,175.32,224.61,179.12Zm125.81,190c-.84.6-1.25.94-1.7,1.22-5.17,3.28-10.18,6.86-15.56,9.75-4.63,2.5-9.67,4.23-14.54,6.28s-9.48,1-12.87-2.66q-12.36-13.38-24-27.37c-5.8-6.92-11.16-14.22-16.67-21.38-4.69-6.09-9.3-12.25-14-18.33-3.79-4.92-7.42-10-11.58-14.59-5.93-6.53-12.05-12.89-16.58-20.53a15.19,15.19,0,0,0-7.82-7c-1.28-.49-2.3-1.9-3.21-3.07-1.76-2.28-3.28-4.73-5-7-2.11-2.79-4.38-5.45-6.52-8.23-3.65-4.73-7.25-9.51-10.86-14.28-2.07-2.74-4.18-5.46-6.16-8.28q-6.27-9-12.4-18c-1.88-2.75-4.09-5.36-5.4-8.36-2-4.54-3.31-9.37-4.94-14.06-1-2.82-1.89-5.67-3.05-8.41a16.71,16.71,0,0,0-9.79-9.49c-2.67-1-5.73-.88-8.62-1.17-.24,0-.77.64-.79,1-.18,3-.34,6-.36,9,0,1.05-.28,1.66-1.3,1.79-1.37.18-1.74,1-1.69,2.26.1,2.72.12,5.44.29,8.16a2,2,0,0,0,1,1.35,9.62,9.62,0,0,1,4.71,6.43c.59,2.35,1.24,4.68,1.73,7.05s1.89,3,4,3.37c2.45.43,5,.66,7.1,2.42.27.23,1.06-.09,1.59-.24,1.09-.31,2.26-1.12,3.25-.93,1.57.3,3,1.38,4.53,1.89,3.1,1,3.66,3.34,3.47,6.15-.08,1.13-.18,2.27-.37,3.38a6.43,6.43,0,0,1-7.68,5.16,28.23,28.23,0,0,0-2.74-.79,6.32,6.32,0,0,1-5-3.56c-.19-.35-.73-.5-1.12-.75l-.51.29a24.36,24.36,0,0,0,.82,3.83c.95,2.54,2.15,5,3.13,7.52q3.81,9.81,7.49,19.66a4.39,4.39,0,0,0,2.8,2.68c2.81,1.11,5.55,2.45,8.37,3.55,3.45,1.33,6.95,2.53,10.43,3.75.9.31,1.3-.23,1.57-1.06,1.34-4.2,2.74-8.38,4.1-12.58.51-1.57,1.2-1.76,2.34-.5,2.5,2.77,4.94,5.59,7.42,8.38.64.73.65,1.36-.38,2l-7.92-9c-.23.58-.37.88-.47,1.18-1,3.06-1.87,6.21-3.16,9.15-.94,2.15-1.11,3.84.5,5.71a208.71,208.71,0,0,1,15,19.6,2.09,2.09,0,0,0,2.43,1,19,19,0,0,1,3.21-.13,9.51,9.51,0,0,1,8.38,4.21c.87,1.18,1.82,2.29,2.75,3.43,3.09,3.75,6.25,7.44,9.26,11.25,2.84,3.59,5.42,7.39,8.33,10.92,5.32,6.45,10.8,12.76,16.21,19.13,3.11,3.66,6.17,7.37,9.33,11,3.68,4.21,7.33,8.45,11.2,12.47,4.53,4.73,9.26,9.27,13.94,13.84,2.3,2.25,4.69,4.4,7,6.61a3.74,3.74,0,0,0,3.71,1,1.89,1.89,0,0,1,2.49,1.41c.45,1.28,1,2.53,1.45,3.79a2.61,2.61,0,0,0,2.5,1.89c3.25.22,6.5.55,9.74.9,5.6.62,10.84,2.19,15,6.27,1.73,1.7,3.27,3.6,5,5.34.42.43,1.15,1,1.64.87,3-.54,6.11-.41,7.67-4.44,1.48-3.83,4.32-7.13,6.64-10.61a6,6,0,0,0,1.16-5c-.28-1.21-.33-2.47-.6-3.69a23.15,23.15,0,0,1-.17-10.79C349.75,371.32,350,370.48,350.42,369.12Zm-13.37,6.51c-2.48.47-4.5.77-6.47,1.26a4.16,4.16,0,0,1-4.75-1.62c-2.15-2.84-4.29-5.68-6.55-8.43a4.37,4.37,0,0,0-2.46-1.5c-3.16-.47-6.37-.6-9.53-1-3.35-.45-6.92-.46-9.3-3.55-.52-.67-1.15-1.25-1.68-1.91C288.68,349.41,281,340,273.45,330.5c-6.63-8.38-13.07-16.89-19.58-25.37-4.71-6.13-9.37-12.31-14.07-18.45-2.52-3.3-5.05-6.61-7.66-9.84-.18-.23-1.27-.1-1.56.21-1.34,1.45-2.46,3.12-3.83,4.53-.84.87-1,1.56-.27,2.48,2.75,3.51,5.28,7.24,8.31,10.49a233.4,233.4,0,0,1,17.14,20.52c6.7,9.1,13.48,18.14,20.42,27.05,5.17,6.64,10.58,13.09,16,19.51,5,5.91,10.15,11.67,15.24,17.5,2.21,2.54,4.58,4.87,7.87,5.92,1.75.56,3.5.77,5-.1-.47-1-.79-1.65-1.29-2.72,3.15.84,5.76,2.06,7.94-.17.77.05,1.48.31,2,.08,3.64-1.75,7.24-3.6,10.84-5.44A7.5,7.5,0,0,0,337.05,375.63Zm-217.67-237-.52-.18c-1.66,1.76-3.38,3.48-5,5.33a4.17,4.17,0,0,0-1.08,2.49q.17,8.92.6,17.85c.43,8.84,1,17.68,1.45,26.51.07,1.08.22,2.16.31,3.12,2-1.07,3.87-2,5.63-3.05a2.17,2.17,0,0,0,.74-1.64c0-2.84-.16-5.67-.32-8.51-.61-10.42-1.29-20.84-1.83-31.27C119.22,145.77,119.38,142.21,119.38,138.66Zm6.77,32.41c-.41-11.87-.81-23.29-1.22-34.72l-.58-.19c-.55.83-1.48,1.63-1.56,2.52a48.7,48.7,0,0,0,0,6.94c.68,14,1.43,28,2.06,41.95.08,1.67.56,2.3,2.19,2.87,2.25.78,4.25,2.28,6.46,3.54,0-.4.11-1.09.1-1.77-.06-4.25-.08-8.5-.22-12.74a54.56,54.56,0,0,0-.59-6.26,2.55,2.55,0,0,0-1.2-1.48C130,170.82,128.37,169.57,126.15,171.07Zm23.24,54.46a6.08,6.08,0,0,0,.78-1.2c.56-1.47.9-3,1.57-4.46.83-1.77.7-2.38-1.19-2.81-2.24-.52-4.52-.91-6.78-1.36-2.89-.58-6-.58-8.36-2.75a47.74,47.74,0,0,1-3.65-3.74,1.35,1.35,0,0,0-2-.42,25.51,25.51,0,0,1-4.39,1.73c-1.34.38-1.42,1-.6,1.88a80,80,0,0,0,5.9,6.3c1.91,1.7,4,3.61,6.31,4.37C140.82,224.31,144.92,224.69,149.39,225.53Zm-26.56-26.06c1.18-.62,2.2-1.22,3.28-1.69a4.54,4.54,0,0,1,1.49-.12,6.19,6.19,0,0,1-1,1.33,13.07,13.07,0,0,1-1.75,1c-.87.5-1,1.14-.39,1.95a21.29,21.29,0,0,1,1.68,2.11c.21.34.1.89.14,1.35l-.58.14c-.8-1-1.55-2.05-2.42-3-.32-.35-1-.78-1.31-.66-1.28.51-2.48,1.21-3.75,1.86.19.37.25.64.41.76,1,.69,2,1.81,3,1.92a30.07,30.07,0,0,0,5.73-.39c.14,0,.28-.18.41-.29a8.44,8.44,0,0,0,2.25-8.54,2.49,2.49,0,0,0-.62-1,9.06,9.06,0,0,0-8.64-2.14c-3.26.88-4.93,5.4-3,8.42,1.13-.71,2.58-1.2,3.26-2.22.3-.46-.91-1.95-1.43-3,0,0-.08-.1-.07-.15,0-.4.06-.8.09-1.19.31.15.72.23.92.48C121.34,197.38,122,198.35,122.83,199.47ZM162.59,224a33.66,33.66,0,0,0-.67-3.68c-.6-2.09-2.81-3.44-4.5-2.89-3.93,1.29-5.43,4.05-5.61,8a4.15,4.15,0,0,0,4.91,4.42,8.4,8.4,0,0,0,5.48-4.19A6.91,6.91,0,0,0,162.59,224ZM135.5,156.73c3.87-1.57,4.07-2,4-5.39-.11-3.63-.07-7.26-.08-10.89,0-2.85,0-5.7,0-8.73-2.73,1.17-4.65,4.15-4.5,6.24.26,3.73.46,7.47.6,11.2C135.57,151.58,135.5,154,135.5,156.73Zm-5.61,6.3c1.72-2,2.76-3.69,2.6-6.11-.47-7.07-.7-14.16-1-21.24,0-.48-.14-1-.27-1.84-1.52,1.8-3.07,3-2.87,5.4.47,5.54.8,11.08,1.17,16.63C129.64,158.1,129.74,160.34,129.89,163ZM233.86,269a46.26,46.26,0,0,0-5.63,1.63,60.24,60.24,0,0,0-6.67,3.57c-.4.24-.72,1.54-.53,1.7a9.89,9.89,0,0,1,3.17,4.64c.08.27.46.44.71.67a3.14,3.14,0,0,0,.62-.42c2.28-2.49,4.6-4.95,6.77-7.52C233.21,272.14,234.22,271,233.86,269Zm-75.4-141.71c-2.56,1.41-4.08,3-3.74,6a43.79,43.79,0,0,1-.15,5.6c0,2.74,0,5.48,0,8.24,3.58-.5,4.13-1.12,4.05-4.41-.06-2.55-.12-5.1-.14-7.65S158.46,130,158.46,127.24Zm-16.23,25.69c2.42-.83,3.52-2,3.31-4.47-.25-2.92,0-5.88,0-8.83v-8.92l-.65-.15c-1.08,1-2.61,1.67-2.61,3.54C142.22,140.32,142.23,146.54,142.23,152.93Zm9.2-24.33c-2.51,2.46-2.56,2.46-2.68,5.51-.21,5.19-.37,10.38-.55,15.61,3.41-1.05,3.62-1.28,3.55-4.45-.08-3.39-.23-6.79-.31-10.18C151.4,133,151.43,131,151.43,128.6ZM350.48,350.69l-7.62-11.47c-.31,1.57-1,3-.81,4.39.51,4,3.07,7.09,4.66,10.35Zm4.08,5.94-4.84,2.88c1.69,1.94.4,3.74-.8,5.56-1,1.56-2,3.14-3.05,4.72l.36.3c3-2.26,6-4.43,8.42-7.36C356.75,360.2,356.75,358.76,354.56,356.63ZM163.92,127.49c-1.74.89-2.69,1.78-2.59,3.84.23,4.55.07,9.12.07,13.66,2.45-.16,2.45-.16,2.47-2.57,0-.34,0-.68,0-1Zm2.3,16.89c2.95.42,3.2.2,3.14-2.65q-.12-5.34-.22-10.68c0-.92,0-1.83,0-2.75l-.59-.19a8.44,8.44,0,0,0-1.17,2.5C166.91,135.16,166.6,139.72,166.22,144.38Zm7.35.83V129.59l-.45-.12a4.34,4.34,0,0,0-.6,1.3c-.33,4.3-.58,8.6-.93,12.89C171.45,145.3,172.22,145.5,173.57,145.21ZM137.9,210l.54-.3c-.09-.93-.18-1.85-.26-2.78-.2-2.55-.52-2.82-3-2.52-1.23.16-1.77,1.09-1,2C135.34,207.72,136.67,208.83,137.9,210Zm-.32-8.42a2.87,2.87,0,0,0-3-2.56C134.17,201.75,134.44,202,137.58,201.6Z"/><path class="cls-5" d="M224.61,179.12c-3.34-3.8-6.56-7.51-9.82-11.17-2.29-2.58-4.6-5.13-7-7.61-1.36-1.42-2.87-2.7-4.36-4s-3.1-.87-4.7-.65c-4.51.62-9,1.42-13.53,2a11.24,11.24,0,0,0-6.54,3.24,31,31,0,0,0-9.75,18.94,5.84,5.84,0,0,0,0,1.67,36.09,36.09,0,0,0,5.84,13.81q5.79,8.78,11.8,17.4c5.41,7.73,11,15.36,16.41,23.06a240.85,240.85,0,0,0,20.31,24.52,1.69,1.69,0,0,1,.14,2.58c-2.11,3-4.11,6.08-6.15,9.13-1,1.5-2,1.5-3,.17q-5.24-7.08-10.57-14.09c-3.24-4.26-6.56-8.47-9.76-12.77-4.22-5.66-8.41-11.34-12.51-17.09-4.43-6.21-9-12.35-13-18.84-2.12-3.45-3.14-7.58-4.63-11.4-1.92-4.89-2.71-10.19-5.45-14.78-3.78-6.32-9-10.22-16.61-10.27a15.25,15.25,0,0,1-2.86-.3c-1.77-.36-2.52.59-2.76,2.13-.21,1.34-.25,2.7-.39,4.05a3.24,3.24,0,0,1-.53,1.48c-.22-2.07-.59-4.13-.61-6.2,0-2.23-1.25-3.32-3-4.18-3.21-1.55-3.08-1-1.2-4.29,2-3.51,4.39-6.69,8-8.52,6.08-3.06,11.7-7,18.37-9a40.71,40.71,0,0,1,10.71-2,11.48,11.48,0,0,1,1.17.07c.09,0,.17.12.3.22-6.59,5.94-13,12-11.67,22,.56,4.22,1.21,8.57,3.87,12.14l.56-.13a9.88,9.88,0,0,0-.3-1.82,32.07,32.07,0,0,1-1.56-13.06,12.69,12.69,0,0,1,2-5.5c4.35-7.18,10.4-12.2,18.82-13.66a20.18,20.18,0,0,1,6.71.16c4.37.74,8.74,1.63,13,2.75,5.34,1.38,9.68,4.71,13.44,8.52a222.88,222.88,0,0,1,15,16.8c5.61,7,10.79,14.37,16.06,21.64a165.88,165.88,0,0,1,12.46,20.58c2.4,4.57,5.8,8.61,8.72,12.91,2.5,3.7,5,7.39,7.4,11.17a9.74,9.74,0,0,1,.92,3.23c.5,2.5.82,5,1.43,7.51a16.91,16.91,0,0,0,3.81,7.59,61.47,61.47,0,0,1,6.48,8c4.23,6.65,10,12,15,17.93,3.63,4.33,7.13,8.77,10.75,13.11q7.61,9.1,15.31,18.14c3.72,4.39,7.24,9,11.31,13.05,3.63,3.6,3.5,7.41,2.07,11.64a7.22,7.22,0,0,0,.5,5.76q3.45,6.9,7,13.75a2.22,2.22,0,0,1-.2,2.63c-1,1.38-1.84,2.84-2.75,4.26-1.41,2.23-3.71,3.3-6,4.29a36,36,0,0,1-6.58,2.1,3.5,3.5,0,0,1-2.7-.69,45.2,45.2,0,0,1-5.59-5.65,12.94,12.94,0,0,0-10.43-5.29c-3.71-.08-7.4-.61-11.11-.88-2-.15-3.25-1.45-4.39-2.86q-8.73-10.71-17.39-21.48c-5.52-6.87-11-13.74-16.46-20.7-5-6.46-10-13-14.91-19.54-3-3.91-5.8-7.93-8.89-11.73-1.77-2.18-4-4-4.89-6.81-.25-.8-1.3-1.34-2-2-.85-.81-.57-1.55,0-2.39,1.53-2.11,2.52-4.44,1.16-6.95a11,11,0,0,0-3-3.55c-1.31-1-3-1.37-4.49-2.15A12.73,12.73,0,0,1,224.2,259a239,239,0,0,1-20.67-25.12q-10.67-15.09-21.05-30.37c-3.12-4.57-6.16-9.2-9-13.94-4.66-7.76-2.78-15.11,1.78-22.16a31.44,31.44,0,0,1,3.05-3.87,12.62,12.62,0,0,1,9.12-4.48,60.34,60.34,0,0,0,10.32-1.6c2.89-.66,5.13-.13,7.12,2.09,4.32,4.84,8.74,9.61,13.09,14.43,1.47,1.64,2.85,3.36,4.28,5C222.88,179.81,223.57,180.27,224.61,179.12ZM232.52,247c4.19-.23,8.15-1.15,11.4-3.79,2.92-2.38,5.44-5.23,5.55-9.34A28.52,28.52,0,0,0,246.53,220c-2.23-4.37-4.83-8.56-7.47-12.7-4-6.25-8.53-11.92-15.67-15-4.63-2-9-3-14-1-6.3,2.58-9.32,6.94-8.87,13.63.27,4.12.93,8.22,1.61,12.3a27.63,27.63,0,0,0,4.26,10.83,60,60,0,0,0,11.35,12.95A24.79,24.79,0,0,0,232.52,247Zm42.71,70.23c-2.81-3.58-5.4-7.07-8.19-10.39-5.72-6.77-11.85-13.21-16.61-20.77-.22-.35-.85-.45-1.28-.67,0,.51-.23,1.14,0,1.51a42.31,42.31,0,0,0,3.29,5.14c3.32,4.21,6.77,8.33,10.16,12.49,3.92,4.82,7.85,9.63,11.74,14.47q9.41,11.68,18.75,23.4c2.52,3.19,4.84,6.54,7.36,9.74.4.52,1.33.63,2,.93a6.64,6.64,0,0,0-.57-1.88c-1.05-1.53-2.22-3-3.35-4.47-5.48-7.11-10.93-14.25-16.44-21.34-1.75-2.25-3.65-4.39-5.62-6.74,1.1-.78,2-1.45,2.93-2.06,6.29-4.07,12.6-8.11,18.87-12.23.48-.32.69-1.08,1-1.63a4.73,4.73,0,0,0-1.88.22c-2.56,1.53-5.06,3.17-7.56,4.79Zm-39.3-42.56.1.71a5.8,5.8,0,0,0,2,0c3.55-1.44,7.14-2.82,10.57-4.52,7.56-3.77,15-7.72,22.53-11.64.41-.22.58-.89.86-1.35-.55,0-1.22-.31-1.64-.09-2.51,1.26-4.92,2.74-7.45,4-8.36,4.06-16.76,8-25.14,12.05Zm-2.58-13.94c.29-.15.48-.27.69-.36l18.13-8.17q9.38-4.23,18.73-8.5c.36-.17.56-.69.83-1-.47-.11-1-.45-1.4-.3-1.36.51-2.67,1.19-4,1.8-4.55,2.07-9.1,4.15-13.66,6.2-6.26,2.81-12.53,5.59-18.8,8.39a2.61,2.61,0,0,0-1,.62,1.15,1.15,0,0,0-.11.92C232.83,260.43,233.16,260.56,233.35,260.69Zm57,54.69c.86-.51,1.35-.79,1.82-1.09,3.34-2.16,6.68-4.32,10-6.53.35-.23.47-.83.69-1.25-.54-.1-1.25-.46-1.6-.24-3.62,2.25-7.19,4.6-10.77,6.93-.23.15-.58.4-.56.58A8.63,8.63,0,0,0,290.3,315.38Z"/><path class="cls-5" d="M350.42,369.12c-.4,1.36-.67,2.2-.88,3.05a23.15,23.15,0,0,0,.17,10.79c.27,1.22.32,2.48.6,3.69a6,6,0,0,1-1.16,5c-2.32,3.48-5.16,6.78-6.64,10.61-1.56,4-4.63,3.9-7.67,4.44-.49.09-1.22-.44-1.64-.87-1.69-1.74-3.23-3.64-5-5.34-4.15-4.08-9.39-5.65-15-6.27-3.24-.35-6.49-.68-9.74-.9a2.61,2.61,0,0,1-2.5-1.89c-.49-1.26-1-2.51-1.45-3.79a1.89,1.89,0,0,0-2.49-1.41,3.74,3.74,0,0,1-3.71-1c-2.34-2.21-4.73-4.36-7-6.61-4.68-4.57-9.41-9.11-13.94-13.84-3.87-4-7.52-8.26-11.2-12.47-3.16-3.61-6.22-7.32-9.33-11-5.41-6.37-10.89-12.68-16.21-19.13-2.91-3.53-5.49-7.33-8.33-10.92-3-3.81-6.17-7.5-9.26-11.25-.93-1.14-1.88-2.25-2.75-3.43a9.51,9.51,0,0,0-8.38-4.21,19,19,0,0,0-3.21.13,2.09,2.09,0,0,1-2.43-1,208.71,208.71,0,0,0-15-19.6c-1.61-1.87-1.44-3.56-.5-5.71,1.29-2.94,2.12-6.09,3.16-9.15.1-.3.24-.6.47-1.18l7.92,9c1-.67,1-1.3.38-2-2.48-2.79-4.92-5.61-7.42-8.38-1.14-1.26-1.83-1.07-2.34.5-1.36,4.2-2.76,8.38-4.1,12.58-.27.83-.67,1.37-1.57,1.06-3.48-1.22-7-2.42-10.43-3.75-2.82-1.1-5.56-2.44-8.37-3.55a4.39,4.39,0,0,1-2.8-2.68Q157,248.76,153.15,239c-1-2.53-2.18-5-3.13-7.52a24.36,24.36,0,0,1-.82-3.83l.51-.29c.39.25.93.4,1.12.75a6.32,6.32,0,0,0,5,3.56,28.23,28.23,0,0,1,2.74.79,6.43,6.43,0,0,0,7.68-5.16c.19-1.11.29-2.25.37-3.38.19-2.81-.37-5.14-3.47-6.15-1.55-.51-3-1.59-4.53-1.89-1-.19-2.16.62-3.25.93-.53.15-1.32.47-1.59.24-2.07-1.76-4.65-2-7.1-2.42-2.12-.37-3.55-1.11-4-3.37s-1.14-4.7-1.73-7.05a9.62,9.62,0,0,0-4.71-6.43,2,2,0,0,1-1-1.35c-.17-2.72-.19-5.44-.29-8.16-.05-1.24.32-2.08,1.69-2.26,1-.13,1.29-.74,1.3-1.79,0-3,.18-6,.36-9,0-.37.55-1,.79-1,2.89.29,6,.2,8.62,1.17a16.71,16.71,0,0,1,9.79,9.49c1.16,2.74,2.07,5.59,3.05,8.41,1.63,4.69,3,9.52,4.94,14.06,1.31,3,3.52,5.61,5.4,8.36q6.15,9,12.4,18c2,2.82,4.09,5.54,6.16,8.28,3.61,4.77,7.21,9.55,10.86,14.28,2.14,2.78,4.41,5.44,6.52,8.23,1.74,2.3,3.26,4.75,5,7,.91,1.17,1.93,2.58,3.21,3.07a15.19,15.19,0,0,1,7.82,7c4.53,7.64,10.65,14,16.58,20.53,4.16,4.59,7.79,9.67,11.58,14.59,4.7,6.08,9.31,12.24,14,18.33,5.51,7.16,10.87,14.46,16.67,21.38q11.68,14,24,27.37c3.39,3.68,8,4.71,12.87,2.66s9.91-3.78,14.54-6.28c5.38-2.89,10.39-6.47,15.56-9.75C349.17,370.06,349.58,369.72,350.42,369.12ZM336,396.59c3.71-1.52,5.1-4.29,5.86-7.45.94-3.9-.92-6.27-4.91-6.68a1.69,1.69,0,0,0-2.07,1.42,16.54,16.54,0,0,0-.49,8.4A29.73,29.73,0,0,0,336,396.59Z"/><path class="cls-5" d="M337.05,375.63a7.5,7.5,0,0,1-1.14,1.07c-3.6,1.84-7.2,3.69-10.84,5.44-.48.23-1.19,0-2-.08-2.18,2.23-4.79,1-7.94.17.5,1.07.82,1.74,1.29,2.72-1.49.87-3.24.66-5,.1-3.29-1.05-5.66-3.38-7.87-5.92-5.09-5.83-10.25-11.59-15.24-17.5-5.43-6.42-10.84-12.87-16-19.51-6.94-8.91-13.72-17.95-20.42-27.05a233.4,233.4,0,0,0-17.14-20.52c-3-3.25-5.56-7-8.31-10.49-.72-.92-.57-1.61.27-2.48,1.37-1.41,2.49-3.08,3.83-4.53.29-.31,1.38-.44,1.56-.21,2.61,3.23,5.14,6.54,7.66,9.84,4.7,6.14,9.36,12.32,14.07,18.45,6.51,8.48,12.95,17,19.58,25.37,7.53,9.52,15.23,18.91,22.86,28.35.53.66,1.16,1.24,1.68,1.91,2.38,3.09,5.95,3.1,9.3,3.55,3.16.43,6.37.56,9.53,1a4.37,4.37,0,0,1,2.46,1.5c2.26,2.75,4.4,5.59,6.55,8.43a4.16,4.16,0,0,0,4.75,1.62C332.55,376.4,334.57,376.1,337.05,375.63ZM320.93,374c.05-2.24-1.82-4.48-3.83-4.57a5,5,0,0,0-4.91,4.93c-.14,3.44,1.1,5.35,3.49,5.38C318.35,379.75,320.85,377,320.93,374Z"/><path class="cls-5" d="M119.38,138.66c0,3.55-.16,7.11,0,10.65.54,10.43,1.22,20.85,1.83,31.27.16,2.84.28,5.67.32,8.51a2.17,2.17,0,0,1-.74,1.64c-1.76,1.07-3.62,2-5.63,3.05-.09-1-.24-2-.31-3.12-.49-8.83-1-17.67-1.45-26.51q-.44-8.91-.6-17.85a4.17,4.17,0,0,1,1.08-2.49c1.57-1.85,3.29-3.57,5-5.33Z"/><path class="cls-5" d="M126.15,171.07c2.22-1.5,3.8-.25,5.4.66a2.55,2.55,0,0,1,1.2,1.48,54.56,54.56,0,0,1,.59,6.26c.14,4.24.16,8.49.22,12.74,0,.68-.07,1.37-.1,1.77-2.21-1.26-4.21-2.76-6.46-3.54-1.63-.57-2.11-1.2-2.19-2.87-.63-14-1.38-28-2.06-41.95a48.7,48.7,0,0,1,0-6.94c.08-.89,1-1.69,1.56-2.52l.58.19C125.34,147.78,125.74,159.2,126.15,171.07Z"/><path class="cls-5" d="M149.39,225.53c-4.47-.84-8.57-1.22-12.39-2.46-2.33-.76-4.4-2.67-6.31-4.37a80,80,0,0,1-5.9-6.3c-.82-.9-.74-1.5.6-1.88a25.51,25.51,0,0,0,4.39-1.73,1.35,1.35,0,0,1,2,.42,47.74,47.74,0,0,0,3.65,3.74c2.36,2.17,5.47,2.17,8.36,2.75,2.26.45,4.54.84,6.78,1.36,1.89.43,2,1,1.19,2.81-.67,1.42-1,3-1.57,4.46A6.08,6.08,0,0,1,149.39,225.53Z"/><path class="cls-5" d="M122.83,199.47c-.82-1.12-1.49-2.09-2.23-3-.2-.25-.61-.33-.92-.48,0,.39-.07.79-.09,1.19,0,.05,0,.1.07.15.52,1,1.73,2.51,1.43,3-.68,1-2.13,1.51-3.26,2.22-1.91-3-.24-7.54,3-8.42a9.06,9.06,0,0,1,8.64,2.14,2.49,2.49,0,0,1,.62,1,8.44,8.44,0,0,1-2.25,8.54c-.13.11-.27.27-.41.29a30.07,30.07,0,0,1-5.73.39c-1.08-.11-2-1.23-3-1.92-.16-.12-.22-.39-.41-.76,1.27-.65,2.47-1.35,3.75-1.86.31-.12,1,.31,1.31.66.87.95,1.62,2,2.42,3l.58-.14c0-.46.07-1-.14-1.35A21.29,21.29,0,0,0,124.5,202c-.65-.81-.48-1.45.39-1.95a13.07,13.07,0,0,0,1.75-1,6.19,6.19,0,0,0,1-1.33,4.54,4.54,0,0,0-1.49.12C125,198.25,124,198.85,122.83,199.47Z"/><path class="cls-5" d="M162.59,224a6.91,6.91,0,0,1-.39,1.64,8.4,8.4,0,0,1-5.48,4.19,4.15,4.15,0,0,1-4.91-4.42c.18-3.93,1.68-6.69,5.61-8,1.69-.55,3.9.8,4.5,2.89A33.66,33.66,0,0,1,162.59,224Z"/><path class="cls-5" d="M135.5,156.73c0-2.72.07-5.15,0-7.57-.14-3.73-.34-7.47-.6-11.2-.15-2.09,1.77-5.07,4.5-6.24,0,3,0,5.88,0,8.73,0,3.63,0,7.26.08,10.89C139.57,154.75,139.37,155.16,135.5,156.73Z"/><path class="cls-5" d="M129.89,163c-.15-2.69-.25-4.93-.4-7.16-.37-5.55-.7-11.09-1.17-16.63-.2-2.39,1.35-3.6,2.87-5.4.13.89.24,1.36.27,1.84.33,7.08.56,14.17,1,21.24C132.65,159.34,131.61,161,129.89,163Z"/><path class="cls-5" d="M233.86,269c.36,2-.65,3.19-1.56,4.27-2.17,2.57-4.49,5-6.77,7.52a3.14,3.14,0,0,1-.62.42c-.25-.23-.63-.4-.71-.67a9.89,9.89,0,0,0-3.17-4.64c-.19-.16.13-1.46.53-1.7a60.24,60.24,0,0,1,6.67-3.57A46.26,46.26,0,0,1,233.86,269Z"/><path class="cls-5" d="M158.46,127.24c0,2.73,0,5.26,0,7.79s.08,5.1.14,7.65c.08,3.29-.47,3.91-4.05,4.41,0-2.76,0-5.5,0-8.24a43.79,43.79,0,0,0,.15-5.6C154.38,130.28,155.9,128.65,158.46,127.24Z"/><path class="cls-5" d="M142.23,152.93c0-6.39,0-12.61,0-18.83,0-1.87,1.53-2.53,2.61-3.54l.65.15v8.92c0,3-.21,5.91,0,8.83C145.75,150.93,144.65,152.1,142.23,152.93Z"/><path class="cls-5" d="M151.43,128.6c0,2.35,0,4.42,0,6.49.08,3.39.23,6.79.31,10.18.07,3.17-.14,3.4-3.55,4.45.18-5.23.34-10.42.55-15.61C148.87,131.06,148.92,131.06,151.43,128.6Z"/><path class="cls-5" d="M350.48,350.69,346.71,354c-1.59-3.26-4.15-6.36-4.66-10.35-.17-1.36.5-2.82.81-4.39Z"/><path class="cls-5" d="M354.56,356.63c2.19,2.13,2.19,3.57.09,6.1-2.43,2.93-5.45,5.1-8.42,7.36l-.36-.3c1-1.58,2-3.16,3.05-4.72,1.2-1.82,2.49-3.62.8-5.56Z"/><path class="cls-5" d="M163.92,127.49V141.4c0,.34,0,.68,0,1,0,2.41,0,2.41-2.47,2.57,0-4.54.16-9.11-.07-13.66C161.23,129.27,162.18,128.38,163.92,127.49Z"/><path class="cls-5" d="M166.22,144.38c.38-4.66.69-9.22,1.16-13.77a8.44,8.44,0,0,1,1.17-2.5l.59.19c0,.92,0,1.83,0,2.75q.11,5.34.22,10.68C169.42,144.58,169.17,144.8,166.22,144.38Z"/><path class="cls-5" d="M173.57,145.21c-1.35.29-2.12.09-2-1.55.35-4.29.6-8.59.93-12.89a4.34,4.34,0,0,1,.6-1.3l.45.12Z"/><path class="cls-5" d="M137.9,210c-1.23-1.19-2.56-2.3-3.67-3.59-.78-.92-.24-1.85,1-2,2.44-.3,2.76,0,3,2.52.08.93.17,1.85.26,2.78Z"/><path class="cls-5" d="M137.58,201.6c-3.14.41-3.41.15-3-2.56A2.87,2.87,0,0,1,137.58,201.6Z"/><path d="M232.52,247a24.79,24.79,0,0,1-14.76-5.89,60,60,0,0,1-11.35-12.95,27.63,27.63,0,0,1-4.26-10.83c-.68-4.08-1.34-8.18-1.61-12.3-.45-6.69,2.57-11.05,8.87-13.63,4.93-2,9.35-1,14,1,7.14,3,11.67,8.7,15.67,15,2.64,4.14,5.24,8.33,7.47,12.7a28.52,28.52,0,0,1,2.94,13.83c-.11,4.11-2.63,7-5.55,9.34C240.67,245.81,236.71,246.73,232.52,247Zm2.77-38.59a16.89,16.89,0,0,0-1.25-1.92c-2.06-2.25-4.06-4.56-6.27-6.66a23.88,23.88,0,0,0-13-6.7,12.62,12.62,0,0,0-7.19.86c-4.29,2-5.69,5.84-5.62,10.23a59.35,59.35,0,0,0,3.07,18.2,20.74,20.74,0,0,0,1.18,2.37c1.14-2.12,2.79-2.67,4.59-2.06a3.4,3.4,0,0,1,2,2.14c.38,2.71-1.47,3.7-4.16,3.79.69,1,1.09,1.68,1.57,2.29,5,6.39,10.42,12.31,18.79,14.14a16.38,16.38,0,0,0,14.37-3.58,6.21,6.21,0,0,0,2.21-3.46,22.18,22.18,0,0,0,0-6.9c-.92-5.36-3.32-10.21-5.7-15-.58-1.17-1.21-2.31-1.91-3.64-1.07,2.41-1.95,2.92-4.07,2.61a3.41,3.41,0,0,1-2.68-2.88C231.2,209.62,233,208.89,235.29,208.37Z"/><path d="M275.23,317.19l14.62-9.49c2.5-1.62,5-3.26,7.56-4.79a4.73,4.73,0,0,1,1.88-.22c-.33.55-.54,1.31-1,1.63-6.27,4.12-12.58,8.16-18.87,12.23-.94.61-1.83,1.28-2.93,2.06,2,2.35,3.87,4.49,5.62,6.74,5.51,7.09,11,14.23,16.44,21.34,1.13,1.48,2.3,2.94,3.35,4.47a6.64,6.64,0,0,1,.57,1.88c-.68-.3-1.61-.41-2-.93-2.52-3.2-4.84-6.55-7.36-9.74q-9.31-11.75-18.75-23.4c-3.89-4.84-7.82-9.65-11.74-14.47-3.39-4.16-6.84-8.28-10.16-12.49a42.31,42.31,0,0,1-3.29-5.14c-.22-.37,0-1,0-1.51.43.22,1.06.32,1.28.67,4.76,7.56,10.89,14,16.61,20.77C269.83,310.12,272.42,313.61,275.23,317.19Z"/><path d="M235.93,274.63l1.83-.91c8.38-4,16.78-8,25.14-12.05,2.53-1.22,4.94-2.7,7.45-4,.42-.22,1.09.05,1.64.09-.28.46-.45,1.13-.86,1.35-7.49,3.92-15,7.87-22.53,11.64-3.43,1.7-7,3.08-10.57,4.52a5.8,5.8,0,0,1-2,0Z"/><path d="M233.35,260.69c-.19-.13-.52-.26-.57-.45a1.15,1.15,0,0,1,.11-.92,2.61,2.61,0,0,1,1-.62c6.27-2.8,12.54-5.58,18.8-8.39,4.56-2.05,9.11-4.13,13.66-6.2,1.33-.61,2.64-1.29,4-1.8.38-.15.93.19,1.4.3-.27.36-.47.88-.83,1q-9.34,4.29-18.73,8.5L234,260.33C233.83,260.42,233.64,260.54,233.35,260.69Z"/><path d="M290.3,315.38a8.63,8.63,0,0,1-.43-1.6c0-.18.33-.43.56-.58,3.58-2.33,7.15-4.68,10.77-6.93.35-.22,1.06.14,1.6.24-.22.42-.34,1-.69,1.25-3.31,2.21-6.65,4.37-10,6.53C291.65,314.59,291.16,314.87,290.3,315.38Z"/><path d="M336,396.59a29.73,29.73,0,0,1-1.61-4.31,16.54,16.54,0,0,1,.49-8.4,1.69,1.69,0,0,1,2.07-1.42c4,.41,5.85,2.78,4.91,6.68C341.13,392.3,339.74,395.07,336,396.59Zm-.11-11.92v8.27C337.87,390.85,338.24,386.87,335.92,384.67Z"/><path d="M320.93,374c-.08,3-2.58,5.78-5.25,5.74-2.39,0-3.63-1.94-3.49-5.38a5,5,0,0,1,4.91-4.93C319.11,369.49,321,371.73,320.93,374ZM316,371.56l-.13.67a4.53,4.53,0,0,0,1.56.34c.29-.05.5-.66.75-1Zm.55,4.52-.92-.11-.46,2c.46-.08,1.2,0,1.32-.27A4.08,4.08,0,0,0,316.54,376.08Z"/><path class="cls-5" d="M235.29,208.37c-2.26.52-4.09,1.25-4,3.79a3.41,3.41,0,0,0,2.68,2.88c2.12.31,3-.2,4.07-2.61.7,1.33,1.33,2.47,1.91,3.64,2.38,4.83,4.78,9.68,5.7,15a22.18,22.18,0,0,1,0,6.9,6.21,6.21,0,0,1-2.21,3.46,16.38,16.38,0,0,1-14.37,3.58c-8.37-1.83-13.77-7.75-18.79-14.14-.48-.61-.88-1.28-1.57-2.29,2.69-.09,4.54-1.08,4.16-3.79a3.4,3.4,0,0,0-2-2.14c-1.8-.61-3.45-.06-4.59,2.06a20.74,20.74,0,0,1-1.18-2.37,59.35,59.35,0,0,1-3.07-18.2c-.07-4.39,1.33-8.27,5.62-10.23a12.62,12.62,0,0,1,7.19-.86,23.88,23.88,0,0,1,13,6.7c2.21,2.1,4.21,4.41,6.27,6.66A16.89,16.89,0,0,1,235.29,208.37Zm-30.68,4.26,1,.13a13.75,13.75,0,0,0,.23-2.11c-.2-4.87,2.74-8,6.11-10.72a8.23,8.23,0,0,1,3.44-1.26c2.76-.58,5.14.6,7.49,1.88a3.73,3.73,0,0,0,1.51.1c-.2-.46-.28-1.12-.64-1.34a13.91,13.91,0,0,0-8.15-2.23c-5.22.26-9.23,5.82-10.56,9.63C204.38,208.51,204.71,210.65,204.61,212.63Z"/><path class="cls-5" d="M335.92,384.67c2.32,2.2,1.95,6.18,0,8.27Z"/><path class="cls-5" d="M316,371.56h2.18c-.25.35-.46,1-.75,1a4.53,4.53,0,0,1-1.56-.34Z"/><path class="cls-5" d="M316.54,376.08a4.08,4.08,0,0,1-.06,1.61c-.12.25-.86.19-1.32.27l.46-2Z"/><path d="M204.61,212.63c.1-2-.23-4.12.39-5.92,1.33-3.81,5.34-9.37,10.56-9.63a13.91,13.91,0,0,1,8.15,2.23c.36.22.44.88.64,1.34a3.73,3.73,0,0,1-1.51-.1c-2.35-1.28-4.73-2.46-7.49-1.88a8.23,8.23,0,0,0-3.44,1.26c-3.37,2.75-6.31,5.85-6.11,10.72a13.75,13.75,0,0,1-.23,2.11Z"/></g></g></svg>
