<svg id="Layer_1" data-name="Layer 1" xmlns="http://www.w3.org/2000/svg" viewBox="0 0 800 600"><defs><style>.cls-1{fill:#fff;}</style></defs><title>johan_logo1</title><path class="cls-1" d="M531.33,216l.15.28s0,.08,0,.13,0,.24,0,.38l.26,1.62,1.32-1,.34-.24c.23-.16.43-.31.62-.46s.48-.4.68-.53c.17.19.41.52.56.73l.66.9.82-.75.31-.29c.2-.19.4-.38.61-.55l.06,0,0,.13,3,11.23a3.46,3.46,0,0,0,.28.69l0,.05.36.82.85-.26c.74-.22,1.46-.46,2.17-.7a38.42,38.42,0,0,1,4.47-1.29,33.3,33.3,0,0,1,6.34-.62,31.12,31.12,0,0,1,8.37,1.14,30.59,30.59,0,0,1,11.55,6.18,33.77,33.77,0,0,0,3.7,2.59,35.86,35.86,0,0,1,3.1,2.12c2.69,2.12,5.35,4.38,7.93,6.57q1.65,1.39,3.31,2.78c.82.69,1.66,1.36,2.48,2a56.51,56.51,0,0,1,5.23,4.52c2.5,2.54,4.92,5.26,7.27,7.88,1.39,1.55,2.82,3.16,4.26,4.72a18.58,18.58,0,0,0,2.07,1.83c.33.27.66.54,1,.82l1.18,1q4.57,4,9.15,7.94a6.51,6.51,0,0,1,2.05,3.18,38.08,38.08,0,0,0,2.77,6.66,6,6,0,0,0,1.69,1.82,8.38,8.38,0,0,1,.81.71A70.93,70.93,0,0,0,644,300c1.08.74,2.17,1.46,3.26,2.19,1.71,1.13,3.47,2.3,5.15,3.52,1,.73,2,1.58,2.91,2.4.79.69,1.61,1.4,2.46,2.06l.59.46c5.21,4,10.59,8.2,16,12.2,2,1.45,4,2.86,6,4.21,1.72,1.18,3.49,2.4,5.2,3.64,1.54,1.12,3,2.4,4.49,3.64l1.45,1.23a2.74,2.74,0,0,1,.68.79A18.16,18.16,0,0,0,697,342c.47.42.95.85,1.41,1.29,2.31,2.2,4.55,4.5,6.64,6.84a2.24,2.24,0,0,1,.36,1.57,8.72,8.72,0,0,1-1.18,3.49,8.3,8.3,0,0,0-1.25,7c.56,2.32,1.23,4.63,1.88,6.86.33,1.14.66,2.28,1,3.42l0,.08a3.63,3.63,0,0,1,.14.62c-.47,1.39-1,2.79-1.48,4.15s-1.06,2.94-1.57,4.43a47,47,0,0,0-1.53,5.31,2.45,2.45,0,0,1-1.73,2c-1.26.5-2.48,1-3.64,1.58l-.12,0a2.16,2.16,0,0,1-.47-.33l-.08-.06-1-.83a54.59,54.59,0,0,0-4.82-3.62,10.23,10.23,0,0,0-5.63-1.42c-1,0-1.9.07-2.81.13l-.42,0c-3.29.24-6.47.57-9.46,1l-.32,0a1.66,1.66,0,0,1-1.29-.66,8.36,8.36,0,0,1-.83-1.14l-.1-.17c-.51-.83-1.21-2-2.63-2a3.12,3.12,0,0,0-1.25.28,2.4,2.4,0,0,1-.7-.27q-4.42-2.42-8.83-4.85c-2.2-1.22-4.39-2.43-6.59-3.63C643,370.09,638,366,633.2,362c-1.28-1.06-2.56-2.13-3.86-3.18-2.84-2.29-5.84-4.48-8.73-6.6-2.32-1.7-4.71-3.45-7-5.25s-4.38-3.57-6.49-5.36c-1.74-1.48-3.53-3-5.34-4.45-3-2.38-5.77-4.46-8.58-6.34a6.91,6.91,0,0,0-3.87-1.16,8.07,8.07,0,0,0-2.84.53,4.11,4.11,0,0,1-1.42.3,3.67,3.67,0,0,1-2.39-1.13c-1.66-1.42-3.42-2.76-5.12-4.06a76,76,0,0,1-7.3-6.09c-2.57-2.54-5.39-2.83-8.12-3.1l-1.18-.13-1.58-.18c-2.87-.33-5.83-.68-8.73-1.1a1.79,1.79,0,0,1-1-.67c-3.53-5.5-7.4-10.6-11.39-15.78a29.49,29.49,0,0,1-2.35-3.83l-.5-.91a3.12,3.12,0,0,0-3-1.89h-.2l-.92,0c-.89,0-1.81.08-2.7.08a14.29,14.29,0,0,1-5.62-.95,23.21,23.21,0,0,1-8.79-6.21,2.88,2.88,0,0,0-1.9-1h-.43c-2.71,0-5.15-2.93-5.45-5.45a37.34,37.34,0,0,0-1.41-6c-.16-.54-.32-1.09-.47-1.64-.64-2.31-1.28-4.63-1.91-6.94-1-3.52-1.95-7.15-3-10.72s-2.19-7.38-3.56-11.62a3.13,3.13,0,0,1,.49-3.13,27,27,0,0,0,1.84-3.25c.33-.66.68-1.35,1.06-2a17,17,0,0,1,1.22-1.77l.3.3.8.81.7-.89.49-.62,1-1.29.19-.23.24.36.8,1.28.86-1.24.6-.87c.47-.69.94-1.36,1.41-2l.09-.11,0,0a3.86,3.86,0,0,1,.28.47c.07.13.15.28.25.44l.82,1.41.88-1.37c.18-.27.34-.53.51-.78.34-.53.66-1,1-1.51a12.9,12.9,0,0,1,1.29-1.58,4.68,4.68,0,0,1,.52-.45,4.84,4.84,0,0,1,.48.72L515,225l.92-1c.21-.22.41-.45.62-.66.46-.5.94-1,1.38-1.55l.1-.11v0l.58,1.43,1.07-1.12.75-.78c.52-.53,1-1,1.47-1.53l.39-.41.26.63.63,1.57,1.07-1.31.73-.9c.59-.73,1.16-1.43,1.74-2.12l0,.06a3.44,3.44,0,0,1,.2.47c.06.14.11.3.19.47l.57,1.36,1.05-1,.76-.75c.59-.58,1.15-1.13,1.72-1.66l.13-.1m.33-1.42a9.11,9.11,0,0,0-1.13.79c-.83.75-1.62,1.55-2.51,2.42a8.5,8.5,0,0,0-.46-1.09c-.23-.35-.51-.67-.77-1a10.59,10.59,0,0,0-.85.79c-.83,1-1.63,2-2.52,3.07-.45-1.11-.66-1.63-1-1.63s-.65.39-1.33,1.11l-2.2,2.3c-.28-.68-.55-.94-.83-.94s-.64.35-1,.76c-.61.74-1.29,1.42-2,2.17-.5-.87-.87-1.28-1.29-1.28s-.74.27-1.27.8a13.55,13.55,0,0,0-1.4,1.71c-.51.71-1,1.47-1.53,2.33a10.66,10.66,0,0,0-.59-1c-.26-.34-.56-.65-.84-1-.3.36-.62.69-.89,1.07-.68.94-1.33,1.91-2,2.91-.47-.75-.74-1.11-1-1.11s-.54.3-1,.88l-1.52,1.92-1.12-1.14c-.7,1-1.42,1.85-2,2.8-1,1.71-1.74,3.57-2.85,5.17a4.12,4.12,0,0,0-.62,4q1.88,5.76,3.55,11.58c1.67,5.87,3.24,11.78,4.88,17.66a50.32,50.32,0,0,1,1.84,7.52c.36,3,3.19,6.33,6.45,6.33h.43a1.89,1.89,0,0,1,1.14.68,24.16,24.16,0,0,0,9.16,6.48,15.09,15.09,0,0,0,6,1c1.22,0,2.44-.07,3.66-.12h.16a2.14,2.14,0,0,1,2.1,1.38,39.59,39.59,0,0,0,2.92,4.86c3.95,5.12,7.85,10.26,11.35,15.71a2.73,2.73,0,0,0,1.68,1.12c3.44.5,6.9.88,10.35,1.29,3.09.36,6,.31,8.7,2.94,3.81,3.76,8.4,6.7,12.48,10.2a4.58,4.58,0,0,0,3,1.37,5.12,5.12,0,0,0,1.77-.36,6.92,6.92,0,0,1,2.49-.47,5.86,5.86,0,0,1,3.31,1c2.93,2,5.76,4.08,8.51,6.29,4,3.21,7.81,6.67,11.85,9.82,5.17,4,10.62,7.72,15.72,11.84C635,364.64,641,370.12,648.14,374c5.14,2.82,10.27,5.68,15.42,8.48a3,3,0,0,0,1.22.41.64.64,0,0,0,.28-.06,2.29,2.29,0,0,1,.93-.23c.93,0,1.38.85,1.89,1.66a8.12,8.12,0,0,0,.94,1.3,2.61,2.61,0,0,0,2,1,2.45,2.45,0,0,0,.46,0c3.12-.42,6.25-.73,9.39-1,1-.07,2.11-.16,3.16-.16a9.07,9.07,0,0,1,5.09,1.27,67.21,67.21,0,0,1,5.76,4.38,2,2,0,0,0,1.17.61,1.28,1.28,0,0,0,.56-.14c1.17-.56,2.37-1.07,3.57-1.55a3.46,3.46,0,0,0,2.35-2.7,46.8,46.8,0,0,1,1.5-5.2c1-2.87,2.06-5.71,3-8.58a2.36,2.36,0,0,0-.15-1.29c-1-3.41-2-6.8-2.85-10.24a7.27,7.27,0,0,1,1.1-6.22,9.74,9.74,0,0,0,1.35-3.9,3.23,3.23,0,0,0-.6-2.41q-3.21-3.58-6.7-6.9c-2.16-2.06-4.63-3.82-6-6.64a3.57,3.57,0,0,0-.93-1.12c-2-1.67-3.92-3.4-6-4.92-3.68-2.68-7.53-5.13-11.18-7.85-5.57-4.13-11.06-8.39-16.54-12.64-1.85-1.43-3.52-3.1-5.4-4.48-2.75-2-5.63-3.8-8.43-5.72A71.19,71.19,0,0,1,634,290.06c-.76-.79-1.85-1.38-2.33-2.3a37.79,37.79,0,0,1-2.71-6.48,7.51,7.51,0,0,0-2.34-3.66l-10.33-9a34.86,34.86,0,0,1-3-2.57c-3.87-4.19-7.57-8.55-11.56-12.62-2.37-2.42-5.17-4.41-7.78-6.59-3.75-3.14-7.43-6.35-11.26-9.38-2.15-1.7-4.68-2.92-6.77-4.68A31.48,31.48,0,0,0,564,226.44a31.8,31.8,0,0,0-8.64-1.18,33.71,33.71,0,0,0-6.54.64c-2.25.45-4.42,1.31-6.73,2a4.83,4.83,0,0,1-.25-.61q-1.53-5.61-3-11.23c-.19-.71-.43-1.05-.79-1.05a1.56,1.56,0,0,0-.9.46c-.33.27-.64.57-1,.87-.61-.84-.92-1.23-1.3-1.23s-.71.29-1.38.84c-.27.22-.55.41-.92.68a3.59,3.59,0,0,0-.13-.76c-.22-.44-.49-.86-.74-1.3Z"/><path class="cls-1" d="M531.33,216l.15.28s0,.08,0,.13,0,.24,0,.38l.26,1.62.65-.48-.12.4a4.07,4.07,0,0,0-.28,1.77c.24,1.95.52,3.92.81,5.85-.45-1.94-.9-3.9-1.35-5.9l-.45-1.95-.35-1.53.49-.47.13-.1m6.45.2,0,.13,3,11.23a3.46,3.46,0,0,0,.28.69l0,.05.36.82.85-.26c.61-.18,1.21-.38,1.8-.58-5.32,2.4-9.07,6.82-11.15,13.14a10.42,10.42,0,0,0-.6,4.38c-.91-5.08,1.71-9.38,5.17-14.33l.66-1-1.06-.5h0a1.59,1.59,0,0,0,.22-.43,1.64,1.64,0,0,0,1.54,1,3.06,3.06,0,0,0,1.29-.34l.73-.34-.18-.79L538.23,218l-.17-.74-.76,0h-.65l.15-.13.31-.29c.2-.19.4-.38.61-.55l.06,0m-3,0c.17.19.41.52.56.73l.66.9,0,.18c0,.08-.05.16-.07.24a2.47,2.47,0,0,0-.15,1.14c.2,1.39.42,2.78.64,4.16,0,.3.09.59.14.89l-1.17-4.69c-.11-.44-.21-.87-.31-1.31l-.14-.62-.16-.71-.72-.06-.3,0,.38-.29c.18-.15.48-.4.68-.53m-8.09,1,0,0-.31.28.28-.33m.23.5v0c.06.14.11.3.19.47l.57,1.36.43-.43a3.45,3.45,0,0,0-.18,2.64c.63,2.23,1.14,4.56,1.63,6.81.21.94.41,1.88.63,2.82l.13.58-.31.16a5.79,5.79,0,0,0-.23-2.4l-.15-.59c-.4-1.6-.81-3.2-1.19-4.8-.3-1.23-.58-2.46-.87-3.75l-.4-1.76-.26-1.14m-4.66,1.63.26.63.63,1.57.35-.44a4.73,4.73,0,0,0,.1,3.18,13.22,13.22,0,0,1,.5,2.34c.08.5.15,1,.27,1.53.29,1.37.61,2.73.93,4.1.13.58.27,1.17.4,1.75l.14.61-.18.13a7.79,7.79,0,0,0-.3-2c-.3-1.19-.62-2.38-.93-3.57s-.64-2.4-.94-3.6c-.25-1-.48-2-.71-3-.11-.5-.23-1-.35-1.55l-.33-1.44.16-.17M518,221.68v0l.37.9h-1.18c.24-.27.48-.54.7-.82l.1-.11m1.87.14c-.76,1.3-.76,1.87-.39,3.85.49,2.62,1,5.23,1.51,7.85l.4,2c-.39-1.27-.67-2.61-.94-3.91-.13-.65-.27-1.3-.41-1.95l-1-4.42-.43-1.9-.14-.59.14.35,1.07-1.12.21-.21m-6.05,1.29a4.84,4.84,0,0,1,.48.72L515,225l0,0a2.9,2.9,0,0,0-.13,1.78c.72,3.18,1.45,6.36,2.19,9.58l.65,2.8a1.21,1.21,0,0,1-.05-.18c-.49-1.86-.93-3.78-1.35-5.63-.16-.69-.31-1.37-.47-2.05-.33-1.39-.64-2.78-1-4.21l-.45-2-.34-1.48-1.23.9a6.71,6.71,0,0,0-1.24,1.2l.39-.57a12.9,12.9,0,0,1,1.29-1.58,4.68,4.68,0,0,1,.52-.45m41.54,3.15a31.12,31.12,0,0,1,8.37,1.14,30.59,30.59,0,0,1,11.55,6.18,33.77,33.77,0,0,0,3.7,2.59,35.86,35.86,0,0,1,3.1,2.12c2.69,2.12,5.35,4.38,7.93,6.57q1.65,1.39,3.31,2.78c.82.69,1.66,1.36,2.48,2a56.51,56.51,0,0,1,5.23,4.52c2.5,2.54,4.92,5.26,7.27,7.88,1.39,1.55,2.82,3.16,4.26,4.72a18.58,18.58,0,0,0,2.07,1.83c.33.27.66.54,1,.82l1.18,1q4.57,4,9.15,7.94a6.51,6.51,0,0,1,2.05,3.18,38.08,38.08,0,0,0,2.77,6.66,6,6,0,0,0,1.69,1.82,8.38,8.38,0,0,1,.81.71c1.12,1.15,2.23,2.23,3.34,3.26-.91-.69-1.8-1.31-2.61-1.88a11.18,11.18,0,0,1-3.61-4.39c-.49-1-.93-2-1.35-3-.28-.68-.56-1.36-.86-2l-.18-.4a6.22,6.22,0,0,0-1.21-2c-2.24-2.23-4.58-4.41-6.84-6.52l-.24-.22c-.91-.86-1.87-1.69-2.8-2.5a51.51,51.51,0,0,1-5.38-5.16,120,120,0,0,0-12.26-12.67l-2.87-2.52c-3.89-3.42-7.92-7-12.05-10.24a161.42,161.42,0,0,0-13.41-9.54c-4.13-2.64-7.75-3.92-11.4-4-.92,0-1.88,0-2.83,0-2.2,0-4.53.07-6.92.21a18.67,18.67,0,0,0-2.65.32c.63-.18,1.25-.34,1.89-.47a33.3,33.3,0,0,1,6.34-.62m-44.48.61a5.37,5.37,0,0,0-.56,3.89c.81,2.67,1.56,5.29,2.24,7.81.31,1.14.56,2.31.83,3.54l.4,1.79.29,1.24-.21.31a5.42,5.42,0,0,0-.24-1.44c-1-3.42-2-6.92-2.92-10.31-.42-1.52-.83-3-1.26-4.56a5.52,5.52,0,0,0-.3-.82c-.07-.15-.14-.33-.22-.53l-.22-.58a1.62,1.62,0,0,0,.1.18l.82,1.41.88-1.37.37-.56m-6.63,2.18.24.36.8,1.28.86-1.24.1-.15a4.37,4.37,0,0,0-.35,3.45c1,3,1.88,6.08,2.77,9.06l.75,2.52c.32,1,.62,2.1.95,3.25l.5,1.75.57,2c-.32,1-.5,1.63-.14,2.24l.06.09-.27.1-5.17-19.4-1-3.63-.18-.68-.69-.06-.45,0h-.06l.49-.62.19-.23m-3.5,1.92.3.3.8.81.17-.22a2.46,2.46,0,0,0-.16,1.21,37.05,37.05,0,0,0,1.13,5.07q1.62,5.76,3.25,11.52c1.66,5.86,3.37,11.92,5,17.88a2.86,2.86,0,0,0,2.86,2.4,16.56,16.56,0,0,1,3.35.9l1.62.53.84.25.15.49a1.88,1.88,0,0,0,.48.78L520,273l0,.86c.06,1,.16,2.73,1.83,2.73h.09a2,2,0,0,0-1.4,1.57,1.84,1.84,0,0,0,.8,1.75,23.9,23.9,0,0,0,2.31,1.45c.32.18.64.36,1,.55l.64.39.55-.51.33-.3.48-.43-.2-.62-.2-.61c-.15-.43-.29-.87-.43-1.31-.31-1-.74-2.33-2.17-2.33h-.05l.32-.11.89-.33a8.39,8.39,0,0,1,.68,1.11l.67,1.31c.57,1.1,1.16,2.24,1.68,3.37a3.91,3.91,0,0,0,1.3,1.64l-.32,0c-.59,0-1.14.08-1.68.08a5.3,5.3,0,0,1-2.76-.62,32.6,32.6,0,0,1-3.09-2,2.29,2.29,0,0,0-1.34-.51,2.14,2.14,0,0,0-1.37.57,16.41,16.41,0,0,1-2.66,1.83,2,2,0,0,0-1.18,1.53,1.89,1.89,0,0,0,1,1.6l1.25.9a40.1,40.1,0,0,0,4,2.66l.19.1a14.52,14.52,0,0,0,5.39,2.1c.68.06,1.39.09,2.18.09,1.38,0,2.76-.09,4.21-.19l2.07-.13-.23.21.31.67.33.78a10.49,10.49,0,0,0,.94,1.94c.6.9,1.24,1.77,1.86,2.62s1.08,1.47,1.59,2.21q1.61,2.37,3.12,4.63c-1.52-2-3.07-4.06-4.63-6.09a29.49,29.49,0,0,1-2.35-3.83l-.5-.91a3.12,3.12,0,0,0-3-1.89h-.2l-.92,0c-.89,0-1.81.08-2.7.08a14.29,14.29,0,0,1-5.62-.95,23.21,23.21,0,0,1-8.79-6.21,2.88,2.88,0,0,0-1.9-1h-.43c-2.71,0-5.15-2.93-5.45-5.45a29.86,29.86,0,0,0-.94-4.4l.44,1.31,1.13-1,1-.86c.89-.76,1.73-1.47,2.53-2.26a2.54,2.54,0,0,0,.53-2.23c-.44-1.81-1-3.73-1.63-6-.75-2.6-1.52-5.19-2.28-7.79-1.36-4.61-2.76-9.38-4.1-14.08-.47-1.67-.85-3.42-1.21-5.11-.17-.79-.34-1.59-.53-2.38l-.19-.7-.71-.08-.35,0-.42-.05c.31-.47.65-.94,1-1.42m8.17,48.63-.11.09.66.77.12.16a1.49,1.49,0,0,0,.68.58c.21.09.42.2.64.31a4.75,4.75,0,0,0,2,.64h.28a14,14,0,0,0,3.11-.87c.36-.13.71-.27,1.07-.38a1.37,1.37,0,0,0,.71-.6,7.16,7.16,0,0,0,.24-7.62,2.79,2.79,0,0,0-1-.91,8.49,8.49,0,0,0-3.88-1,7.5,7.5,0,0,0-3.52.91,4.83,4.83,0,0,0-2.38,3.6,5.2,5.2,0,0,0,1.29,4.35m12.81-42.25.09.44-.13.11a3.31,3.31,0,0,0,0-.55M496,239.24a2.85,2.85,0,0,0,.06,1c.28,1.1.55,2.2.84,3.29l-.77-2.38a3.23,3.23,0,0,1-.13-1.87m21.88.66,0,.22.22,1-.14.13a5.36,5.36,0,0,0-.13-1.31m1.58,20.54c.17.85.34,1.68.52,2.51,0,.15,0,.25,0,.31h0a2.61,2.61,0,0,0-1.06.69c-.1-.42-.2-.83-.31-1.24l.73-1.93a2.35,2.35,0,0,0,.11-.35m24.83,23c1.46.17,2.12,1,2.43,2.95a23,23,0,0,1,.27,2.35,3.71,3.71,0,0,1-1,2.73,3.54,3.54,0,0,1-2.58,1.12c-.18,0-.38,0-.58,0a7.06,7.06,0,0,0,3-4.08,3.1,3.1,0,0,0,.06-1.16c0-.11,0-.22,0-.33v-.2l-.08-.18-.3-.77a15.48,15.48,0,0,0-.81-1.83,4.24,4.24,0,0,0-.38-.56m96.08,13.82q1.81,1.46,3.68,2.74c1.08.74,2.17,1.46,3.26,2.19,1.71,1.13,3.47,2.3,5.15,3.52,1,.73,2,1.58,2.91,2.4.79.69,1.61,1.4,2.46,2.06l.59.46c5.21,4,10.59,8.2,16,12.2,2,1.45,4,2.86,6,4.21,1.72,1.18,3.49,2.4,5.2,3.64,1.54,1.12,3,2.4,4.49,3.64l1.45,1.23a2.74,2.74,0,0,1,.68.79A18.16,18.16,0,0,0,697,342c.47.42.95.85,1.41,1.29,2.31,2.2,4.55,4.5,6.64,6.84a2.24,2.24,0,0,1,.36,1.57,8.72,8.72,0,0,1-1.18,3.49,8.3,8.3,0,0,0-1.25,7c.56,2.32,1.23,4.63,1.88,6.86.33,1.14.66,2.28,1,3.42l0,.08a3.63,3.63,0,0,1,.14.62c-.47,1.39-1,2.79-1.48,4.15s-1.06,2.94-1.57,4.43c-.29.84-.6,1.78-.88,2.78,0-.1,0-.19,0-.28a25.67,25.67,0,0,1,2-6.06c.31-.76.64-1.55.94-2.33a5.47,5.47,0,0,0,0-4.49c-.18-.38-.34-.78-.5-1.21s-.32-.86-.52-1.3a15.47,15.47,0,0,1-1.78-7.17c0-.4,0-.81.06-1.32,0-.28,0-.59.06-.95l.11-2a20.83,20.83,0,0,0,1.74-2.85c1.31-2.6.91-4.18-1.43-5.6l-.65-.4-.56.53-.45.43-2.5,2.39-.27.25-1.61-1.9.34-.48,2.14-2.93.52-.71-.64-.61-4.55-4.32-2.71-2.57-1.07-1a7.67,7.67,0,0,0-3.74-5.28c-2.51-1.57-4.93-3.44-7.27-5.24-.93-.72-1.85-1.43-2.78-2.13-4.64-3.47-9.18-6.87-13.77-10.37-1.58-1.2-3.16-2.44-4.69-3.64s-3.35-2.62-5.05-3.91c-1.5-1.14-3.06-2.22-4.58-3.27a69,69,0,0,1-8.46-6.57m-45,6.2c.34.11.67.2,1,.28l.28.08c.51.13,1,.22,1.52.3a7.77,7.77,0,0,1,1.87.44,7.11,7.11,0,0,1,2.28,1.72l-.23.12c-.39.22-.78.42-1.17.61a18.62,18.62,0,0,0-2.65,1.54,41.62,41.62,0,0,0-4.24,3.7,2.57,2.57,0,0,0-.49,1.92s0,.06,0,.08a11.64,11.64,0,0,0-1.87-.68,3.32,3.32,0,0,0,.62-1.07c.28-.73.55-1.46.83-2.2.65-1.73,1.32-3.52,2-5.25a2.68,2.68,0,0,0,.22-1.59m-46,10.07a4.76,4.76,0,0,0,2,.73c1,.16,2.07.36,3.07.55s2.28.44,3.44.61c2.3.34,4.64.6,6.91.85l1.11.12.26,0a1.73,1.73,0,0,0,1.1-.37,4.33,4.33,0,0,0,1.53,1.86,153.15,153.15,0,0,1,12.63,10.36c-1.27-1-2.57-2-3.85-3a76,76,0,0,1-7.3-6.09c-2.57-2.54-5.39-2.83-8.12-3.1l-1.18-.13-1.58-.18c-2.87-.33-5.83-.68-8.73-1.1a1.79,1.79,0,0,1-1-.67l-.3-.46M589.23,329a6,6,0,0,1,4,1.64c.66.57,1.35,1.1,2,1.62-.7-.5-1.4-1-2.1-1.45a6.91,6.91,0,0,0-3.87-1.16,8.07,8.07,0,0,0-2.84.53,4.11,4.11,0,0,1-1.42.3,3,3,0,0,1-1.7-.6,2.24,2.24,0,0,0,.92.2,2.93,2.93,0,0,0,1.21-.29,6.63,6.63,0,0,1,1.34-.39l.74-.17a6.56,6.56,0,0,1,1.66-.23M604.12,339l.06,0c1.14.9,2.27,1.87,3.36,2.81,1.39,1.2,2.84,2.44,4.33,3.59,3.37,2.6,6.84,5.18,10.19,7.67l4.39,3.27,2.69,2c1.86,1.41,3.79,2.86,5.71,4.26l1.11.81c2.88,2.09,5.85,4.25,8.87,6.24,3.25,2.14,6.62,4.19,9.88,6.18l2.26,1.39c1.22.74,2.47,1.46,3.68,2.16l2.38,1.39a3.93,3.93,0,0,0,2,.58,3.81,3.81,0,0,0,1.76-.45.92.92,0,0,1,.33-.1c.13,0,.28.21.36.34.39.62.81,1.23,1.21,1.81l.46.67a2.86,2.86,0,0,0,2.47,1.42,4,4,0,0,0,.58,0c2.46-.4,4.92-.7,7-.94a25.87,25.87,0,0,1,3.06-.19,14.63,14.63,0,0,1,7.92,2.06c.81.5,1.62,1.07,2.4,1.62.63.45,1.28.91,1.95,1.35a3.33,3.33,0,0,0,1.62.55,1.59,1.59,0,0,0,.62-.12l.81-.33c1.5-.59,3.32-1.3,4.14-3.46-.12.47-.23.95-.34,1.43a2.45,2.45,0,0,1-1.73,2c-1.26.5-2.48,1-3.64,1.58l-.12,0a2.16,2.16,0,0,1-.47-.33l-.08-.06-1-.83a54.59,54.59,0,0,0-4.82-3.62,10.23,10.23,0,0,0-5.63-1.42c-1,0-1.89.07-2.81.13l-.42,0c-3.29.24-6.47.57-9.46,1l-.32,0a1.66,1.66,0,0,1-1.29-.66,7.54,7.54,0,0,1-.82-1.14l-.11-.17c-.51-.83-1.21-2-2.63-2a3.12,3.12,0,0,0-1.25.28,2.4,2.4,0,0,1-.7-.27q-4.42-2.42-8.83-4.85c-2.2-1.22-4.39-2.43-6.59-3.63C643,370.09,638,366,633.2,362c-1.28-1.06-2.56-2.13-3.86-3.18-2.84-2.29-5.84-4.48-8.73-6.6-2.32-1.7-4.71-3.45-7-5.25s-4.38-3.57-6.49-5.36c-1-.83-2-1.68-3-2.52m93.16,22.21.44.23.16.08-1.08,1.12c-.45.47-.9.95-1.36,1.42l.15-.22-3.11,1.36-.25.12a25.29,25.29,0,0,0,2.16-1.43,13.33,13.33,0,0,0,2.89-2.68m-18.5.32a9.44,9.44,0,0,1,3.18,1.74,33.62,33.62,0,0,0,5,3.2,3.33,3.33,0,0,0,1.56.36h.24l-.72.35a2.55,2.55,0,0,1-1.16.32,2.08,2.08,0,0,1-1.37-.58l-.65-.54c-1.74-1.46-3.54-3-5.38-4.39a4.37,4.37,0,0,0-.72-.45m2.94,13.88c-.24.16-.47.33-.7.5h0l-.37-.47h.19c.29,0,.59,0,.9,0M531.66,214.59a9.11,9.11,0,0,0-1.13.79c-.83.75-1.62,1.55-2.51,2.42a8.5,8.5,0,0,0-.46-1.09c-.23-.35-.51-.67-.77-1a10.59,10.59,0,0,0-.85.79c-.83,1-1.63,2-2.52,3.07-.45-1.11-.66-1.63-1-1.63s-.65.39-1.33,1.11l-2.2,2.3c-.28-.68-.55-.94-.83-.94s-.64.35-1,.76c-.61.74-1.29,1.42-2,2.17-.5-.87-.86-1.28-1.29-1.28s-.74.27-1.27.8a13.55,13.55,0,0,0-1.4,1.71c-.51.71-1,1.47-1.53,2.33a10.66,10.66,0,0,0-.59-1c-.26-.34-.56-.65-.84-1-.3.36-.62.69-.89,1.07-.68.94-1.33,1.91-2,2.91-.47-.75-.74-1.11-1-1.11s-.54.3-1,.88l-1.52,1.92-1.12-1.14c-.7,1-1.42,1.85-2,2.8-1,1.71-1.74,3.57-2.85,5.17a4.12,4.12,0,0,0-.62,4q1.88,5.76,3.55,11.58c1.67,5.87,3.24,11.78,4.88,17.66a50.32,50.32,0,0,1,1.84,7.52c.36,3,3.19,6.33,6.45,6.33h.43a1.89,1.89,0,0,1,1.14.68,24.16,24.16,0,0,0,9.16,6.48,15.09,15.09,0,0,0,6,1c1.22,0,2.44-.07,3.66-.12h.16a2.14,2.14,0,0,1,2.1,1.38,39.59,39.59,0,0,0,2.92,4.86c3.95,5.12,7.85,10.26,11.35,15.71a2.73,2.73,0,0,0,1.68,1.12c3.44.5,6.9.88,10.35,1.29,3.09.36,6,.31,8.7,2.94,3.81,3.76,8.4,6.7,12.48,10.2a4.58,4.58,0,0,0,3,1.37,5.12,5.12,0,0,0,1.77-.36,6.92,6.92,0,0,1,2.49-.47,5.86,5.86,0,0,1,3.31,1c2.93,2,5.76,4.08,8.51,6.29,4,3.21,7.81,6.67,11.85,9.82,5.17,4,10.62,7.72,15.72,11.84C635,364.64,641,370.12,648.14,374c5.14,2.82,10.27,5.68,15.42,8.48a3,3,0,0,0,1.22.41.64.64,0,0,0,.28-.06,2.29,2.29,0,0,1,.93-.23c.93,0,1.38.85,1.89,1.66a8.12,8.12,0,0,0,.94,1.3,2.61,2.61,0,0,0,2,1,2.45,2.45,0,0,0,.46,0c3.12-.42,6.25-.73,9.39-1,1-.07,2.11-.16,3.16-.16a9.09,9.09,0,0,1,5.09,1.27,67.21,67.21,0,0,1,5.76,4.38,2,2,0,0,0,1.17.61,1.28,1.28,0,0,0,.56-.14c1.17-.56,2.37-1.07,3.57-1.55a3.46,3.46,0,0,0,2.35-2.7,46.8,46.8,0,0,1,1.5-5.2c1-2.87,2.06-5.71,3-8.58a2.36,2.36,0,0,0-.15-1.29c-1-3.41-2-6.8-2.85-10.24a7.27,7.27,0,0,1,1.1-6.22,9.74,9.74,0,0,0,1.35-3.9,3.23,3.23,0,0,0-.6-2.41q-3.21-3.58-6.7-6.9c-2.16-2.06-4.63-3.82-6-6.64a3.57,3.57,0,0,0-.93-1.12c-2-1.67-3.92-3.4-6-4.92-3.68-2.68-7.53-5.13-11.18-7.85-5.57-4.13-11.06-8.39-16.54-12.64-1.85-1.43-3.52-3.1-5.4-4.48-2.75-2-5.63-3.8-8.43-5.72A71.19,71.19,0,0,1,634,290.06c-.76-.79-1.85-1.38-2.33-2.3a37.79,37.79,0,0,1-2.71-6.48,7.51,7.51,0,0,0-2.34-3.66l-10.33-9a34.86,34.86,0,0,1-3-2.57c-3.87-4.19-7.57-8.55-11.56-12.62-2.37-2.42-5.17-4.41-7.78-6.59-3.75-3.14-7.43-6.35-11.26-9.38-2.15-1.7-4.68-2.92-6.77-4.68A31.48,31.48,0,0,0,564,226.44a31.8,31.8,0,0,0-8.64-1.18,33.71,33.71,0,0,0-6.54.64c-2.25.45-4.42,1.31-6.73,2a4.83,4.83,0,0,1-.25-.61q-1.53-5.61-3-11.23c-.19-.71-.43-1.05-.79-1.05a1.56,1.56,0,0,0-.9.46c-.33.27-.64.57-1,.87-.61-.84-.92-1.23-1.3-1.23s-.72.29-1.38.84c-.27.22-.55.41-.92.68a3.59,3.59,0,0,0-.13-.76c-.22-.44-.49-.86-.74-1.3Zm2.8,15.35c-.49-3.37-1-6.65-1.42-9.95a6.22,6.22,0,0,1,.42-2l.45,0c.15.65.29,1.31.45,1.95.62,2.52,1.26,5,1.89,7.54.5,2,.36,2.2-1.79,2.39Zm4.47-.36c-.42,0-.69-.28-.79-1-.45-3.11-1-6.19-1.44-9.29a3.23,3.23,0,0,1,.22-1l.33,0c.84,3.65,1.68,7.31,2.55,11.07a2.16,2.16,0,0,1-.87.25Zm-7.78,1.57c-.74-3.22-1.37-6.48-2.27-9.67-.41-1.45.12-2.23,1.2-3.15.78,3.38,1.52,6.62,2.27,9.87,0,.24.08.48.13.72.37,1.72.37,1.72-1.33,2.23Zm-4.49,2.6c-.45-2-.92-3.9-1.34-5.84a31.11,31.11,0,0,0-.8-4c-.72-2,.08-3.45,1.66-4.87.45,1.94.85,3.74,1.27,5.52s.9,3.61,1.35,5.4c.59,2.33.31,2.85-2.14,3.79Zm-4.08,2.9c-.72-3.74-1.45-7.45-2.15-11.16-.4-2.18-.37-2.19,1-4.34.39,1.66.7,3.14,1.07,4.6.6,2.39,1.26,4.77,1.87,7.17.56,2.23.46,2.43-1.79,3.73Zm-3.7,3.24c-1-4.53-2.06-8.94-3-13.35-.3-1.33.67-2,1.27-2.94h.48q.74,3.16,1.45,6.32c.48,2.09.82,4.22,1.47,6.26.55,1.71,0,2.72-1.62,3.7Zm-4.14,3.79c-.44-1.93-.79-3.67-1.24-5.37-.71-2.62-1.46-5.24-2.25-7.84-.45-1.46.43-3.88,2.17-5.16.49,2.15,1,4.17,1.42,6.19.6,2.58,1.16,5.16,1.83,7.71.63,2.4.56,2.72-1.93,4.47Zm22,12.71.38-.18a7.17,7.17,0,0,0-.51-1.24,23.41,23.41,0,0,1-3.23-9,9.3,9.3,0,0,1,.52-4.22c1.91-5.8,5.37-10.34,11.09-12.74a14.53,14.53,0,0,1,4.77-1q3.42-.21,6.86-.21c.93,0,1.87,0,2.81,0,4,.11,7.61,1.77,10.88,3.86a159.94,159.94,0,0,1,13.33,9.48c5.11,4.06,10,8.44,14.88,12.73a121.36,121.36,0,0,1,12.16,12.57c2.44,2.85,5.5,5.16,8.26,7.74,2.38,2.22,4.75,4.43,7,6.72a6.84,6.84,0,0,1,1.18,2.14c.76,1.69,1.4,3.44,2.23,5.09a12.33,12.33,0,0,0,3.94,4.76,44.84,44.84,0,0,1,5.88,4.65c4.08,4,9,6.87,13.51,10.29,3.27,2.48,6.47,5.05,9.74,7.54q6.86,5.22,13.78,10.38c3.35,2.51,6.58,5.21,10.12,7.41,3.15,2,3.68,4.69,3.36,7.92a5.23,5.23,0,0,0,1.28,4c2.38,2.89,4.78,5.77,7.22,8.61a1.63,1.63,0,0,1,.28,1.9c-.46,1.13-.84,2.31-1.25,3.47a9,9,0,0,1-3.52,4,26.27,26.27,0,0,1-4.31,2.55,2.32,2.32,0,0,1-.94.19,2.29,2.29,0,0,1-1.08-.24,32.4,32.4,0,0,1-4.87-3.1,9.5,9.5,0,0,0-6.08-2.29,11,11,0,0,0-2.16.23c-2.64.55-5.34.77-8,1.18a4,4,0,0,1-3.57-1.31q-7.92-6.18-15.8-12.41c-5-4-10-7.95-15-12-4.62-3.76-9.16-7.62-13.72-11.44-2.74-2.29-5.39-4.68-8.2-6.88-1.6-1.25-3.46-2.16-4.56-4-.31-.52-1.14-.74-1.73-1.09s-.65-1-.36-1.7c.74-1.75,1.06-3.56-.31-5.12a8,8,0,0,0-2.68-2,25.17,25.17,0,0,0-3.53-.8,9.37,9.37,0,0,1-2.78-1,174.27,174.27,0,0,1-18.7-14.46q-10-9-19.83-18.12c-3-2.73-5.85-5.52-8.64-8.42-4.56-4.74-4.43-10.26-2.34-16a22.76,22.76,0,0,1,1.52-3.24,9.22,9.22,0,0,1,5.72-4.66,43.93,43.93,0,0,0,7-2.8,5.74,5.74,0,0,1,2.55-.67,4.84,4.84,0,0,1,2.83,1c3.85,2.73,7.74,5.4,11.6,8.11,1.31.92,2.57,1.92,3.85,2.87a1.47,1.47,0,0,0,.82.37c.3,0,.59-.19.88-.7-3-2.15-5.86-4.26-8.77-6.33-2-1.45-4.09-2.89-6.18-4.26-1.19-.78-2.47-1.44-3.73-2.12a2.51,2.51,0,0,0-1.19-.29,6.64,6.64,0,0,0-2.24.59c-3.09,1.18-6.14,2.47-9.25,3.59a8.19,8.19,0,0,0-4.1,3.36,22.58,22.58,0,0,0-3.81,15,4.36,4.36,0,0,0,.3,1.18,26.18,26.18,0,0,0,6.38,8.84q5.5,5.29,11.17,10.42c5.08,4.6,10.25,9.11,15.36,13.69a172.33,172.33,0,0,0,18.35,14.08,1.23,1.23,0,0,1,.51,1.81c-1,2.47-1.91,5-2.86,7.47-.27.73-.64,1.09-1.08,1.09a1.69,1.69,0,0,1-1-.48q-4.86-4.17-9.77-8.27c-3-2.5-6-4.94-9-7.47-3.9-3.33-7.79-6.68-11.63-10.09-4.14-3.68-8.37-7.29-12.25-11.25-2-2.1-3.45-4.86-5.13-7.33-2.14-3.15-3.57-6.78-6.25-9.59-3-3.1-6.33-4.94-10.32-4.94a14.81,14.81,0,0,0-3.1.35,10.36,10.36,0,0,1-2.07.25c-1.31,0-1.69.84-1.61,2s.27,2,.38,2.94a2.25,2.25,0,0,1-.13,1.13c-.49-1.43-1.09-2.83-1.44-4.3a3.2,3.2,0,0,0-2.82-2.46c-2.52-.58-2.33-.21-1.54-2.86a14.36,14.36,0,0,1,4.29-7.33c3.8-3.16,7.14-6.87,11.53-9.36a29.2,29.2,0,0,1,7.25-3.17,7.35,7.35,0,0,1,.84-.15h0c.06,0,.13.06.23.11-3.69,5.28-7.22,10.64-4.67,17.51,1.08,2.89,2.25,5.88,4.71,8Zm-25-7.34c-.54-1.88-1-3.45-1.45-5-1.16-3.87-2.3-7.75-3.53-11.6-.53-1.66.37-2.77,1.15-4.29a13,13,0,0,1,.49,1.26c1.39,5,2.7,10,4.18,14.89.51,1.69.05,3-.84,4.75Zm7.56,21.36a30.52,30.52,0,0,0-5.15-1.46,1.91,1.91,0,0,1-2-1.67c-2.72-9.82-5.53-19.61-8.28-29.41a35.05,35.05,0,0,1-1.1-4.93c-.09-.64.44-1.36.69-2l.45,0,6.5,24.41a2.48,2.48,0,0,1,1.86-.88,7.59,7.59,0,0,1,2.07.48,1.86,1.86,0,0,1,1.09.85,41.56,41.56,0,0,1,1.43,4.34c.79,3,1.5,6,2.23,9,.12.49.17,1,.22,1.27Zm-13,2.82c-.22-.66-.5-1.4-.72-2.16-1.79-6.18-3.6-12.36-5.34-18.55Q498.59,246.27,497,240a3.11,3.11,0,0,1,.36-1.94c.81-1.57,1.75-3.06,2.63-4.59l.4,0c.58,2.52,1.05,5.07,1.75,7.55,2.08,7.3,4.26,14.58,6.38,21.87.58,2,1.13,4,1.62,6a1.61,1.61,0,0,1-.26,1.28c-1.07,1-2.24,2-3.49,3.07Zm25.22,9.66a2.81,2.81,0,0,1-2.93-1.76c-.74-1.6-1.57-3.15-2.37-4.71a7,7,0,0,0-4.38-3.8,1.52,1.52,0,0,1-.93-.8c-.56-1.89-1-3.82-1.53-5.73-.24-.88-.11-1.53.83-1.88.7-.25.79-.73.63-1.48-.48-2.13-.85-4.28-1.21-6.43,0-.27.22-.83.39-.85a42,42,0,0,1,5.19-.64,8,8,0,0,1,1.1.07,12.1,12.1,0,0,1,8.46,5.14c1.27,1.75,2.38,3.62,3.53,5.46,1.92,3.07,3.64,6.27,5.78,9.17a39.94,39.94,0,0,0,5.18,5.05q5.82,5.4,11.7,10.74c1.85,1.68,3.79,3.27,5.7,4.87,3.33,2.8,6.65,5.6,10,8.37,2,1.62,4,3.14,5.94,4.77,1.6,1.35,3.08,2.84,4.7,4.17a6.37,6.37,0,0,0,2.77,1.66,10.94,10.94,0,0,1,6.66,3.68c4.45,4.68,9.81,8.2,15.07,11.86,3.69,2.58,7.08,5.59,10.56,8.46,4.31,3.55,8.57,7.17,12.88,10.73,5.06,4.18,10,8.49,15.27,12.45q10.54,8,21.44,15.51a8.11,8.11,0,0,0,4.6,1.51,8.44,8.44,0,0,0,4.94-1.72c3.11-2.24,6.39-4.29,9.26-6.81,3.34-2.92,6.3-6.27,9.42-9.44.27-.27.51-.57,1-1.14-.06,1-.11,1.67-.12,2.31A16.85,16.85,0,0,0,703,369.3c.39.82.63,1.71,1,2.52a4.39,4.39,0,0,1,0,3.7c-1.07,2.84-2.54,5.64-3,8.59-.45,3.11-2.64,3.52-4.7,4.4a.56.56,0,0,1-.23,0,2.28,2.28,0,0,1-1.07-.39c-1.48-1-2.88-2.06-4.37-3a15.65,15.65,0,0,0-8.45-2.21,28.55,28.55,0,0,0-3.18.19c-2.35.28-4.7.57-7,.95a3.29,3.29,0,0,1-.42,0,1.9,1.9,0,0,1-1.65-1c-.55-.81-1.12-1.62-1.64-2.45a1.44,1.44,0,0,0-1.21-.81,1.76,1.76,0,0,0-.78.21,2.94,2.94,0,0,1-1.31.34,2.88,2.88,0,0,1-1.48-.44c-2-1.19-4-2.33-6-3.55-4.06-2.48-8.14-4.93-12.12-7.55-3.38-2.22-6.66-4.63-9.94-7-2.83-2-5.6-4.18-8.39-6.27-4.86-3.64-9.76-7.22-14.57-10.93-2.63-2-5.08-4.31-7.67-6.39-2.75-2.21-5.58-4.32-8.38-6.48-.84-.65-1.7-1.29-2.5-2a7.06,7.06,0,0,0-4.7-1.88,7.7,7.7,0,0,0-1.92.26,13.7,13.7,0,0,0-2.24.62,2,2,0,0,1-.79.2,1.57,1.57,0,0,1-1.09-.5,152.72,152.72,0,0,0-13.83-11.45c-1.45-1.07-1.6-2.29-1.28-4,.43-2.29.51-4.66.74-7,0-.24.07-.47.14-.92l7.07,5.1c.62-.65.51-1.09-.07-1.5-2.2-1.58-4.39-3.19-6.6-4.74a1.74,1.74,0,0,0-.91-.4c-.39,0-.6.38-.67,1.13-.28,3.2-.58,6.39-.85,9.59,0,.58-.22,1-.79,1H566c-2.66-.3-5.33-.58-8-1-2.18-.32-4.33-.82-6.51-1.15a3.2,3.2,0,0,1-2.41-1.45q-4.2-6.39-8.49-12.72c-1.11-1.63-2.35-3.17-3.44-4.82a18,18,0,0,1-1.2-2.59l.31-.28c.31.11.73.13.92.35a4.59,4.59,0,0,0,3.56,1.73l.56,0h.32c.58,0,1.17.13,1.75.13h0a4.65,4.65,0,0,0,4.58-4.9,22.32,22.32,0,0,0-.29-2.46c-.31-2-1.1-3.58-3.45-3.8-1.14-.1-2.26-.61-3.38-.61h-.13c-.73,0-1.42.78-2.15,1.19a3.08,3.08,0,0,1-1,.45.24.24,0,0,1-.12,0,6.6,6.6,0,0,0-3.14-.67c-.76,0-1.52.07-2.27.11l-.45,0ZM509.69,279c-1.84-1.84-1.39-5.31.76-6.46a6.35,6.35,0,0,1,3.05-.8,7.29,7.29,0,0,1,3.41.91,2,2,0,0,1,.6.59,6.15,6.15,0,0,1-.2,6.43c-.07.09-.14.23-.24.27a22.55,22.55,0,0,1-4,1.21h-.16a7.46,7.46,0,0,1-2.31-.87c-.13-.06-.22-.24-.41-.47a30,30,0,0,1,2.35-1.93.33.33,0,0,1,.19-.05,1.74,1.74,0,0,1,.84.3c.77.54,1.47,1.15,2.2,1.74l.39-.19c-.1-.32-.12-.73-.33-.94a16.65,16.65,0,0,0-1.52-1.23.82.82,0,0,1-.05-1.44,7.9,7.9,0,0,0,1.08-1,4.33,4.33,0,0,0,.46-1.1,3.73,3.73,0,0,0-1,.33c-.68.51-1.3,1.1-2,1.73-.76-.66-1.39-1.24-2.06-1.77a2.12,2.12,0,0,0-.73-.19l.12.85s.05.07.08.1c.53.64,1.64,1.5,1.49,1.88-.31.83-1.25,1.41-1.94,2.1Zm12.15-3.4c-.64,0-.76-.51-.83-1.78a2.74,2.74,0,0,1,.56-.06,2.06,2.06,0,0,1,1.94,1.39,5.62,5.62,0,0,1-1.67.45Zm3.27,5.47c-1.07-.65-2.19-1.22-3.18-2-.71-.52-.48-1.27.37-1.58a4.15,4.15,0,0,1,1.29-.33c.6,0,.85.46,1.21,1.63.21.65.43,1.29.64,1.93l-.33.31Zm3.58,9.48c-.7,0-1.4,0-2.09-.09a14.1,14.1,0,0,1-5.18-2.07,59.94,59.94,0,0,1-5.2-3.51c-.73-.51-.76-.94.12-1.43a17.63,17.63,0,0,0,2.82-1.94,1.19,1.19,0,0,1,.73-.34,1.27,1.27,0,0,1,.74.32,31.57,31.57,0,0,0,3.2,2.05,6.2,6.2,0,0,0,3.25.76c1,0,2.07-.13,3.1-.16,1.64-.05,3.28-.14,4.92-.14h.1c1.41,0,1.59.42,1.3,1.81-.24,1.11-.23,2.28-.39,3.41a3.67,3.67,0,0,1-.36,1c-2.51.1-4.82.36-7.06.36Zm11.75,1.8a3.15,3.15,0,0,1-3-2.63c-.51-2.81.1-5,2.67-6.56a2,2,0,0,1,1-.28,3.12,3.12,0,0,1,2.61,1.59,24.09,24.09,0,0,1,1.07,2.5,4.6,4.6,0,0,1,0,1.23,6.11,6.11,0,0,1-3.2,3.86,2.56,2.56,0,0,1-1.2.29Zm57.77,25c-.21-.12-.51-.18-.61-.36a7,7,0,0,0-3-2.77,1.47,1.47,0,0,1,.11-1.29,43,43,0,0,1,4.13-3.62,34.6,34.6,0,0,1,3.71-2.07,3.48,3.48,0,0,1-.4,3.28c-1.12,2.18-2.36,4.3-3.56,6.43a2.28,2.28,0,0,1-.38.4ZM677.09,377l-.76,0a13,13,0,0,1-6.53-2.92c-4.54-3.31-9.13-6.55-13.63-9.93-4.88-3.68-9.76-7.38-14.49-11.24-6.36-5.19-12.62-10.5-18.84-15.86a169.31,169.31,0,0,0-15.46-11.77c-2.67-1.81-5.07-4-7.59-6.09-.65-.53-.66-1.05-.21-1.8.74-1.22,1.26-2.58,2-3.83a1.39,1.39,0,0,1,.93-.44.21.21,0,0,1,.15,0c2.37,1.86,4.69,3.79,7,5.73,4.32,3.59,8.63,7.21,13,10.8,6,4.95,11.92,9.94,18,14.8,6.87,5.53,13.84,10.94,20.77,16.39.49.38,1,.69,1.5,1.08a5.82,5.82,0,0,0,3.91,1.28c1.07,0,2.17-.17,3.25-.27,2.31-.21,4.6-.63,6.91-.82h.14a3.26,3.26,0,0,1,1.84.67c2.05,1.58,4,3.25,6,4.91a3.09,3.09,0,0,0,2,.81,3.5,3.5,0,0,0,1.61-.43c1.32-.66,2.7-1.2,4.38-1.94a5.15,5.15,0,0,1-.64.94c-2.24,1.89-4.49,3.78-6.78,5.62-.3.24-.84.17-1.39.26a3.36,3.36,0,0,1-3.26,1.51c-.72,0-1.51-.07-2.34-.1l1.36,1.71a3.8,3.8,0,0,1-2.75.92Zm19.11-27.79c-1.66-2.06-4-3.84-5-6.59a10.67,10.67,0,0,1-.14-3.24l7.25,6.9-2.13,2.93Zm2.28,11.51-.31-.15c.47-1.29.92-2.57,1.39-3.85.56-1.48,1.17-3-.33-4.07l2.95-2.82c1.89,1.15,2.13,2.17,1.06,4.3a35.46,35.46,0,0,1-4.76,6.59Z"/><path class="cls-1" d="M556.67,228.82c.93,0,1.87,0,2.78,0,3.27.09,6.56,1.27,10.37,3.71A157.53,157.53,0,0,1,583.07,242c4.09,3.25,8.1,6.78,12,10.18,1,.84,1.91,1.69,2.87,2.52A118.11,118.11,0,0,1,610,267.15a52.38,52.38,0,0,0,5.59,5.37c.91.8,1.86,1.62,2.75,2.45l.23.22c2.18,2,4.43,4.13,6.58,6.26h0l-.24,0a4.4,4.4,0,0,0-.49,0,1.59,1.59,0,0,0-.88.24c-.64.43-1.23.9-1.81,1.36l-.77.61-2,1.54-6.65,5.07c-2.29,1.74-4.6,3.47-6.9,5.21l-5.05,3.81a2.52,2.52,0,0,0-.86.93,1.83,1.83,0,0,0,.08,1.58,1.48,1.48,0,0,0,.9.66l.07,0,.56.25.48-.41.18-.16.21-.17,4.84-3.68,6.65-5.06.79-.59,11.08-8.47a2,2,0,0,0,.64-1.06c0-.07.05-.14.08-.2l0-.07.12.28.19.43c.3.65.57,1.32.85,2,.43,1,.88,2.11,1.4,3.15a13.37,13.37,0,0,0,4.25,5.13,44.6,44.6,0,0,1,5.76,4.54,66.64,66.64,0,0,0,9.1,7.15c1.5,1,3,2.11,4.51,3.22,1.68,1.28,3.38,2.61,5,3.89s3.13,2.45,4.71,3.66c4.6,3.5,9.15,6.91,13.79,10.38.92.69,1.84,1.4,2.76,2.11,2.38,1.83,4.83,3.73,7.43,5.35,2.4,1.5,3.23,3.52,2.89,7a6.3,6.3,0,0,0,1.51,4.74c2.67,3.24,5,6.06,7.23,8.62.25.3.29.43.11.87-.34.85-.64,1.71-.93,2.55l-.33,1c-.52,1.47-1.69,2.43-3.18,3.55a24.87,24.87,0,0,1-4.14,2.45,1.32,1.32,0,0,1-.51.09,1.36,1.36,0,0,1-.6-.12,31.91,31.91,0,0,1-4.73-3,10.4,10.4,0,0,0-6.7-2.51,12.15,12.15,0,0,0-2.36.25c-1.63.34-3.33.56-5,.76-1,.13-2,.26-3,.41a2.43,2.43,0,0,1-.38,0,4,4,0,0,1-2.43-1.14c-5.92-4.62-11.08-8.68-15.78-12.4l-.52-.41c-4.76-3.77-9.69-7.68-14.48-11.59-3.5-2.85-7-5.8-10.42-8.66l-3.29-2.77c-.92-.77-1.83-1.55-2.75-2.34-1.77-1.51-3.6-3.08-5.47-4.55-.44-.35-.9-.67-1.34-1a9.39,9.39,0,0,1-3-2.79,2.39,2.39,0,0,0-.68-.7h.05a2.86,2.86,0,0,0,1.38-.44l1.21-.84c1.86-1.3,3.8-2.64,5.59-4.13,4.26-3.5,8.51-7.15,12.61-10.67L628,295a2.09,2.09,0,0,0,.62-1.26,2.13,2.13,0,0,1,.07-.27l.52-1.55-1.62.24-.28,0a2.11,2.11,0,0,0-1.38.4c-.74.61-1.45,1.25-2.14,1.87s-1.63,1.46-2.47,2.14c-3.73,3-7.54,6-11.22,9l-4.6,3.66-.65.53a4.9,4.9,0,0,0-1-4.76,8.91,8.91,0,0,0-3-2.29,9.18,9.18,0,0,0-2.36-.59,12.19,12.19,0,0,1-1.31-.25l-.29-.08a7.56,7.56,0,0,1-2.19-.82,173.65,173.65,0,0,1-18.59-14.37c-7.08-6.35-14-12.72-19.82-18.11-3.37-3.12-6.1-5.78-8.6-8.38-3.74-3.89-4.42-8.65-2.12-15a21.23,21.23,0,0,1,1.46-3.09,8.17,8.17,0,0,1,5.12-4.19,43.68,43.68,0,0,0,7.2-2.87,5,5,0,0,1,2.11-.56,3.88,3.88,0,0,1,2.25.81c2.19,1.55,4.43,3.11,6.59,4.61q2.52,1.74,5,3.5c.86.61,1.73,1.27,2.56,1.9l1.26,1a2.41,2.41,0,0,0,1.42.56,2,2,0,0,0,1.75-1.21l.44-.77-.73-.53-2.66-1.93c-2.06-1.49-4.08-3-6.11-4.4s-4-2.86-6.21-4.29c-1.09-.71-2.25-1.33-3.37-1.92l-.44-.24a3.55,3.55,0,0,0-1.66-.41,6.71,6.71,0,0,0-2.38.57l-.22.09c-1.26.48-2.52,1-3.78,1.48-1.78.71-3.62,1.45-5.45,2.1a9.2,9.2,0,0,0-4.59,3.75,23.58,23.58,0,0,0-4,15.66,5,5,0,0,0,.37,1.47,26.72,26.72,0,0,0,6.61,9.17c3.89,3.74,7.55,7.15,11.19,10.44,2.92,2.65,5.92,5.31,8.82,7.88,2.19,1.94,4.37,3.87,6.54,5.82a174.58,174.58,0,0,0,18.46,14.16c.19.13.26.21.27.21h0a1.46,1.46,0,0,1-.12.39c-.72,1.76-1.39,3.57-2,5.31-.27.73-.54,1.46-.82,2.19a1.77,1.77,0,0,1-.21.41,1.52,1.52,0,0,1-.3-.21c-2.83-2.43-5.85-5-9.77-8.28l-3.71-3.07c-1.74-1.43-3.53-2.91-5.27-4.39-3.44-2.94-7.52-6.43-11.61-10.08l-2.38-2.1c-3.3-2.91-6.71-5.92-9.82-9.1a27.08,27.08,0,0,1-3.52-4.85c-.48-.77-1-1.57-1.5-2.34-.76-1.12-1.45-2.33-2.12-3.51a29.85,29.85,0,0,0-4.24-6.21c-3.38-3.53-7-5.25-11-5.25a15.45,15.45,0,0,0-3.32.38,9.58,9.58,0,0,1-1.88.22,2.64,2.64,0,0,0-2,.8,2.59,2.59,0,0,0-.32.47,4.46,4.46,0,0,0-3.08-2l-.74-.16-.48-.11c.05-.17.12-.38.18-.59s.14-.46.23-.73c1-3.26,2.19-5.38,4-6.85,1.19-1,2.35-2.05,3.47-3.06a44.33,44.33,0,0,1,7.92-6.2,33,33,0,0,1,5.65-2.68c-3,4.48-5.87,9.88-3.42,16.45,1,2.7,2.25,6.05,5,8.39l.5.43.59-.29.19-.09.19-.09.83-.41-.34-.86c-.05-.12-.09-.24-.13-.36a4.26,4.26,0,0,0-.48-1.06,22.2,22.2,0,0,1-3.07-8.63,8.17,8.17,0,0,1,.48-3.74c2-6,5.43-10,10.52-12.13a13.59,13.59,0,0,1,4.45-.9c2.35-.13,4.63-.2,6.8-.2m38.25,64.34a20.13,20.13,0,0,0,3.27-.27h.06l.06,0c3.65-1.05,6.18-2.6,8-4.88,1.58-2,3.3-4.82,2.6-8.33a21.75,21.75,0,0,0-4.54-9.77c-2.2-2.63-4.56-5.05-7.42-7.87-3.75-3.69-8-7.26-14-8.33a21.63,21.63,0,0,0-3.88-.39,11.58,11.58,0,0,0-6.92,2.12c-4.44,3.14-5.93,7.25-4.44,12.21.86,2.87,2,5.68,3.17,8.55a21.33,21.33,0,0,0,5,7.34,44.81,44.81,0,0,0,10.37,7.5,18.88,18.88,0,0,0,8.74,2.15m71.73,64-1-1.87c-.06-.11-.11-.22-.17-.34a3.18,3.18,0,0,0-.74-1.14c-.8-.75-1.65-1.44-2.47-2.12l-.67-.55-3.65-3c-3.75-3.1-7.62-6.31-11.45-9.44-1.11-.91-2.24-1.75-3.43-2.64l-.81-.6c.35-.4.67-.75,1-1.09l3.5-3.61c2.58-2.66,5.25-5.4,7.86-8.13a2.58,2.58,0,0,0,.6-1.35c0-.12.05-.24.09-.36l.62-1.89-1.89.64-.34.08a2.72,2.72,0,0,0-1.33.6c-1.37,1.32-2.71,2.71-4,4l-.59.61-6.16,6.37-2,2.07L637.91,332c-1.74-1.44-3.39-2.79-5.13-4.1-1.2-.91-2.41-1.79-3.63-2.68A97.43,97.43,0,0,1,617.76,316a2,2,0,0,0-1.25-.5l-.24,0-1.53-.38.32,1.55,0,.25a2,2,0,0,0,.46,1.3l.25.27a29.83,29.83,0,0,0,3,2.93c2.06,1.67,4.18,3.31,6.24,4.9l3,2.32,1.52,1.19q4.58,3.57,9.13,7.16l1.54,1.22c5.1,4,10.37,8.19,15.52,12.32,1.18.95,2.36,2,3.49,2.94s2.18,1.87,3.3,2.77a2.74,2.74,0,0,0,1.59.49,2.82,2.82,0,0,1,.43.05l2.09.4m-9.32-35.43h-.25l-.39,0a1.58,1.58,0,0,0-1.14.41c-1.9,1.89-3.79,3.85-5.61,5.75l-.9.93a1.54,1.54,0,0,0-.54,1.49,4,4,0,0,0,.46.92c.06.11.13.22.19.34l.64,1.13.93-.9.48-.45c.26-.26.46-.44.65-.64l1-1c1.66-1.71,3.37-3.48,5-5.24a2.05,2.05,0,0,0,.48-1.2,2,2,0,0,1,0-.24l.31-1.32-1.37.07M556.67,227.82q-3.43,0-6.86.21a14.53,14.53,0,0,0-4.77,1c-5.72,2.4-9.18,6.94-11.09,12.74a9.3,9.3,0,0,0-.52,4.22,23.41,23.41,0,0,0,3.23,9,7.17,7.17,0,0,1,.51,1.24l-.38.18c-2.46-2.09-3.63-5.08-4.71-8-2.55-6.87,1-12.23,4.67-17.51-.1,0-.17-.11-.23-.11h0a7.35,7.35,0,0,0-.84.15,29.2,29.2,0,0,0-7.25,3.17c-4.39,2.49-7.73,6.2-11.53,9.36a14.36,14.36,0,0,0-4.29,7.33c-.79,2.65-1,2.28,1.54,2.86a3.2,3.2,0,0,1,2.82,2.46c.35,1.47.95,2.87,1.44,4.3a2.25,2.25,0,0,0,.13-1.13c-.11-1-.31-2-.38-2.94s.3-1.92,1.61-2a10.36,10.36,0,0,0,2.07-.25,14.81,14.81,0,0,1,3.1-.35c4,0,7.35,1.84,10.32,4.94,2.68,2.81,4.11,6.44,6.25,9.59,1.68,2.47,3.08,5.23,5.13,7.33,3.88,4,8.11,7.57,12.25,11.25,3.84,3.41,7.73,6.76,11.63,10.09,3,2.53,6,5,9,7.47q4.9,4.11,9.77,8.27a1.69,1.69,0,0,0,1,.48c.44,0,.81-.36,1.08-1.09.95-2.49,1.86-5,2.86-7.47a1.23,1.23,0,0,0-.51-1.81,172.33,172.33,0,0,1-18.35-14.08c-5.11-4.58-10.28-9.09-15.36-13.69q-5.67-5.11-11.17-10.42a26.18,26.18,0,0,1-6.38-8.84,4.36,4.36,0,0,1-.3-1.18,22.58,22.58,0,0,1,3.81-15,8.19,8.19,0,0,1,4.1-3.36c3.11-1.12,6.16-2.41,9.25-3.59a6.64,6.64,0,0,1,2.24-.59,2.51,2.51,0,0,1,1.19.29c1.26.68,2.54,1.34,3.73,2.12,2.09,1.37,4.14,2.81,6.18,4.26,2.91,2.07,5.79,4.18,8.77,6.33-.29.51-.58.7-.88.7a1.47,1.47,0,0,1-.82-.37c-1.28-.95-2.54-1.95-3.85-2.87-3.86-2.71-7.75-5.38-11.6-8.11a4.84,4.84,0,0,0-2.83-1,5.74,5.74,0,0,0-2.55.67,43.93,43.93,0,0,1-7,2.8,9.22,9.22,0,0,0-5.72,4.66,22.76,22.76,0,0,0-1.52,3.24c-2.09,5.73-2.22,11.25,2.34,16,2.79,2.9,5.69,5.69,8.64,8.42q9.85,9.12,19.83,18.12a174.27,174.27,0,0,0,18.7,14.46,9.37,9.37,0,0,0,2.78,1,25.17,25.17,0,0,1,3.53.8,8,8,0,0,1,2.68,2c1.37,1.56,1,3.37.31,5.12-.29.69-.37,1.26.36,1.7s1.42.57,1.73,1.09c1.1,1.87,3,2.78,4.56,4,2.81,2.2,5.46,4.59,8.2,6.88,4.56,3.82,9.1,7.68,13.72,11.44,5,4.05,10,8,15,12q7.88,6.24,15.8,12.41a4,4,0,0,0,3.57,1.31c2.66-.41,5.36-.63,8-1.18a11,11,0,0,1,2.16-.23,9.5,9.5,0,0,1,6.08,2.29,32.4,32.4,0,0,0,4.87,3.1,2.29,2.29,0,0,0,1.08.24,2.32,2.32,0,0,0,.94-.19,26.27,26.27,0,0,0,4.31-2.55,9,9,0,0,0,3.52-4c.41-1.16.79-2.34,1.25-3.47a1.63,1.63,0,0,0-.28-1.9c-2.44-2.84-4.84-5.72-7.22-8.61a5.23,5.23,0,0,1-1.28-4c.32-3.23-.21-5.95-3.36-7.92-3.54-2.2-6.77-4.9-10.12-7.41q-6.91-5.18-13.78-10.38c-3.27-2.49-6.47-5.06-9.74-7.54-4.5-3.42-9.43-6.26-13.51-10.29a44.84,44.84,0,0,0-5.88-4.65,12.33,12.33,0,0,1-3.94-4.76c-.83-1.65-1.47-3.4-2.23-5.09A6.84,6.84,0,0,0,626,281c-2.3-2.29-4.67-4.5-7-6.72-2.76-2.58-5.82-4.89-8.26-7.74a121.36,121.36,0,0,0-12.16-12.57c-4.91-4.29-9.77-8.67-14.88-12.73a159.94,159.94,0,0,0-13.33-9.48c-3.27-2.09-6.88-3.75-10.88-3.86-.94,0-1.88,0-2.81,0Zm38.25,64.34a17.85,17.85,0,0,1-8.28-2,43.31,43.31,0,0,1-10.14-7.34,20.24,20.24,0,0,1-4.77-7,88.57,88.57,0,0,1-3.14-8.46c-1.41-4.67,0-8.24,4.06-11.1a10.55,10.55,0,0,1,6.34-1.94,20.84,20.84,0,0,1,3.7.38c5.55,1,9.67,4.27,13.52,8.05,2.54,2.51,5.06,5.06,7.35,7.8a20.93,20.93,0,0,1,4.33,9.32c.59,2.93-.73,5.37-2.41,7.52A13.82,13.82,0,0,1,598,291.9a19.29,19.29,0,0,1-3.11.26Zm5.93,9.34c-.15-.07-.4-.1-.47-.23a.89.89,0,0,1-.08-.67,2,2,0,0,1,.6-.6c4-3,8-6,11.93-9q4.33-3.28,8.65-6.61c.85-.64,1.66-1.34,2.54-1.92a.53.53,0,0,1,.32-.08c.22,0,.49.06.72.06-.14.3-.19.71-.42.88-3.94,3-7.9,6.05-11.86,9.07l-11.5,8.73c-.13.1-.25.22-.43.37Zm26.86-8.32c-.12.37-.14.88-.39,1.09-4.66,4-9.31,8-14,11.91-2.15,1.77-4.46,3.32-6.74,4.92a4.12,4.12,0,0,1-1.41.35L605,311l1.14-.94c5.28-4.2,10.57-8.39,15.82-12.62,1.59-1.28,3.06-2.71,4.63-4,.26-.22.77-.14,1.17-.2Zm37,62.58c-.54-.1-1.21,0-1.58-.33-2.3-1.86-4.49-3.87-6.79-5.72-5.66-4.54-11.37-9-17.07-13.54q-5.31-4.2-10.65-8.36c-3.08-2.4-6.19-4.75-9.22-7.2a32,32,0,0,1-3.16-3.11c-.22-.23-.17-.71-.24-1.07.34.08.8.05,1,.27,4.6,4.58,10,8.15,15.13,12,2.51,1.89,4.91,3.94,7.48,6l8.8-9.1c1.5-1.56,3-3.12,4.56-4.63.31-.29.86-.31,1.3-.46-.15.45-.17,1-.46,1.33-3.76,3.93-7.57,7.82-11.35,11.73-.57.58-1.09,1.2-1.74,1.93,1.77,1.35,3.46,2.56,5.07,3.87,5,4.13,10.07,8.31,15.1,12.47,1,.86,2.1,1.7,3.1,2.62a5.15,5.15,0,0,1,.71,1.24ZM650,331a5.7,5.7,0,0,1-.57-1.07c0-.12.17-.36.3-.5,2.16-2.23,4.3-4.47,6.49-6.66a.66.66,0,0,1,.44-.12l.64,0h.09c-.08.34-.07.78-.28,1-2,2.11-4,4.18-6,6.25-.28.29-.58.57-1.1,1.07Z"/><path class="cls-1" d="M525.31,255.81a7.59,7.59,0,0,1,1,.06,11.19,11.19,0,0,1,7.77,4.73c1,1.35,1.88,2.8,2.75,4.21l.74,1.2c.61,1,1.21,2,1.79,2.95a74.23,74.23,0,0,0,4,6.28,25.63,25.63,0,0,0,3.87,3.92c.48.42,1,.84,1.43,1.27,3.7,3.43,7.66,7.09,11.71,10.76,1.48,1.33,3,2.63,4.52,3.88l1.21,1,.57.48c3.08,2.59,6.28,5.28,9.44,7.89.92.76,1.86,1.5,2.78,2.22s2.13,1.68,3.16,2.55c.75.63,1.49,1.31,2.21,2s1.63,1.49,2.49,2.2l.15.12a6.67,6.67,0,0,0,3.12,1.76,9.94,9.94,0,0,1,6.08,3.38c4,4.24,8.85,7.58,13.51,10.81l1.7,1.18c2.75,1.92,5.39,4.13,7.93,6.27l2.57,2.14c2.26,1.86,4.54,3.77,6.74,5.61l6.14,5.12,4,3.32c3.67,3.06,7.45,6.22,11.32,9.16,7.31,5.54,14.53,10.76,21.49,15.53a9,9,0,0,0,5.16,1.69,9.36,9.36,0,0,0,5.53-1.91c.9-.65,1.85-1.31,2.76-1.93a73.2,73.2,0,0,0,6.57-4.94c2.38-2.08,4.59-4.4,6.73-6.64.63-.66,1.26-1.33,1.9-2a18.1,18.1,0,0,0,2,7.64c.17.36.31.74.46,1.15s.34.92.57,1.39a3.38,3.38,0,0,1,0,2.9c-.29.75-.61,1.52-.92,2.27a27.61,27.61,0,0,0-2.11,6.54c-.3,2.12-1.54,2.6-3.25,3.27l-.74.3a1.74,1.74,0,0,1-.48-.22c-.63-.41-1.27-.86-1.89-1.3-.8-.57-1.63-1.16-2.5-1.69a16.57,16.57,0,0,0-9-2.36,27.71,27.71,0,0,0-3.29.2c-2.11.25-4.59.55-7.09.95l-.26,0c-.24,0-.48,0-.82-.54l-.46-.68c-.39-.57-.8-1.16-1.17-1.75a2.38,2.38,0,0,0-2-1.27,2.75,2.75,0,0,0-1.23.32,2,2,0,0,1-.86.23,1.91,1.91,0,0,1-1-.3c-.8-.48-1.6-.94-2.4-1.4-1.2-.69-2.44-1.41-3.63-2.14l-2.27-1.38c-3.24-2-6.6-4-9.82-6.15-3-2-5.94-4.11-8.79-6.19l-1.12-.81c-1.9-1.38-3.82-2.83-5.68-4.23l-2.69-2c-1.46-1.1-2.93-2.18-4.39-3.27-3.35-2.49-6.81-5.07-10.17-7.65-1.45-1.12-2.87-2.34-4.25-3.53-1.1-.94-2.25-1.92-3.4-2.85-1.87-1.5-3.79-3-5.65-4.39L597,331l-.48-.38c-.66-.5-1.35-1-2-1.57a8.06,8.06,0,0,0-5.35-2.13,8.76,8.76,0,0,0-2.17.29l-.66.16a7.91,7.91,0,0,0-1.75.52,1,1,0,0,1-.37.11s-.17,0-.41-.23A155.94,155.94,0,0,0,570,316.28c-1-.71-1.18-1.43-.89-3a44.77,44.77,0,0,0,.57-5c0-.44.07-.89.11-1.33l5.7,4.11.71.51.6-.63a2,2,0,0,0,.69-1.62,1.93,1.93,0,0,0-.89-1.38l-2.15-1.55c-1.46-1.06-3-2.15-4.47-3.2a2.64,2.64,0,0,0-1.48-.58c-.55,0-1.5.27-1.66,2.05-.11,1.28-.23,2.56-.35,3.84-.17,1.91-.35,3.83-.51,5.74a.22.22,0,0,1,0,.08l-.93-.11c-2.25-.25-4.57-.5-6.84-.84-1.11-.16-2.25-.38-3.35-.59s-2.09-.4-3.14-.56a2.22,2.22,0,0,1-1.73-1c-2.68-4.07-5.46-8.24-8.5-12.74-.53-.78-1.09-1.54-1.64-2.28s-1.22-1.66-1.78-2.51a5.19,5.19,0,0,0,2.74.74l.67,0h.21a7.23,7.23,0,0,1,.76.06c.32,0,.64.07,1,.07a5.58,5.58,0,0,0,4-1.74,5.76,5.76,0,0,0,1.56-4.22,25.57,25.57,0,0,0-.3-2.55c-.17-1.07-.68-4.31-4.35-4.64a9.41,9.41,0,0,1-1.36-.28,9,9,0,0,0-2.11-.34h-.17a3.72,3.72,0,0,0-2,.89,6.81,6.81,0,0,1-.61.42l-.23.13-.23.13a7.84,7.84,0,0,0-3.29-.63c-.57,0-1.13,0-1.67.08l-.65,0-.39,0a1.84,1.84,0,0,1-2-1.17c-.54-1.18-1.14-2.34-1.72-3.46-.23-.43-.45-.86-.67-1.3a8.06,8.06,0,0,0-5-4.3.64.64,0,0,1-.26-.18c-.36-1.2-.68-2.44-1-3.64-.17-.67-.35-1.34-.53-2s-.08-.57.22-.68a2,2,0,0,0,1.25-2.64c-.43-1.92-.77-3.86-1.15-6.14l1.21-.19a21.18,21.18,0,0,1,3.34-.37m170,126.78.84-.59a8,8,0,0,0,3.36-7,5,5,0,0,0-1.29-3.74A4.67,4.67,0,0,0,694.8,370a8.2,8.2,0,0,0-1,.07,2.21,2.21,0,0,0-2.11,2.26,12.86,12.86,0,0,0,1.11,6.52,11.47,11.47,0,0,0,1.32,2.1l.59.84.57.85m-170-127.78a42,42,0,0,0-5.19.64c-.17,0-.43.58-.39.85.36,2.15.73,4.3,1.21,6.43.16.75.07,1.23-.63,1.48-.94.35-1.07,1-.83,1.88.51,1.91,1,3.84,1.53,5.73a1.52,1.52,0,0,0,.93.8,7,7,0,0,1,4.38,3.8c.8,1.56,1.63,3.11,2.37,4.71a2.82,2.82,0,0,0,2.94,1.76l.44,0c.75,0,1.51-.11,2.27-.11a6.6,6.6,0,0,1,3.14.67.24.24,0,0,0,.12,0,3.08,3.08,0,0,0,1-.45c.73-.41,1.42-1.17,2.15-1.19h.13c1.12,0,2.25.51,3.38.61,2.35.22,3.14,1.78,3.45,3.8a22.32,22.32,0,0,1,.29,2.46,4.65,4.65,0,0,1-4.58,4.9h0c-.58,0-1.17-.13-1.75-.13h-.32l-.56,0a4.59,4.59,0,0,1-3.56-1.73c-.19-.22-.61-.24-.92-.35l-.31.28a18,18,0,0,0,1.2,2.59c1.09,1.65,2.33,3.19,3.44,4.82q4.29,6.34,8.49,12.72a3.2,3.2,0,0,0,2.41,1.45c2.18.33,4.33.83,6.51,1.15,2.65.39,5.32.67,8,1h.15c.57,0,.74-.43.79-1,.27-3.2.57-6.39.85-9.59.07-.75.28-1.13.67-1.13a1.74,1.74,0,0,1,.91.4c2.21,1.55,4.4,3.16,6.6,4.74.58.41.69.85.07,1.5l-7.07-5.1c-.07.45-.12.68-.14.92-.23,2.33-.31,4.7-.74,7-.32,1.68-.17,2.9,1.28,4a152.72,152.72,0,0,1,13.83,11.45,1.57,1.57,0,0,0,1.09.5,2,2,0,0,0,.79-.2,13.7,13.7,0,0,1,2.24-.62,7.7,7.7,0,0,1,1.92-.26,7.08,7.08,0,0,1,4.7,1.88c.8.7,1.66,1.34,2.5,2,2.8,2.16,5.63,4.27,8.38,6.48,2.59,2.08,5,4.36,7.67,6.39,4.81,3.71,9.71,7.29,14.57,10.93,2.79,2.09,5.56,4.22,8.39,6.27,3.28,2.39,6.56,4.8,9.94,7,4,2.62,8.06,5.07,12.12,7.55,2,1.22,4,2.36,6,3.55a2.88,2.88,0,0,0,1.48.44,2.94,2.94,0,0,0,1.31-.34,1.76,1.76,0,0,1,.78-.21,1.44,1.44,0,0,1,1.21.81c.52.83,1.09,1.64,1.64,2.45a1.9,1.9,0,0,0,1.65,1,3.29,3.29,0,0,0,.42,0c2.34-.38,4.69-.67,7-.95a28.55,28.55,0,0,1,3.18-.19,15.65,15.65,0,0,1,8.45,2.21c1.49.92,2.89,2,4.37,3a2.28,2.28,0,0,0,1.07.39.56.56,0,0,0,.23,0c2.06-.88,4.25-1.29,4.7-4.4.43-2.95,1.9-5.75,3-8.59a4.39,4.39,0,0,0,0-3.7c-.4-.81-.64-1.7-1-2.52a16.85,16.85,0,0,1-1.87-7.62c0-.64.06-1.28.12-2.31-.49.57-.73.87-1,1.14-3.12,3.17-6.08,6.52-9.42,9.44-2.87,2.52-6.15,4.57-9.26,6.81a8.44,8.44,0,0,1-4.94,1.72,8.11,8.11,0,0,1-4.6-1.51q-10.9-7.49-21.44-15.51c-5.23-4-10.21-8.27-15.27-12.45-4.31-3.56-8.57-7.18-12.88-10.73-3.48-2.87-6.87-5.88-10.56-8.46-5.26-3.66-10.62-7.18-15.07-11.86a10.94,10.94,0,0,0-6.66-3.68,6.37,6.37,0,0,1-2.77-1.66c-1.62-1.33-3.1-2.82-4.7-4.17-2-1.63-4-3.15-5.94-4.77-3.36-2.77-6.68-5.57-10-8.37-1.91-1.6-3.85-3.19-5.7-4.87q-5.89-5.32-11.7-10.74a39.94,39.94,0,0,1-5.18-5.05c-2.14-2.9-3.86-6.1-5.78-9.17-1.15-1.84-2.26-3.71-3.53-5.46a12.1,12.1,0,0,0-8.46-5.14,8,8,0,0,0-1.1-.07ZM695.57,381.19a21.64,21.64,0,0,1-1.83-2.8,12,12,0,0,1-1-6c.06-.77.31-1.24,1.23-1.35a6.41,6.41,0,0,1,.85-.06c2.37,0,3.74,1.38,3.71,4,0,2.36-.56,4.56-2.94,6.24Z"/><path class="cls-1" d="M602.34,314.19C604.66,316,607,318,609,319.64c1.81,1.5,3.6,3,5.4,4.51,2.52,2.1,5,4.21,7.56,6.3l4.23,3.51c4.49,3.73,9.13,7.58,13.75,11.3,4.94,4,10,7.95,14.92,11.79l5.87,4.61c.24.19.49.36.75.54a8.54,8.54,0,0,1,.73.52,6.82,6.82,0,0,0,4.54,1.51,24,24,0,0,0,2.42-.17l.92-.1c1.11-.1,2.23-.25,3.31-.4s2.4-.32,3.59-.42h.06a2.22,2.22,0,0,1,1.23.47l.52.4a3.49,3.49,0,0,0-.65-.06,2.75,2.75,0,0,0-.57.05,4.24,4.24,0,0,0-2.7,1.81,4.85,4.85,0,0,0-.77,3.64c.45,2.42,1.48,3.45,2.44,3.87h-.19l1.34,1.7.63.8,0,0a4.24,4.24,0,0,1-1.27.17l-.68,0c-2.13-.18-3.95-1.22-6-2.73L666,370.1c-3-2.2-6.2-4.47-9.25-6.76-4.68-3.52-9.65-7.29-14.46-11.22-5.77-4.71-11.93-9.9-18.82-15.84a165.88,165.88,0,0,0-15.55-11.83,63.72,63.72,0,0,1-5.18-4.09c-.78-.66-1.55-1.32-2.34-1.95l-.15-.14a1.09,1.09,0,0,1,.17-.37c.42-.7.77-1.43,1.11-2.14.26-.55.51-1.07.79-1.57m79.57,52.34,1.69,1.41.65.55a4.1,4.1,0,0,0,2.65,1,4,4,0,0,0,1.07-.15c-1,.85-2,1.69-3.07,2.51a2.84,2.84,0,0,1-.35,0l-.64.06-.45.08-.24.39c-.46.76-1.09,1-2.4,1-.41,0-.85,0-1.31-.05l-.53,0a5.23,5.23,0,0,0,3.21-6,3.84,3.84,0,0,0-.28-.87m-79.43-53.42a1.39,1.39,0,0,0-.93.44c-.71,1.25-1.23,2.61-2,3.83-.45.75-.44,1.27.21,1.8,2.52,2.05,4.92,4.28,7.59,6.09A169.31,169.31,0,0,1,622.84,337c6.22,5.36,12.48,10.67,18.84,15.86,4.73,3.86,9.61,7.56,14.49,11.24,4.5,3.38,9.09,6.62,13.63,9.93a13,13,0,0,0,6.53,2.92l.76,0a3.8,3.8,0,0,0,2.75-.92l-1.36-1.71c.83,0,1.62.1,2.34.1a3.36,3.36,0,0,0,3.26-1.51c.55-.09,1.09,0,1.39-.26,2.29-1.84,4.54-3.73,6.78-5.62a5.15,5.15,0,0,0,.64-.94c-1.68.74-3.06,1.28-4.38,1.94a3.5,3.5,0,0,1-1.61.43,3.09,3.09,0,0,1-2-.81c-2-1.66-3.95-3.33-6-4.91a3.26,3.26,0,0,0-1.84-.67h-.14c-2.31.19-4.6.61-6.91.82-1.08.1-2.18.27-3.25.27a5.82,5.82,0,0,1-3.91-1.28c-.47-.39-1-.7-1.5-1.08-6.93-5.45-13.9-10.86-20.77-16.39-6.05-4.86-12-9.85-18-14.8-4.33-3.59-8.64-7.21-13-10.8-2.32-1.94-4.64-3.87-7-5.73a.21.21,0,0,0-.15,0Zm75.36,59.47c-1.38,0-2.34-1.15-2.75-3.31a3.66,3.66,0,0,1,2.67-4.29,2.56,2.56,0,0,1,.39,0,3.38,3.38,0,0,1,3.06,2.65c.45,2.17-.88,4.51-2.77,4.92a3.21,3.21,0,0,1-.6.06Z"/><path class="cls-1" d="M499.86,235.65l.08.41c.37,1.73.76,3.51,1.25,5.24,1.34,4.71,2.74,9.48,4.1,14.09.76,2.6,1.53,5.19,2.28,7.79.66,2.26,1.17,4.15,1.61,5.93a1,1,0,0,1,0,.38c-.71.69-1.48,1.34-2.28,2-.08-.24-.16-.48-.23-.72l-1.14-3.95c-1.39-4.78-2.83-9.73-4.2-14.6-1.14-4.08-2.26-8.29-3.32-12.53a2.23,2.23,0,0,1,.28-1.25c.49-.95,1.05-1.89,1.6-2.82m.14-2.22c-.88,1.53-1.82,3-2.63,4.59A3.11,3.11,0,0,0,497,240q1.58,6.3,3.33,12.56c1.74,6.19,3.55,12.37,5.34,18.55.22.76.5,1.5.72,2.16,1.25-1.08,2.42-2,3.49-3.07a1.61,1.61,0,0,0,.26-1.28c-.49-2-1-4-1.62-6-2.12-7.29-4.3-14.57-6.38-21.87-.7-2.48-1.17-5-1.75-7.55l-.4,0Z"/><path class="cls-1" d="M512.32,255.47a4.89,4.89,0,0,1,1.38.31l.4.13a1.31,1.31,0,0,1,.44.26,35.41,35.41,0,0,1,1.4,4.23c.63,2.38,1.22,4.81,1.79,7.17l.33,1.36a17.49,17.49,0,0,0-3.73-1c-.88-.1-1-.2-1.17-.95-.92-3.34-1.87-6.72-2.81-10.06l.84-.91a1.46,1.46,0,0,1,1.13-.57m-8.81-24.57c-.25.68-.78,1.4-.69,2a35.05,35.05,0,0,0,1.1,4.93c2.75,9.8,5.56,19.59,8.28,29.41a1.91,1.91,0,0,0,2,1.67,30.52,30.52,0,0,1,5.15,1.46c-.05-.28-.1-.78-.22-1.27-.73-3-1.44-6-2.23-9a41.56,41.56,0,0,0-1.43-4.34,1.86,1.86,0,0,0-1.09-.85,7.24,7.24,0,0,0-2.07-.48,2.48,2.48,0,0,0-1.86.88L504,230.94l-.45,0Z"/><path class="cls-1" d="M519.9,282.2l.14.09a33,33,0,0,0,3.29,2.12,7.34,7.34,0,0,0,3.75.89c.62,0,1.23-.05,1.82-.09s.88-.06,1.31-.07l1.6-.06c1.09,0,2.2-.08,3.3-.08h.09l.41,0a4.68,4.68,0,0,1-.09.58,15,15,0,0,0-.27,2.17c0,.46-.07.89-.13,1.31a.74.74,0,0,1,0,.14l-2.31.14c-1.42.1-2.77.19-4.08.19-.73,0-1.38,0-2-.09a12.68,12.68,0,0,1-4.59-1.84l-.19-.11a39.68,39.68,0,0,1-3.83-2.54l-1.05-.75a19.66,19.66,0,0,0,2.78-1.94l.1-.08m0-1a1.19,1.19,0,0,0-.73.34,17.63,17.63,0,0,1-2.82,1.94c-.88.49-.85.92-.12,1.43a59.94,59.94,0,0,0,5.2,3.51,14.1,14.1,0,0,0,5.18,2.07c.69.06,1.39.09,2.09.09,2.24,0,4.56-.26,7.06-.36a3.67,3.67,0,0,0,.36-1c.16-1.13.15-2.3.39-3.41.29-1.39.11-1.81-1.3-1.81h-.09c-1.65,0-3.29.09-4.93.14-1,0-2.07.16-3.1.16a6.2,6.2,0,0,1-3.25-.76,31.57,31.57,0,0,1-3.2-2.05,1.27,1.27,0,0,0-.74-.32Z"/><path class="cls-1" d="M513.5,272.74a5.86,5.86,0,0,1,1.85.32l-.08,0a2.57,2.57,0,0,0-1.09.42c-.5.37-1,.78-1.45,1.2-.49-.43-1-.84-1.44-1.23l-.21-.13a5.34,5.34,0,0,1,2.42-.6m3.35,1.34a5.44,5.44,0,0,1,0,4.42,1.51,1.51,0,0,0-.32-.47,9.45,9.45,0,0,0-1.17-1l-.39-.3.29-.25a4.84,4.84,0,0,0,.86-.84,3.18,3.18,0,0,0,.5-1,2.47,2.47,0,0,1,.1-.29l.11-.27m-7.31,1.78.51.51.46.48a4.56,4.56,0,0,1-.66.66,3.48,3.48,0,0,1-.31-1.65m3.33,3,.14.07c.41.29.8.6,1.2.93a8.46,8.46,0,0,1-1.29.27,3.33,3.33,0,0,1-1.11-.41c.36-.31.7-.6,1.06-.86m.63-7.14a6.35,6.35,0,0,0-3.05.8c-2.15,1.15-2.6,4.62-.76,6.46.69-.69,1.63-1.27,1.94-2.1.15-.38-1-1.24-1.49-1.88,0,0-.07-.06-.08-.1l-.12-.85a2.12,2.12,0,0,1,.73.19c.67.53,1.3,1.11,2.06,1.77.74-.63,1.36-1.22,2-1.73a3.73,3.73,0,0,1,1-.33,4.33,4.33,0,0,1-.46,1.1,7.9,7.9,0,0,1-1.08,1,.82.82,0,0,0,.05,1.44,16.65,16.65,0,0,1,1.52,1.23c.21.21.23.62.33.94l-.39.19c-.73-.59-1.43-1.2-2.2-1.74a1.74,1.74,0,0,0-.84-.3.33.33,0,0,0-.19.05,30,30,0,0,0-2.35,1.93c.19.23.28.41.41.47a7.46,7.46,0,0,0,2.31.87h.16a22.55,22.55,0,0,0,4-1.21c.1,0,.17-.18.24-.27a6.15,6.15,0,0,0,.2-6.43,2,2,0,0,0-.6-.59,7.32,7.32,0,0,0-3.41-.91Z"/><path class="cls-1" d="M541.16,283.88h0A2.12,2.12,0,0,1,542.9,285a14.44,14.44,0,0,1,.7,1.58c.08.22.16.43.25.65a2.28,2.28,0,0,0,0,.26,2,2,0,0,1,0,.49,5.11,5.11,0,0,1-2.69,3.23,1.59,1.59,0,0,1-.74.18,2.16,2.16,0,0,1-2-1.8c-.48-2.66.18-4.32,2.21-5.54a1,1,0,0,1,.52-.13m0-1a2,2,0,0,0-1,.28c-2.57,1.55-3.18,3.75-2.67,6.56a3.15,3.15,0,0,0,3,2.63,2.56,2.56,0,0,0,1.2-.29,6.11,6.11,0,0,0,3.2-3.86,4.6,4.6,0,0,0,0-1.23,24.09,24.09,0,0,0-1.07-2.5,3.12,3.12,0,0,0-2.61-1.59Z"/><path class="cls-1" d="M512.87,227.37l0,.15c.33,1.43.64,2.82,1,4.21.16.68.31,1.36.47,2,.43,1.87.87,3.8,1.36,5.7.38,1.44.48,1.82-.32,2.49l-.06-.28c-.28-1.26-.54-2.44-.86-3.63-.68-2.54-1.44-5.19-2.26-7.87a3.84,3.84,0,0,1,.67-2.81m.55-2.06c-1.74,1.28-2.62,3.7-2.17,5.16.79,2.6,1.54,5.22,2.25,7.84.45,1.7.8,3.44,1.24,5.37,2.49-1.75,2.56-2.07,1.93-4.47-.67-2.55-1.23-5.13-1.83-7.71-.47-2-.93-4-1.42-6.19Z"/><path class="cls-1" d="M507.79,230.74l1,3.49c.94,3.4,1.9,6.91,2.93,10.36a3.68,3.68,0,0,1,.17,1l-.54-1.84-.75-2.52c-.9-3-1.82-6.07-2.79-9.09a2.1,2.1,0,0,1,0-1.4m.18-2.59c-.78,1.52-1.68,2.63-1.15,4.29,1.23,3.85,2.37,7.73,3.53,11.6.47,1.56.91,3.13,1.45,5,.89-1.72,1.35-3.06.84-4.75-1.48-4.94-2.79-9.92-4.18-14.89a13,13,0,0,0-.49-1.26Z"/><path class="cls-1" d="M601.78,308.8a4.83,4.83,0,0,1-.52,1.29c-.82,1.61-1.74,3.21-2.62,4.77l-.58,1a8.17,8.17,0,0,0-2.55-2.27v-.05a39.14,39.14,0,0,1,3.92-3.41,16.32,16.32,0,0,1,2.34-1.35m.77-1.53a34.6,34.6,0,0,0-3.71,2.07,43,43,0,0,0-4.13,3.62,1.47,1.47,0,0,0-.11,1.29,7,7,0,0,1,3,2.77c.1.18.4.24.61.36a2.28,2.28,0,0,0,.38-.4c1.2-2.13,2.44-4.25,3.56-6.43a3.48,3.48,0,0,0,.4-3.28Z"/><path class="cls-1" d="M525.64,221.15c.28,1.25.56,2.45.84,3.65.39,1.61.8,3.22,1.2,4.82l.15.59c.36,1.4.44,1.73-.46,2.17l-.14-.61c-.32-1.36-.64-2.71-.93-4.07-.1-.46-.17-.92-.24-1.42a14.54,14.54,0,0,0-.6-2.7,2.63,2.63,0,0,1,.18-2.43m.54-2.11c-1.58,1.42-2.38,2.82-1.66,4.87a31.11,31.11,0,0,1,.8,4c.42,1.94.89,3.88,1.34,5.84,2.45-.94,2.73-1.46,2.14-3.79-.45-1.79-.91-3.59-1.35-5.4s-.82-3.58-1.27-5.52Z"/><path class="cls-1" d="M517,225.44l.06.3,1,4.42c.14.63.27,1.27.41,1.9a42,42,0,0,0,1.08,4.43,1.69,1.69,0,0,1-.06,1.57l-.5-2.16c-.74-3.22-1.47-6.4-2.19-9.58a1.05,1.05,0,0,1,.18-.88m.12-1.84c-.6.9-1.57,1.61-1.27,2.94,1,4.41,2,8.82,3,13.35,1.58-1,2.17-2,1.62-3.7-.65-2-1-4.17-1.47-6.26s-1-4.21-1.45-6.32Z"/><path class="cls-1" d="M521.6,226.26c.28,1.12.58,2.24.87,3.35s.63,2.37.93,3.55a4.36,4.36,0,0,1,.23,1.54,1.33,1.33,0,0,1-.34.33l-.37-1.9q-.67-3.44-1.32-6.87m-.17-5.11c-1.37,2.15-1.4,2.16-1,4.34.7,3.71,1.43,7.42,2.15,11.16,2.25-1.3,2.35-1.5,1.79-3.73-.61-2.4-1.27-4.78-1.87-7.17-.37-1.46-.68-2.94-1.07-4.6Z"/><path class="cls-1" d="M692,341.7l2.05,1.95,2.92,2.77-.88,1.2-.78-.85a13.85,13.85,0,0,1-3.2-4.47,2.57,2.57,0,0,1-.11-.6m-1-2.3a10.67,10.67,0,0,0,.14,3.24c1,2.75,3.32,4.53,5,6.59l2.13-2.93-7.25-6.9Z"/><path class="cls-1" d="M702.29,351.13c.76.59.79,1.12.06,2.57a20.49,20.49,0,0,1-1.53,2.51,3.83,3.83,0,0,0-.17-3.51l1.28-1.23.36-.34m-.11-1.28-2.95,2.82c1.5,1.11.89,2.59.33,4.07-.47,1.28-.92,2.56-1.39,3.85l.31.15a35.46,35.46,0,0,0,4.76-6.59c1.07-2.13.83-3.15-1.06-4.3Z"/><path class="cls-1" d="M530.08,218.33c-1.08.92-1.61,1.7-1.2,3.15.9,3.19,1.53,6.45,2.27,9.67,1.7-.51,1.7-.51,1.33-2.23-.05-.24-.08-.48-.13-.72-.75-3.25-1.49-6.49-2.27-9.87Z"/><path class="cls-1" d="M535,226.59l.3,1.2a9.33,9.33,0,0,1,.21,1l-.18,0-.24-1.64-.09-.6M533.46,218a6.22,6.22,0,0,0-.42,2c.41,3.3.93,6.58,1.42,9.95,2.15-.19,2.29-.38,1.79-2.39-.63-2.51-1.27-5-1.89-7.54-.16-.64-.3-1.3-.45-1.95l-.45,0Z"/><path class="cls-1" d="M536.92,218.24a3.23,3.23,0,0,0-.22,1c.46,3.1,1,6.18,1.44,9.29.1.74.37,1,.79,1a2.16,2.16,0,0,0,.87-.25c-.87-3.76-1.71-7.42-2.55-11.07l-.33,0Z"/><path class="cls-1" d="M523.5,278.21a5.18,5.18,0,0,1,.35.92l0,.06c-.4-.24-.79-.48-1.16-.74a4.49,4.49,0,0,1,.79-.24m.09-1a4.15,4.15,0,0,0-1.29.33c-.85.31-1.08,1.06-.37,1.58,1,.74,2.11,1.31,3.18,2l.33-.31c-.21-.64-.43-1.28-.64-1.93-.37-1.17-.61-1.63-1.21-1.63Z"/><path class="cls-1" d="M521.57,273.76a2.74,2.74,0,0,0-.56.06c.07,1.27.19,1.78.83,1.78a5.62,5.62,0,0,0,1.67-.45,2.06,2.06,0,0,0-1.94-1.39Z"/><path class="cls-1" d="M579,254.29v1a19.6,19.6,0,0,1,3.53.36c5.45,1,9.46,4.32,13,7.78,2.83,2.79,5.15,5.16,7.29,7.73a19.77,19.77,0,0,1,4.12,8.88,6.15,6.15,0,0,1-.1,2.86,16.82,16.82,0,0,0-1.18-4.74c-1.58-3.79-4.14-6.94-6.62-10-.41-.5-.84-1-1.3-1.52l-.66-.77-1.34-1.57-.4,2c-.31,1.61-.6,1.63-1.59,1.71a1.56,1.56,0,0,1-1.28-.85c-.21-.87,0-1.37,1.71-2.2l1.28-.62-1-1-.4-.4a5.89,5.89,0,0,0-.93-.86l-1.16-.81c-1.42-1-2.89-2-4.42-2.94a18.47,18.47,0,0,0-9.61-2.82c-.41,0-.83,0-1.25,0l-.45,0a10.72,10.72,0,0,1,2.79-.34v-1m-.62,24.91h.26a1.77,1.77,0,0,1,1,.55c.26.67.11,1,.06,1.06a2.69,2.69,0,0,1-1.71,1l-.8.21c-.19-.19-.38-.37-.56-.57l.2-.76c.37-1.31,1-1.48,1.59-1.48m.62-24.91a10.55,10.55,0,0,0-6.34,1.94c-4,2.86-5.47,6.43-4.06,11.1a88.57,88.57,0,0,0,3.14,8.46,20.24,20.24,0,0,0,4.77,7,43.31,43.31,0,0,0,10.14,7.34,17.85,17.85,0,0,0,8.28,2,19.29,19.29,0,0,0,3.11-.26,13.82,13.82,0,0,0,7.45-4.54c1.68-2.15,3-4.59,2.41-7.52a20.93,20.93,0,0,0-4.33-9.32c-2.29-2.74-4.81-5.29-7.35-7.8-3.85-3.78-8-7.06-13.52-8.05a20.84,20.84,0,0,0-3.7-.38Zm-3.17,26.13a15.24,15.24,0,0,1-1.22-1.49,43.3,43.3,0,0,1-5.13-12.4c-.76-3.1-.4-6.08,2.31-8.16a9.14,9.14,0,0,1,4.94-1.78c.4,0,.79,0,1.18,0a17.67,17.67,0,0,1,9.1,2.68c1.9,1.13,3.7,2.44,5.52,3.71a10.58,10.58,0,0,1,1.2,1.16c-1.52.72-2.69,1.54-2.25,3.34a2.51,2.51,0,0,0,2.25,1.61h.12c1.55-.12,2.09-.63,2.45-2.51.71.83,1.34,1.54,1.94,2.28,2.48,3,5,6.08,6.48,9.73a16.14,16.14,0,0,1,1.14,4.89,4.52,4.52,0,0,1-1,2.81,11.88,11.88,0,0,1-9.58,4.87h-.19c-6.12,0-10.86-3.3-15.4-7-.44-.35-.83-.76-1.48-1.37,1.88-.5,3-1.5,2.32-3.36a2.47,2.47,0,0,0-1.79-1.18l-.36,0a2.58,2.58,0,0,0-2.55,2.22Z"/><path class="cls-1" d="M616,316.43c.07.36,0,.84.24,1.07a32,32,0,0,0,3.16,3.11c3,2.45,6.14,4.8,9.22,7.2q5.33,4.17,10.65,8.36c5.7,4.5,11.41,9,17.07,13.54,2.3,1.85,4.49,3.86,6.79,5.72.37.3,1,.23,1.58.33a5.15,5.15,0,0,0-.71-1.24c-1-.92-2.06-1.76-3.1-2.62-5-4.16-10.05-8.34-15.1-12.47-1.61-1.31-3.3-2.52-5.07-3.87.65-.73,1.17-1.35,1.74-1.93,3.78-3.91,7.59-7.8,11.35-11.73.29-.31.31-.88.46-1.33-.44.15-1,.17-1.3.46-1.56,1.51-3.06,3.07-4.56,4.63l-8.8,9.1c-2.57-2.09-5-4.14-7.48-6-5.15-3.88-10.53-7.45-15.13-12-.21-.22-.67-.19-1-.27Z"/><path class="cls-1" d="M627.71,293.18c-.4.06-.91,0-1.17.2-1.57,1.31-3,2.74-4.63,4-5.25,4.23-10.54,8.42-15.82,12.62L605,311l.18.49a4.12,4.12,0,0,0,1.41-.35c2.28-1.6,4.59-3.15,6.74-4.92,4.73-3.9,9.38-7.91,14-11.91.25-.21.27-.72.39-1.09Z"/><path class="cls-1" d="M624.34,282.39a.53.53,0,0,0-.32.08c-.88.58-1.69,1.28-2.54,1.92q-4.32,3.32-8.65,6.61c-4,3-8,6-11.93,9a2,2,0,0,0-.6.6.89.89,0,0,0,.08.67c.07.13.32.16.47.23.18-.15.3-.27.43-.37l11.5-8.73c4-3,7.92-6,11.86-9.07.23-.17.28-.58.42-.88-.23,0-.5-.06-.72-.06Z"/><path class="cls-1" d="M656.69,322.68a.66.66,0,0,0-.44.12c-2.19,2.19-4.33,4.43-6.49,6.66-.13.14-.34.38-.3.5A5.7,5.7,0,0,0,650,331c.52-.5.82-.78,1.1-1.07,2-2.07,4-4.14,6-6.25.21-.22.2-.66.28-1h-.09l-.64,0Z"/><path class="cls-1" d="M694.8,372h0a2.7,2.7,0,0,1,2,.68,3.15,3.15,0,0,1,.71,2.31,6.17,6.17,0,0,1-1.74,4.79h0l-.19-.27.2-.35a5.47,5.47,0,0,0-1.55-7.13l.58,0m0-1a6.41,6.41,0,0,0-.85.06c-.92.11-1.17.58-1.23,1.35a12,12,0,0,0,1,6,21.64,21.64,0,0,0,1.83,2.8c2.38-1.68,2.91-3.88,2.94-6.24,0-2.62-1.34-4-3.71-4Zm.11,7.66c-.43-1.85-.85-3.7-1.35-5.86a4.48,4.48,0,0,1,1.35,5.86Z"/><path class="cls-1" d="M679.76,366.83a2.33,2.33,0,0,1,.47,1,3.56,3.56,0,0,1-.4,2.45,3.64,3.64,0,0,0-.11-.39,2.76,2.76,0,0,1-.08-.27l-.2-.87-.88.1-.67.07L677,369v2.27a4.14,4.14,0,0,1-.93-2.16,2.9,2.9,0,0,1,.28-1.83l0,.91.93,0,.28,0a4.38,4.38,0,0,0,.51,0,2.11,2.11,0,0,0,.77-.14,1.6,1.6,0,0,0,.86-1.19l0-.08M678.15,365a2.56,2.56,0,0,0-.39,0,3.66,3.66,0,0,0-2.67,4.29c.41,2.16,1.37,3.31,2.75,3.31a3.21,3.21,0,0,0,.6-.06c1.89-.41,3.22-2.75,2.77-4.92a3.38,3.38,0,0,0-3.06-2.65Zm.72,1.39c-.12.29-.16.75-.36.83a1.09,1.09,0,0,1-.4.07c-.25,0-.51-.05-.76-.06l0-.49,1.54-.35Zm-.87,5v-1.49l.67-.07a3.13,3.13,0,0,1,.22,1.16c0,.19-.58.27-.89.4Z"/><path class="cls-1" d="M577.9,257.55a15.08,15.08,0,0,1,3.53.42c-.31,0-.62,0-.92,0a10.34,10.34,0,0,0-2.86.4c-4.23,1.2-6.28,6.27-6.62,9.39q0,.33,0,.66c-.2-.69-.39-1.38-.56-2.09-.78-3.19-.14-5.52,1.95-7.13a8.06,8.06,0,0,1,4.41-1.57c.37,0,.74,0,1.1,0m7.4,1.88c.4.2.79.42,1.19.66,1.47.87,2.9,1.88,4.29,2.85l1.17.82.12.1a3.31,3.31,0,0,0-1.57,3.82,3.47,3.47,0,0,0,3.22,2.37h.2a3,3,0,0,0,2.76-1.52c.27.31.53.61.78.92,2.39,2.93,4.86,6,6.33,9.49a14.91,14.91,0,0,1,1.06,4.58,3.54,3.54,0,0,1-.79,2.12,10.86,10.86,0,0,1-8.8,4.48h-.18c-6,0-10.56-3.34-14.77-6.76a3,3,0,0,1-.28-.24,3.27,3.27,0,0,0,1.4-1.38,3.2,3.2,0,0,0,0-2.68,3.42,3.42,0,0,0-2.62-1.82l-.47,0a3.32,3.32,0,0,0-2.79,1.4c0-.07-.09-.13-.12-.19a41.68,41.68,0,0,1-2.75-5.31h.1l.35,0,.35,0,1-.1-.11-1,0-.45a7.21,7.21,0,0,0-.17-1.24c-.78-2.84.4-5.14,2.4-7.71a5.44,5.44,0,0,1,1.85-1.16,4.4,4.4,0,0,1,1.86-.39,11.87,11.87,0,0,1,3.06.56,1.63,1.63,0,0,0,.45.06,3.18,3.18,0,0,0,.83-.14l.25-.07,1.61-.28-1-1.31-.13-.21-.09-.15m-7.4-2.88c-.39,0-.78,0-1.18,0a9.14,9.14,0,0,0-4.94,1.78c-2.71,2.08-3.07,5.06-2.31,8.16a43.3,43.3,0,0,0,5.13,12.4,15.24,15.24,0,0,0,1.22,1.49,2.58,2.58,0,0,1,2.55-2.22l.36,0a2.47,2.47,0,0,1,1.79,1.18c.71,1.86-.44,2.86-2.32,3.36.65.61,1,1,1.48,1.37,4.54,3.68,9.28,7,15.4,7h.19a11.88,11.88,0,0,0,9.58-4.87,4.52,4.52,0,0,0,1-2.81,16.14,16.14,0,0,0-1.14-4.89c-1.52-3.65-4-6.7-6.48-9.73-.6-.74-1.23-1.45-1.94-2.28-.36,1.88-.9,2.39-2.45,2.51h-.12a2.51,2.51,0,0,1-2.25-1.61c-.44-1.8.73-2.62,2.25-3.34a10.58,10.58,0,0,0-1.2-1.16c-1.82-1.27-3.62-2.58-5.52-3.71a17.67,17.67,0,0,0-9.1-2.68Zm-5.19,15.54c-.25-1.42-.83-2.88-.68-4.26.31-2.91,2.24-7.5,5.89-8.54a9.4,9.4,0,0,1,2.59-.36,11,11,0,0,1,3.55.62c.28.1.45.56.67.85a6.15,6.15,0,0,1-.91.19.55.55,0,0,1-.18,0,12.56,12.56,0,0,0-3.33-.6,5.35,5.35,0,0,0-2.28.48,6,6,0,0,0-2.22,1.45c-1.94,2.5-3.51,5.17-2.58,8.6a10.85,10.85,0,0,1,.18,1.53l-.7.06Z"/><path class="cls-1" d="M693.56,372.75c.5,2.16.92,4,1.35,5.86a4.48,4.48,0,0,0-1.35-5.86Z"/><path class="cls-1" d="M678.87,366.34l-1.54.35,0,.49c.25,0,.51.06.76.06a1.09,1.09,0,0,0,.4-.07c.2-.08.24-.54.36-.83Z"/><path class="cls-1" d="M678.66,369.8l-.66.07v1.49c.31-.13.84-.21.88-.4a2.94,2.94,0,0,0-.22-1.16Z"/><path class="cls-1" d="M580.51,258.93a9.4,9.4,0,0,0-2.59.36c-3.65,1-5.58,5.63-5.89,8.54-.15,1.38.43,2.84.68,4.26l.7-.06a10.85,10.85,0,0,0-.18-1.53c-.93-3.43.64-6.1,2.58-8.6a6,6,0,0,1,2.22-1.45,5.35,5.35,0,0,1,2.28-.48,12.56,12.56,0,0,1,3.33.6.55.55,0,0,0,.18,0,6.15,6.15,0,0,0,.91-.19c-.22-.29-.39-.75-.67-.85a11,11,0,0,0-3.55-.62Z"/><path class="cls-1" d="M144.64,330.79c-30.28,0-59.73-18.62-59.73-59.71s29.45-59.55,60.54-59.55,44.19,16.77,47.46,20.13l-24.55,21a30.91,30.91,0,0,0-22.91-10.07c-13.09,0-23.4,10.07-23.4,28.52s10.31,28.51,23.4,28.51S161,295.4,161,295.4V287H143V259h54v50.66C188,318,174.91,330.79,144.64,330.79Z"/><path class="cls-1" d="M218,329V213h38V329Z"/><path class="cls-1" d="M323.43,329H280V213h43.43c38.26,0,65.15,16.31,65.15,58S361.69,329,323.43,329Zm2.26-85H317v53h8.69c16.89,0,24.24-9.59,24.24-26.08C349.93,254.1,343.25,244,325.69,244Z"/><path class="cls-1" d="M474.34,329l-4.42-16H437.63l-4.26,16H393.72l40.09-116h41.76l40.09,116Zm-20.48-76-8.5,31h17Z"/><path class="cls-1" d="M115.14,390H90V337h21.07c4.44,0,9.24.38,12.94,1.92a12.21,12.21,0,0,1,7.54,11.52,12.69,12.69,0,0,1-7.17,11.75c5.91,1.69,9.76,6.3,9.76,12.45C134.14,386.24,124.82,390,115.14,390Zm-5.67-41H106v8h3.47c2.61,0,5.39-.64,5.39-4C114.86,349.48,112.16,349,109.47,349Zm2.44,19H106v9h5.91c2.83,0,5.51-1.06,5.51-4.5C117.42,368.9,114.9,368,111.91,368Z"/><path class="cls-1" d="M173.35,390l-2.15-8H155.57l-2.07,8H136.81l17.75-53H173l17.74,53Zm-9.93-35.31L159.63,369h7.59Z"/><path class="cls-1" d="M223.47,390l-8.29-18H213v18H196V337h22.57c6.39,0,11.28,1.15,15,3.84A15.75,15.75,0,0,1,240,353.9c0,10.75-6.39,14.59-8.65,16L243,390Zm-2.75-39a5.46,5.46,0,0,0-3.61-1H213v9h4.11c2.82,0,5.42-1.13,5.42-4.5A3.77,3.77,0,0,0,220.72,351Z"/><path class="cls-1" d="M273.14,390H248V337h21.07c4.44,0,9.24.38,12.94,1.92a12.21,12.21,0,0,1,7.54,11.52,12.69,12.69,0,0,1-7.17,11.75c5.91,1.69,9.76,6.3,9.76,12.45C292.14,386.24,282.82,390,273.14,390Zm-4.67-41H265v8h3.47c2.61,0,5.39-.64,5.39-4C273.86,349.48,271.16,349,268.47,349Zm2.44,19H265v9h5.91c2.83,0,5.51-1.06,5.51-4.5C276.42,368.9,273.9,368,270.91,368Z"/><path class="cls-1" d="M300,390V336h36v14H316v6h19v14H316v6h21v14Z"/><path class="cls-1" d="M372.47,390l-8.29-18H362v18H345V337h22.57c6.39,0,11.28,1.15,15,3.84A15.75,15.75,0,0,1,389,353.9c0,10.75-6.39,14.59-8.65,16L392,390Zm-2.75-39a5.46,5.46,0,0,0-3.61-1H362v9h4.11c2.82,0,5.42-1.13,5.42-4.5A3.77,3.77,0,0,0,369.72,351Z"/><path class="cls-1" d="M427.63,386.24c-4.09,3.25-9.23,4.56-15.18,4.56a31.72,31.72,0,0,1-19.8-7.11l7.44-13.15c4.77,4.18,11.46,5.8,13.7,5.8s3.79-.7,3.79-2.24-1.86-2.17-3.72-2.79-5.95-1.93-7.44-2.47c-7.15-2.94-11.76-6.42-11.76-15.31a17.13,17.13,0,0,1,5.95-12.92c3.13-2.7,8.27-4.64,15.11-4.64s13.85,2.56,18.31,6.42l-6.4,12.37a20.86,20.86,0,0,0-12.21-5.1c-2.67,0-4.16.54-4.16,2.17s2.38,2.08,3.57,2.47,4.32,1.32,6.1,1.93c7.74,2.71,13.4,6.73,13.4,16.09A17.92,17.92,0,0,1,427.63,386.24Z"/><path class="cls-1" d="M472,390V370H458v20H441V337h17v19h14V337h17v53Z"/><path class="cls-1" d="M524.46,390.8c-16,0-27.91-10.13-27.91-27.53s11.91-27.61,27.91-27.61,27.91,10.21,27.91,27.61S540.46,390.8,524.46,390.8Zm0-40.37c-6.7,0-11,5.11-11,12.45s4.32,12.45,11,12.45,10.94-5.1,10.94-12.45S531.16,350.43,524.46,350.43Z"/><path class="cls-1" d="M582.49,373H577v17H560V336h22.49c11.7,0,20.24,5.45,20.24,18.54S594.11,373,582.49,373Zm-2.85-23H577v10h2.64c3.35,0,5.7-1,5.7-5S582.92,350,579.64,350Z"/></svg>
